<svg width="83" height="145" viewBox="0 0 83 145" fill="none" xmlns="http://www.w3.org/2000/svg">
<g filter="url(#filter0_d_116_5993)">
<path fill-rule="evenodd" clip-rule="evenodd" d="M12.2848 79.5449C1.79488 48.6778 2.15936 19.564 12.036 7.56708C12.9418 6.46689 14.1885 5.75049 15.5257 5.29604L27.5948 1.19449C32.7855 -0.569536 38.4716 2.34986 40.2949 7.71514L50.1992 36.8592C52.0226 42.2245 49.2927 48.004 44.102 49.768L39.2747 51.4085C34.8382 52.9162 32.0395 57.4416 33.1146 62.1622C33.8148 65.237 34.7023 68.3843 35.7815 71.5598C36.8607 74.7353 38.0746 77.7716 39.3929 80.6364C41.4167 85.0346 46.3933 86.9176 50.8298 85.41L55.657 83.7694C60.8478 82.0054 66.5338 84.9248 68.3572 90.2901L78.2615 119.434C80.0849 124.799 77.355 130.579 72.1643 132.343L60.0952 136.445C58.758 136.899 57.3329 137.09 55.9444 136.77C40.803 133.275 22.7747 110.412 12.2848 79.5449Z" fill="#BC323B"/>
</g>
<defs>
<filter id="filter0_d_116_5993" x="0.522461" y="0.679688" width="82.3047" height="144.25" filterUnits="userSpaceOnUse" color-interpolation-filters="sRGB">
<feFlood flood-opacity="0" result="BackgroundImageFix"/>
<feColorMatrix in="SourceAlpha" type="matrix" values="0 0 0 0 0 0 0 0 0 0 0 0 0 0 0 0 0 0 127 0" result="hardAlpha"/>
<feOffset dy="4"/>
<feGaussianBlur stdDeviation="2"/>
<feComposite in2="hardAlpha" operator="out"/>
<feColorMatrix type="matrix" values="0 0 0 0 0 0 0 0 0 0 0 0 0 0 0 0 0 0 0.25 0"/>
<feBlend mode="normal" in2="BackgroundImageFix" result="effect1_dropShadow_116_5993"/>
<feBlend mode="normal" in="SourceGraphic" in2="effect1_dropShadow_116_5993" result="shape"/>
</filter>
</defs>
</svg>
