<svg width="current" height="current" viewBox="0 0 13 23" fill="none" xmlns="http://www.w3.org/2000/svg">
<path fill-rule="evenodd" clip-rule="evenodd" d="M1.53944 12.9619C-0.126647 8.05933 -0.0627224 3.4332 1.51418 1.52496C1.65879 1.34997 1.85767 1.23588 2.07094 1.16341L3.99576 0.509275C4.8236 0.227941 5.72946 0.690684 6.01906 1.54284L7.59214 6.17173C7.88174 7.02389 7.4454 7.94276 6.61756 8.22409L5.84769 8.48573C5.14014 8.72618 4.69308 9.44581 4.86352 10.1957C4.97453 10.6841 5.11538 11.184 5.28679 11.6884C5.45819 12.1927 5.6511 12.675 5.86068 13.1299C6.18244 13.8283 6.97541 14.1266 7.68295 13.8861L8.45283 13.6245C9.28067 13.3431 10.1865 13.8059 10.4761 14.658L12.0492 19.2869C12.3388 20.1391 11.9025 21.058 11.0746 21.3393L9.14982 21.9934C8.93655 22.0659 8.70933 22.0966 8.48804 22.046C6.07496 21.4937 3.20552 17.8644 1.53944 12.9619Z" fill="#BC323B"/>
</svg>
