<svg viewBox="0 0 21 18" fill="none" xmlns="http://www.w3.org/2000/svg">
<path fill-rule="evenodd" clip-rule="evenodd" d="M2.1219 10.6252C1.70925 10.4917 1.42969 10.1074 1.42969 9.67372V6.36491C1.42969 5.93117 1.7093 5.54689 2.12199 5.41343L18.7096 0.0492485C19.3555 -0.15961 20.0173 0.321949 20.0173 1.00073V15.0397C20.0173 15.7186 19.3554 16.2001 18.7095 15.9912L2.1219 10.6252Z" fill="#BC323B"/>
<path fill-rule="evenodd" clip-rule="evenodd" d="M9.187 6.80089C8.92568 6.71924 8.64675 6.86315 8.56227 7.12424L6.72271 12.8094C6.6377 13.0722 6.78177 13.3541 7.0445 13.4391L10.4227 14.5322C10.6854 14.6172 10.9673 14.4731 11.0523 14.2104L12.8919 8.52518C12.9764 8.26408 12.8346 7.98406 12.575 7.89715L14.1425 8.40434C14.668 8.57437 14.9561 9.13817 14.7861 9.66363L12.6896 16.1428C12.5196 16.6683 11.9558 16.9564 11.4303 16.7864L4.95117 14.6899C4.4257 14.5199 4.13756 13.9561 4.30759 13.4306L6.40405 6.95146C6.57407 6.426 7.13788 6.13786 7.66334 6.30788L9.187 6.80089ZM9.187 6.80089C9.18864 6.8014 9.19028 6.80192 9.19191 6.80245L12.5701 7.89553C12.5717 7.89606 12.5734 7.8966 12.575 7.89715L9.187 6.80089Z" fill="#BC323B"/>
<rect y="4.44922" width="2.85963" height="7.86399" rx="1" fill="#BC323B"/>
</svg>
