<svg width="180" height="204" viewBox="0 0 180 204" fill="none" xmlns="http://www.w3.org/2000/svg">
<path fill-rule="evenodd" clip-rule="evenodd" d="M110.342 177.369C150.099 168.099 179.714 132.436 179.714 89.8571C179.714 40.2304 139.484 0 89.8571 0C40.2304 0 0 40.2304 0 89.8571C0 132.437 29.6159 168.099 69.3723 177.369L82.2828 199.644C85.6493 205.452 94.0654 205.452 97.4318 199.644L110.342 177.369Z" fill="#BC323B"/>
<path fill-rule="evenodd" clip-rule="evenodd" d="M46.4803 99.4566C44.4161 98.785 43.0176 96.8518 43.0176 94.6698V78.0227C43.0176 75.8405 44.4163 73.9071 46.4807 73.2357L129.458 46.2478C132.689 45.197 136 47.6198 136 51.0348V121.667C136 125.082 132.689 127.505 129.458 126.454L46.4803 99.4566Z" fill="white"/>
<path fill-rule="evenodd" clip-rule="evenodd" d="M82.2018 80.2014C80.8876 79.7908 79.4849 80.5145 79.0601 81.8275L69.8092 110.418C69.3817 111.739 70.1062 113.157 71.4274 113.584L88.416 119.081C89.7372 119.509 91.1549 118.784 91.5824 117.463L100.833 88.8726C101.258 87.5596 100.545 86.1514 99.2397 85.7144L107.123 88.265C109.765 89.12 111.214 91.9553 110.359 94.5978L99.8161 127.181C98.9611 129.823 96.1258 131.272 93.4833 130.417L60.9003 119.874C58.2578 119.019 56.8088 116.184 57.6638 113.542L68.2067 80.9586C69.0617 78.3161 71.897 76.8671 74.5395 77.7221L82.2018 80.2014ZM82.2018 80.2014C82.21 80.204 82.2183 80.2066 82.2265 80.2093L99.2151 85.7062C99.2233 85.7089 99.2315 85.7116 99.2397 85.7144L82.2018 80.2014Z" fill="white"/>
<path d="M36 73.7146C36 71.004 38.1974 68.8066 40.908 68.8066H45.1271C47.8377 68.8066 50.0351 71.004 50.0351 73.7146V102.495C50.0351 105.206 47.8377 107.403 45.1271 107.403H40.908C38.1974 107.403 36 105.206 36 102.495V73.7146Z" fill="white"/>
</svg>
