<svg width="current" height="current" viewBox="0 0 13 13" fill="none" xmlns="http://www.w3.org/2000/svg">
<path fill-rule="evenodd" clip-rule="evenodd" d="M1.70711 0.292893C1.31658 -0.0976311 0.683418 -0.0976311 0.292893 0.292893C-0.0976311 0.683417 -0.0976311 1.31658 0.292893 1.70711L5.03762 6.45184L0.293364 11.1961C-0.0971608 11.5866 -0.0971608 12.2198 0.293364 12.6103C0.683888 13.0008 1.31705 13.0008 1.70758 12.6103L6.45184 7.86605L11.1961 12.6103C11.5866 13.0008 12.2198 13.0008 12.6103 12.6103C13.0008 12.2198 13.0008 11.5866 12.6103 11.1961L7.86605 6.45184L12.6108 1.70711C13.0013 1.31658 13.0013 0.683418 12.6108 0.292893C12.2203 -0.0976311 11.5871 -0.0976311 11.1966 0.292893L6.45184 5.03762L1.70711 0.292893Z" fill="#BC323B"/>
</svg>
