<svg width="90" height="132" viewBox="0 0 90 132" fill="none" xmlns="http://www.w3.org/2000/svg">
<path fill-rule="evenodd" clip-rule="evenodd" d="M90 44.967C90 53.4372 87.6562 61.3607 83.5812 68.1254L47.5143 130.549C46.3969 132.484 43.6031 132.484 42.4857 130.549L6.41885 68.1254C2.3439 61.3614 0 53.4379 0 44.967C0 20.1327 20.1472 0 45 0C69.8528 0 90 20.1327 90 44.967ZM45 73.9779C60.2324 73.9779 72.5806 61.6391 72.5806 46.4175C72.5806 31.196 60.2324 18.8571 45 18.8571C29.7676 18.8571 17.4194 31.196 17.4194 46.4175C17.4194 61.6391 29.7676 73.9779 45 73.9779Z" fill="#BC323B"/>
</svg>
