<svg viewBox="0 0 14 21" fill="none" xmlns="http://www.w3.org/2000/svg">
<ellipse cx="3" cy="4.52344" rx="3" ry="3.5" fill="#BABABA"/>
<path fill-rule="evenodd" clip-rule="evenodd" d="M4.06431 7.90841C4.05404 7.41669 3.65248 7.02344 3.16065 7.02344C2.66884 7.02344 2.26729 7.41666 2.25699 7.90836L2.0188 19.2776C2.01413 19.5006 2.07465 19.7337 2.26048 19.8571C2.41876 19.9622 2.60871 20.0234 2.81295 20.0234H3.50804C3.71203 20.0234 3.90174 19.9624 4.05991 19.8575C4.24594 19.7342 4.30657 19.5009 4.30191 19.2777L4.06431 7.90841Z" fill="#BABABA"/>
<path fill-rule="evenodd" clip-rule="evenodd" d="M12.4719 1.68779C12.4543 1.31027 12.1365 1.01702 11.7588 1.02979C11.3811 1.04255 11.0838 1.35658 11.0918 1.73441L11.4532 18.9439C11.464 19.4574 11.6852 20.0431 12.1985 20.0258L12.6023 20.0121C13.1154 19.9948 13.2966 19.3959 13.2727 18.8831L12.4719 1.68779Z" fill="#BABABA"/>
<path fill-rule="evenodd" clip-rule="evenodd" d="M9.98803 1.72897C9.99258 1.35108 9.6925 1.03975 9.3147 1.03038C8.9369 1.02102 8.62177 1.31709 8.60757 1.69473L7.96103 18.8961C7.94173 19.4093 8.12827 20.0068 8.6417 20.0195L9.04562 20.0295C9.55887 20.0423 9.77479 19.455 9.78096 18.9416L9.98803 1.72897Z" fill="#BABABA"/>
</svg>
