<svg viewBox="0 0 16 19" fill="none" xmlns="http://www.w3.org/2000/svg">
<circle cx="12.5" cy="2.5" r="2.5" fill="#BABABA"/>
<circle cx="3.5" cy="2.5" r="2.5" fill="#BABABA"/>
<path d="M0 7C0 6.44772 0.447715 6 1 6H6C6.55228 6 7 6.44772 7 7V14.5C7 14.7761 6.77614 15 6.5 15H0.5C0.223858 15 0 14.7761 0 14.5V7Z" fill="#BABABA"/>
<path d="M2 14H5V18C5 18.5523 4.55228 19 4 19H3C2.44772 19 2 18.5523 2 18V14Z" fill="#BABABA"/>
<path d="M11 14H14V18C14 18.5523 13.5523 19 13 19H12C11.4477 19 11 18.5523 11 18V14Z" fill="#BABABA"/>
<path fill-rule="evenodd" clip-rule="evenodd" d="M14.948 8.25H14.9553L15.998 14.4131V14.5C15.998 14.7761 15.7742 15 15.498 15H9.49805C9.2219 15 8.99805 14.7761 8.99805 14.5V14.413L10.0408 8.25H10.0481C10.2797 6.96624 11.2886 6 12.498 6C13.7075 6 14.7164 6.96624 14.948 8.25Z" fill="#BABABA"/>
</svg>
