<svg width="181" height="206" viewBox="0 0 181 206" fill="none" xmlns="http://www.w3.org/2000/svg">
<path fill-rule="evenodd" clip-rule="evenodd" d="M111.132 178.638C151.172 169.301 181 133.384 181 90.5C181 40.5182 140.482 0 90.5 0C40.5182 0 0 40.5182 0 90.5C0 133.384 29.8278 169.302 69.8686 178.638L82.8715 201.072C86.2621 206.922 94.7384 206.922 98.1289 201.072L111.132 178.638Z" fill="#BC323B"/>
<path d="M128.635 54.3127C128.635 61.6144 122.716 67.5336 115.414 67.5336C108.113 67.5336 102.193 61.6144 102.193 54.3127C102.193 47.011 108.113 41.0918 115.414 41.0918C122.716 41.0918 128.635 47.011 128.635 54.3127Z" fill="white"/>
<path d="M80.1595 54.3127C80.1595 61.6144 74.2403 67.5336 66.9387 67.5336C59.637 67.5336 53.7178 61.6144 53.7178 54.3127C53.7178 47.011 59.637 41.0918 66.9387 41.0918C74.2403 41.0918 80.1595 47.011 80.1595 54.3127Z" fill="white"/>
<path d="M49.3105 77.3277C49.3105 74.3529 51.5655 71.9414 54.3471 71.9414H79.5297C82.3113 71.9414 84.5662 74.3529 84.5662 77.3277V117.725C84.5662 119.212 83.4388 120.418 82.048 120.418H51.8288C50.438 120.418 49.3105 119.212 49.3105 117.725V77.3277Z" fill="white"/>
<path d="M58.125 116.01H75.7528V137.163C75.7528 140.084 73.1221 142.452 69.8769 142.452H64.0009C60.7558 142.452 58.125 140.084 58.125 137.163V116.01Z" fill="white"/>
<path d="M105.896 113.895H123.524V135.048C123.524 137.969 120.894 140.336 117.648 140.336H111.772C108.527 140.336 105.896 137.969 105.896 135.048V113.895Z" fill="white"/>
<path fill-rule="evenodd" clip-rule="evenodd" d="M128.503 84.0606H128.544L134.453 117.257V117.725C134.453 119.212 133.184 120.418 131.62 120.418H97.6231C96.0584 120.418 94.79 119.212 94.79 117.725V117.256L100.698 84.0606H100.739C102.052 77.1459 107.768 71.9414 114.621 71.9414C121.474 71.9414 127.191 77.1459 128.503 84.0606Z" fill="white"/>
</svg>
