<svg width="111" height="63" viewBox="0 0 111 63" fill="none" xmlns="http://www.w3.org/2000/svg">
<path d="M84.0563 32.6807C84.4611 29.0169 87.5572 26.2441 91.2433 26.2441H98.8029C102.023 26.2441 104.842 28.407 105.675 31.5174L107.071 36.7293C107.354 37.7819 107.428 38.8794 107.292 39.9606C106.761 44.166 103.184 47.3194 98.9452 47.3194H89.8855C86.182 47.3194 83.1797 44.3171 83.1797 40.6137L84.0563 32.6807Z" fill="#9F1019"/>
<ellipse cx="3.1911" cy="51.8622" rx="3.1911" ry="5.01458" fill="#AA2D35"/>
<path d="M45.39 23.266C47.5494 24.4618 49.2421 25.9546 50.2432 27.3746C51.2719 28.8339 51.4536 30.0267 51.0385 30.7762C50.0198 32.6159 47.0343 34.3768 42.8763 32.0742C40.7924 30.9203 39.1634 28.9043 38.2014 26.9009C37.722 25.9024 37.4194 24.9295 37.3045 24.097C37.187 23.2466 37.2758 22.6234 37.4794 22.2557C37.7122 21.8354 38.0255 21.5592 38.4206 21.394C38.8266 21.2243 39.3557 21.157 40.0285 21.2264C41.3872 21.3665 43.1903 22.0479 45.39 23.266Z" fill="#FCFCFC" stroke="#AA2D35" stroke-width="1.24852"/>
<path d="M61.7956 42.8027C61.5012 40.3519 61.7207 38.1057 62.2862 36.4629C62.8673 34.7747 63.728 33.9292 64.5787 33.827C66.6666 33.5762 69.8418 34.9661 70.4087 39.6852C70.6928 42.0502 70.0117 44.551 68.9504 46.5036C68.4214 47.4768 67.8098 48.2915 67.202 48.872C66.5813 49.465 66.0241 49.7578 65.6067 49.808C65.1297 49.8653 64.7224 49.7728 64.3572 49.5492C63.9819 49.3194 63.6177 48.9297 63.2801 48.3436C62.5984 47.16 62.0955 45.2992 61.7956 42.8027Z" fill="#FCFCFC" stroke="#AA2D35" stroke-width="1.24852"/>
<mask id="path-5-inside-1_423_1960" fill="white">
<path fill-rule="evenodd" clip-rule="evenodd" d="M39.9614 33.7346C41.482 35.0609 43.1673 35.997 44.7694 36.4251L44.19 41.6683C44.19 45.3718 47.1923 48.3741 50.8958 48.3741H61.1215C64.574 48.3741 67.3728 45.5753 67.3728 42.1227C67.3728 41.8202 67.3508 41.518 67.3071 41.2186L67.1107 39.8752C67.3715 39.8448 67.6372 39.7982 67.9074 39.7368C67.966 39.7235 68.0242 39.7102 68.0822 39.6971C70.9247 39.0528 72.9968 38.583 71.9852 34.1338C70.953 29.5939 68.2151 26.1647 65.2836 26.8312C64.3517 27.0431 63.5283 27.4652 62.8718 28.0883C61.9614 27.5837 60.9167 27.2988 59.8132 27.2988H52.2536C51.5627 27.2988 50.8925 27.3962 50.2569 27.5786C49.8758 27.0771 49.4109 26.5816 48.8564 26.0981C45.3476 23.0378 42.5895 23.7846 40.3729 26.3261L40.2407 26.4776C38.0903 28.9403 36.5227 30.7356 39.9614 33.7346Z"/>
</mask>
<path fill-rule="evenodd" clip-rule="evenodd" d="M39.9614 33.7346C41.482 35.0609 43.1673 35.997 44.7694 36.4251L44.19 41.6683C44.19 45.3718 47.1923 48.3741 50.8958 48.3741H61.1215C64.574 48.3741 67.3728 45.5753 67.3728 42.1227C67.3728 41.8202 67.3508 41.518 67.3071 41.2186L67.1107 39.8752C67.3715 39.8448 67.6372 39.7982 67.9074 39.7368C67.966 39.7235 68.0242 39.7102 68.0822 39.6971C70.9247 39.0528 72.9968 38.583 71.9852 34.1338C70.953 29.5939 68.2151 26.1647 65.2836 26.8312C64.3517 27.0431 63.5283 27.4652 62.8718 28.0883C61.9614 27.5837 60.9167 27.2988 59.8132 27.2988H52.2536C51.5627 27.2988 50.8925 27.3962 50.2569 27.5786C49.8758 27.0771 49.4109 26.5816 48.8564 26.0981C45.3476 23.0378 42.5895 23.7846 40.3729 26.3261L40.2407 26.4776C38.0903 28.9403 36.5227 30.7356 39.9614 33.7346Z" fill="#9F1019"/>
<path d="M44.7694 36.4251L45.724 36.5305L45.8146 35.7103L45.0173 35.4972L44.7694 36.4251ZM39.9614 33.7346L40.5926 33.0109L39.9614 33.7346ZM44.19 41.6683L43.2354 41.5628L43.2296 41.6154V41.6683H44.19ZM67.3071 41.2186L68.2574 41.0797V41.0797L67.3071 41.2186ZM67.1107 39.8752L66.9994 38.9213L66.0175 39.036L66.1604 40.0141L67.1107 39.8752ZM67.9074 39.7368L68.1203 40.6733L67.9074 39.7368ZM68.0822 39.6971L67.8699 38.7605H67.8699L68.0822 39.6971ZM71.9852 34.1338L71.0487 34.3467L71.9852 34.1338ZM65.2836 26.8312L65.0707 25.8947L65.2836 26.8312ZM62.8718 28.0883L62.4062 28.9283L63.0221 29.2697L63.5329 28.7849L62.8718 28.0883ZM50.2569 27.5786L49.4922 28.1597L49.89 28.6831L50.5219 28.5018L50.2569 27.5786ZM48.8564 26.0981L48.2252 26.8219L48.8564 26.0981ZM40.3729 26.3261L41.0965 26.9576L41.0967 26.9573L40.3729 26.3261ZM40.2407 26.4776L40.9641 27.1093L40.9642 27.1092L40.2407 26.4776ZM45.0173 35.4972C43.5814 35.1135 42.0236 34.2589 40.5926 33.0109L39.3301 34.4584C40.9404 35.8629 42.7532 36.8804 44.5215 37.3529L45.0173 35.4972ZM45.1446 41.7738L45.724 36.5305L43.8148 36.3196L43.2354 41.5628L45.1446 41.7738ZM50.8958 47.4137C47.7227 47.4137 45.1504 44.8414 45.1504 41.6683H43.2296C43.2296 45.9022 46.6619 49.3345 50.8958 49.3345V47.4137ZM61.1215 47.4137H50.8958V49.3345H61.1215V47.4137ZM66.4124 42.1227C66.4124 45.0448 64.0436 47.4137 61.1215 47.4137V49.3345C65.1044 49.3345 68.3332 46.1057 68.3332 42.1227H66.4124ZM66.3568 41.3575C66.3938 41.6109 66.4124 41.8667 66.4124 42.1227H68.3332C68.3332 41.7737 68.3079 41.4251 68.2574 41.0797L66.3568 41.3575ZM66.1604 40.0141L66.3568 41.3575L68.2574 41.0797L68.061 39.7363L66.1604 40.0141ZM67.6944 38.8003C67.4545 38.8548 67.2228 38.8952 66.9994 38.9213L67.2221 40.8292C67.5201 40.7944 67.8199 40.7416 68.1203 40.6733L67.6944 38.8003ZM67.8699 38.7605C67.812 38.7736 67.7534 38.7869 67.6944 38.8003L68.1203 40.6733C68.1785 40.66 68.2365 40.6469 68.2945 40.6337L67.8699 38.7605ZM71.0487 34.3467C71.5317 36.4711 71.1891 37.2702 70.7966 37.6665C70.5662 37.8991 70.2236 38.096 69.7137 38.2761C69.1987 38.4579 68.5948 38.5962 67.8699 38.7605L68.2945 40.6337C68.9909 40.4759 69.7119 40.3138 70.3533 40.0873C70.9996 39.859 71.6449 39.5396 72.1613 39.0181C73.2626 37.9062 73.4503 36.2458 72.9217 33.9209L71.0487 34.3467ZM65.4966 27.7677C66.4884 27.5422 67.5735 27.9684 68.6255 29.1644C69.6735 30.3559 70.5582 32.1892 71.0487 34.3467L72.9217 33.9209C72.38 31.5384 71.3796 29.3873 70.0678 27.8958C68.7599 26.4088 67.0104 25.4537 65.0707 25.8947L65.4966 27.7677ZM63.5329 28.7849C64.0524 28.2919 64.7162 27.9451 65.4966 27.7677L65.0707 25.8947C63.9873 26.141 63.0043 26.6385 62.2106 27.3917L63.5329 28.7849ZM59.8132 28.2592C60.7498 28.2592 61.6348 28.5007 62.4062 28.9283L63.3374 27.2483C62.2881 26.6667 61.0836 26.3384 59.8132 26.3384V28.2592ZM52.2536 28.2592H59.8132V26.3384H52.2536V28.2592ZM50.5219 28.5018C51.0723 28.3438 51.6533 28.2592 52.2536 28.2592V26.3384C51.472 26.3384 50.7127 26.4486 49.9919 26.6555L50.5219 28.5018ZM48.2252 26.8219C48.7353 27.2668 49.1544 27.7151 49.4922 28.1597L51.0216 26.9976C50.5972 26.4391 50.0864 25.8965 49.4877 25.3743L48.2252 26.8219ZM41.0967 26.9573C42.1166 25.7879 43.1498 25.1604 44.2131 25.0683C45.2675 24.9768 46.5859 25.3922 48.2252 26.8219L49.4877 25.3743C47.6182 23.7438 45.8031 23.0024 44.0471 23.1546C42.3 23.3061 40.8458 24.3228 39.6491 25.6948L41.0967 26.9573ZM40.9642 27.1092L41.0965 26.9576L39.6494 25.6945L39.5171 25.8461L40.9642 27.1092ZM40.5926 33.0109C38.9823 31.6064 38.8169 30.7304 38.9461 30.097C39.0239 29.7159 39.2314 29.2927 39.5914 28.7819C39.9526 28.2693 40.4179 27.7348 40.9641 27.1093L39.5172 25.8459C38.9883 26.4517 38.4513 27.0652 38.0212 27.6755C37.5899 28.2876 37.2172 28.9625 37.0641 29.713C36.7316 31.3426 37.5018 32.8638 39.3301 34.4584L40.5926 33.0109Z" fill="#9F1019" mask="url(#path-5-inside-1_423_1960)"/>
<path d="M61.3794 6.29912L61.3794 6.29905C61.5024 5.45144 61.5523 4.62426 61.4568 3.99606C61.356 3.33277 61.1428 3.14322 60.9708 3.09734C60.9738 3.09812 60.9753 3.09852 60.9752 3.09879C60.9751 3.1008 60.8864 3.095 60.668 3.19106C60.4477 3.28798 60.1825 3.4499 59.8989 3.65762C59.3306 4.07379 58.7737 4.61037 58.4739 4.9767C58.073 5.46644 57.3316 5.13518 57.3474 4.55681C57.3474 4.5568 57.3474 4.5568 57.3474 4.55679L61.3794 6.29912ZM61.3794 6.29912C61.3347 6.60692 61.5183 6.89381 61.8017 6.99122C67.0478 8.79461 69.806 13.5631 69.806 18.2352C69.806 21.5186 68.4447 23.9942 65.8197 25.5619C65.5533 25.7209 65.4372 26.0542 65.5595 26.3486L65.5595 26.3486M61.3794 6.29912L65.5595 26.3486M65.5595 26.3486C65.6251 26.5067 65.6824 26.6903 65.7279 26.9025C66.0385 28.3518 65.3209 29.4789 64.4592 29.6636C64.1243 29.7354 63.7725 29.6785 63.4346 29.4967M65.5595 26.3486L63.4346 29.4967M63.4346 29.4967C63.0823 29.3073 62.6478 29.4879 62.5299 29.8661C62.2582 30.7376 61.6473 31.2511 61.0113 31.2958C60.554 31.328 60.0882 31.125 59.7083 30.7017L59.7083 30.7016C59.4129 30.3726 58.8808 30.44 58.676 30.8305L58.6759 30.8306C58.2946 31.5578 57.6361 31.9502 56.9863 31.9022C56.4597 31.8633 55.9773 31.5427 55.6641 31.0099L55.6641 31.0098C55.4326 30.616 54.8754 30.5904 54.6072 30.9564L63.4346 29.4967ZM47.9667 27.1426C48.2491 26.8115 48.12 26.3154 47.7379 26.1482L47.7378 26.1482C46.4363 25.5787 45.4753 24.8198 44.835 23.8427C44.1945 22.8657 43.842 21.6206 43.842 20.0232C43.842 14.9407 47.3893 8.4902 53.5767 6.71123L53.5767 6.71122C53.8743 6.62564 54.0736 6.33358 54.0309 6.01592M47.9667 27.1426L54.0309 6.01592M47.9667 27.1426C47.8209 27.3136 47.6896 27.5395 47.5909 27.8359C47.1227 29.2422 47.7119 30.4415 48.5481 30.7199C49.1782 30.9297 49.9813 30.6571 50.5699 29.8869L47.9667 27.1426ZM54.0309 6.01592C54.0309 6.01592 54.0309 6.01593 54.0309 6.01593L53.4122 6.09911L54.0309 6.01592ZM53.2071 31.7345C53.6826 31.7696 54.1964 31.5169 54.6071 30.9564L53.2071 31.7345ZM53.2071 31.7345C52.5859 31.6886 51.9517 31.1262 51.6902 30.1138M53.2071 31.7345L51.6902 30.1138M51.6902 30.1138C51.5579 29.6016 50.8925 29.4649 50.57 29.8869L51.6902 30.1138ZM62.8432 30.5963L62.8433 30.5964L62.8432 30.5963ZM58.5954 4.59091C58.5954 4.59092 58.5954 4.59092 58.5954 4.59093L58.5954 4.59091ZM47.0167 26.3325C47.0161 26.3332 47.0156 26.3338 47.0151 26.3344L47.0167 26.3325L47.0167 26.3325ZM51.5601 30.6474C51.5607 30.6466 51.5613 30.6458 51.5619 30.645C51.5613 30.6458 51.5607 30.6466 51.5601 30.6474Z" fill="#FCFCFC" stroke="#AA2D35" stroke-width="1.24852"/>
<ellipse cx="50.7577" cy="16.3978" rx="0.938363" ry="1.40754" fill="#AA2D35"/>
<ellipse cx="59.202" cy="16.3978" rx="0.938363" ry="1.40754" fill="#AA2D35"/>
<rect x="49.1113" y="13.0137" width="3.75902" height="0.938363" rx="0.469181" transform="rotate(15.8088 49.1113 13.0137)" fill="#AA2D35"/>
<rect x="57.3252" y="14.0566" width="3.75902" height="0.938363" rx="0.469181" transform="rotate(-14.5354 57.3252 14.0566)" fill="#AA2D35"/>
<path d="M41.8316 49.7798C41.8316 45.8863 44.9879 42.7301 48.8813 42.7301H64.9543C68.8477 42.7301 72.004 45.8863 72.004 49.7798V61.311H41.8316V49.7798Z" fill="#F6F6F6" stroke="#AA2D35" stroke-width="1.4406"/>
<mask id="path-13-inside-2_423_1960" fill="white">
<path fill-rule="evenodd" clip-rule="evenodd" d="M18.2352 26.7891H8.20605V39.4403C4.88828 41.8888 2.73633 45.826 2.73633 50.2659V62.3491H31.9121V44.5903C31.9121 40.2991 28.4333 36.8203 24.1421 36.8203H18.2352V26.7891Z"/>
</mask>
<path fill-rule="evenodd" clip-rule="evenodd" d="M18.2352 26.7891H8.20605V39.4403C4.88828 41.8888 2.73633 45.826 2.73633 50.2659V62.3491H31.9121V44.5903C31.9121 40.2991 28.4333 36.8203 24.1421 36.8203H18.2352V26.7891Z" fill="#F6F6F6"/>
<path d="M8.20605 26.7891V25.3485H6.76546V26.7891H8.20605ZM18.2352 26.7891H19.6758V25.3485H18.2352V26.7891ZM8.20605 39.4403L9.06148 40.5994L9.64665 40.1676V39.4403H8.20605ZM2.73633 62.3491H1.29573V63.7897H2.73633V62.3491ZM31.9121 62.3491V63.7897H33.3527V62.3491H31.9121ZM18.2352 36.8203H16.7946V38.2609H18.2352V36.8203ZM8.20605 28.2297H18.2352V25.3485H8.20605V28.2297ZM9.64665 39.4403V26.7891H6.76546V39.4403H9.64665ZM4.17692 50.2659C4.17692 46.3027 6.09586 42.788 9.06148 40.5994L7.35063 38.2812C3.68071 40.9896 1.29573 45.3493 1.29573 50.2659H4.17692ZM4.17692 62.3491V50.2659H1.29573V62.3491H4.17692ZM31.9121 60.9085H2.73633V63.7897H31.9121V60.9085ZM30.4715 44.5903V62.3491H33.3527V44.5903H30.4715ZM24.1421 38.2609C27.6377 38.2609 30.4715 41.0947 30.4715 44.5903H33.3527C33.3527 39.5034 29.2289 35.3797 24.1421 35.3797V38.2609ZM18.2352 38.2609H24.1421V35.3797H18.2352V38.2609ZM16.7946 26.7891V36.8203H19.6758V26.7891H16.7946Z" fill="#AA2D35" mask="url(#path-13-inside-2_423_1960)"/>
<path d="M79.7672 49.7798C79.7672 45.8863 82.9234 42.7301 86.8169 42.7301H102.89C106.783 42.7301 109.94 45.8863 109.94 49.7798V61.311H79.7672V49.7798Z" fill="#F6F6F6" stroke="#AA2D35" stroke-width="1.4406"/>
<mask id="path-16-inside-3_423_1960" fill="white">
<path fill-rule="evenodd" clip-rule="evenodd" d="M75.5848 33.5489C73.5217 33.3003 72.7246 31.5213 72.7246 29.3635C72.7246 27.0356 73.6523 25.1484 76.0967 25.1484C77.2196 25.1484 77.9335 25.5468 78.3772 26.2031H85.201C87.0401 26.2031 88.531 27.694 88.531 29.5331V31.4543C88.531 33.4338 86.8145 34.9762 84.8463 34.7653L76.7536 33.8982C76.3345 33.8533 75.9404 33.732 75.5848 33.5489Z"/>
</mask>
<path fill-rule="evenodd" clip-rule="evenodd" d="M75.5848 33.5489C73.5217 33.3003 72.7246 31.5213 72.7246 29.3635C72.7246 27.0356 73.6523 25.1484 76.0967 25.1484C77.2196 25.1484 77.9335 25.5468 78.3772 26.2031H85.201C87.0401 26.2031 88.531 27.694 88.531 29.5331V31.4543C88.531 33.4338 86.8145 34.9762 84.8463 34.7653L76.7536 33.8982C76.3345 33.8533 75.9404 33.732 75.5848 33.5489Z" fill="#FCFCFC"/>
<path d="M75.5848 33.5489L76.1562 32.4388L75.9568 32.3361L75.7341 32.3093L75.5848 33.5489ZM78.3772 26.2031L77.3428 26.9023L77.7141 27.4516H78.3772V26.2031ZM84.8463 34.7653L84.9793 33.5239H84.9793L84.8463 34.7653ZM76.7536 33.8982L76.8866 32.6568H76.8866L76.7536 33.8982ZM75.7341 32.3093C75.0863 32.2313 74.7059 31.9443 74.4454 31.5195C74.1522 31.0413 73.9731 30.3125 73.9731 29.3635H71.4761C71.4761 30.5722 71.6956 31.8119 72.3167 32.8248C72.9705 33.8911 74.0202 34.6179 75.4355 34.7884L75.7341 32.3093ZM73.9731 29.3635C73.9731 28.3348 74.183 27.5728 74.5146 27.1021C74.7984 26.6994 75.2449 26.397 76.0967 26.397V23.8999C74.5041 23.8999 73.2646 24.5411 72.4734 25.6639C71.7301 26.7188 71.4761 28.0642 71.4761 29.3635H73.9731ZM76.0967 26.397C76.876 26.397 77.1685 26.6444 77.3428 26.9023L79.4116 25.5039C78.6986 24.4491 77.5632 23.8999 76.0967 23.8999V26.397ZM78.3772 27.4516H85.201V24.9546H78.3772V27.4516ZM85.201 27.4516C86.3506 27.4516 87.2825 28.3836 87.2825 29.5331H89.7795C89.7795 27.0045 87.7297 24.9546 85.201 24.9546V27.4516ZM87.2825 29.5331V31.4543H89.7795V29.5331H87.2825ZM87.2825 31.4543C87.2825 32.6916 86.2096 33.6557 84.9793 33.5239L84.7133 36.0067C87.4194 36.2967 89.7795 34.1759 89.7795 31.4543H87.2825ZM84.9793 33.5239L76.8866 32.6568L76.6206 35.1397L84.7133 36.0067L84.9793 33.5239ZM76.8866 32.6568C76.623 32.6286 76.3774 32.5526 76.1562 32.4388L75.0133 34.6589C75.5035 34.9113 76.0459 35.0781 76.6206 35.1397L76.8866 32.6568Z" fill="#AA2D35" mask="url(#path-16-inside-3_423_1960)"/>
<path fill-rule="evenodd" clip-rule="evenodd" d="M56.3165 22.104C56.5614 21.8316 56.7181 21.4816 56.7579 21.0368C56.9173 19.2559 55.8471 19.1608 53.8361 18.9822C53.7805 18.9773 53.7242 18.9723 53.6672 18.9672C51.5474 18.7775 49.2319 20.8141 49.0681 22.6442C48.9735 23.7017 49.3696 23.5604 50.1298 23.2892C50.6853 23.091 51.4352 22.8234 52.3302 22.9035C53.1202 22.9742 53.9135 22.9871 54.6065 22.8808C54.5497 22.9006 54.4916 22.9187 54.432 22.9348C54.2951 22.9718 54.1574 23.0084 54.0208 23.0447C52.9497 23.3293 51.9521 23.5944 52.0319 23.8894C52.1219 24.222 53.176 24.2263 54.3864 23.8989C55.3554 23.6368 56.103 22.6556 56.3165 22.104Z" fill="#AA2D35"/>
<path d="M80.1006 26.5044C80.1006 25.8039 80.7414 25.2786 81.4283 25.4159L86.9669 26.5237C87.5475 26.6398 87.9348 27.1912 87.847 27.7768L86.6045 36.0601C86.5073 36.7079 85.8731 37.1312 85.2375 36.9723L80.9414 35.8982C80.4472 35.7747 80.1006 35.3307 80.1006 34.8214V26.5044Z" fill="#9F1019"/>
<mask id="path-20-inside-4_423_1960" fill="white">
<path fill-rule="evenodd" clip-rule="evenodd" d="M81.7044 8.05739C81.8332 8.30879 81.977 8.51566 82.1342 8.6826C80.2113 10.8791 79.0449 13.7153 79.0449 17.0535C79.0449 25.3351 86.2234 28.9247 94.3245 28.9247C102.426 28.9247 109.604 25.3351 109.604 17.0535C109.604 13.4167 108.22 10.3757 105.981 8.10859C106.034 8.00333 106.082 7.88964 106.127 7.76711C106.83 5.82969 105.883 3.2498 103.876 2.41737C102.065 1.66581 100.01 2.59564 99.1106 4.20926C97.5889 3.79557 95.9759 3.57982 94.3245 3.57982C92.3707 3.57982 90.4706 3.88183 88.7118 4.45635C88.6666 4.32575 88.6094 4.19223 88.5394 4.05563C87.6055 2.23286 85.1485 1.34728 83.261 2.45233C81.3736 3.55739 80.7704 6.23462 81.7044 8.05739Z"/>
</mask>
<path fill-rule="evenodd" clip-rule="evenodd" d="M81.7044 8.05739C81.8332 8.30879 81.977 8.51566 82.1342 8.6826C80.2113 10.8791 79.0449 13.7153 79.0449 17.0535C79.0449 25.3351 86.2234 28.9247 94.3245 28.9247C102.426 28.9247 109.604 25.3351 109.604 17.0535C109.604 13.4167 108.22 10.3757 105.981 8.10859C106.034 8.00333 106.082 7.88964 106.127 7.76711C106.83 5.82969 105.883 3.2498 103.876 2.41737C102.065 1.66581 100.01 2.59564 99.1106 4.20926C97.5889 3.79557 95.9759 3.57982 94.3245 3.57982C92.3707 3.57982 90.4706 3.88183 88.7118 4.45635C88.6666 4.32575 88.6094 4.19223 88.5394 4.05563C87.6055 2.23286 85.1485 1.34728 83.261 2.45233C81.3736 3.55739 80.7704 6.23462 81.7044 8.05739Z" fill="#FCFCFC"/>
<path d="M82.1342 8.6826L83.0736 9.50499L83.8204 8.65198L83.0431 7.82664L82.1342 8.6826ZM81.7044 8.05739L80.5932 8.62671L81.7044 8.05739ZM105.981 8.10859L104.865 7.54855L104.463 8.34879L105.093 8.98587L105.981 8.10859ZM106.127 7.76711L104.953 7.34098L104.953 7.34098L106.127 7.76711ZM103.876 2.41737L103.398 3.57056L103.876 2.41737ZM99.1106 4.20926L98.7831 5.41405L99.7254 5.67022L100.201 4.81735L99.1106 4.20926ZM88.7118 4.45635L87.532 4.86479L87.9334 6.02409L89.0995 5.64314L88.7118 4.45635ZM88.5394 4.05563L87.4282 4.62495L87.4282 4.62495L88.5394 4.05563ZM83.261 2.45233L83.8918 3.52977L83.261 2.45233ZM83.0431 7.82664C82.9785 7.75801 82.8994 7.65171 82.8155 7.48807L80.5932 8.62671C80.767 8.96587 80.9755 9.27331 81.2253 9.53855L83.0431 7.82664ZM80.2934 17.0535C80.2934 14.0238 81.346 11.4784 83.0736 9.50499L81.1948 7.8602C79.0765 10.2798 77.7964 13.4069 77.7964 17.0535H80.2934ZM94.3245 27.6761C90.433 27.6761 86.888 26.8102 84.3548 25.0663C81.8774 23.3608 80.2934 20.7732 80.2934 17.0535H77.7964C77.7964 21.6154 79.8017 24.9634 82.9388 27.1231C86.0201 29.2443 90.1148 30.1732 94.3245 30.1732V27.6761ZM108.356 17.0535C108.356 20.7732 106.772 23.3608 104.294 25.0663C101.761 26.8102 98.216 27.6761 94.3245 27.6761V30.1732C98.5342 30.1732 102.629 29.2443 105.71 27.1231C108.847 24.9634 110.853 21.6154 110.853 17.0535H108.356ZM105.093 8.98587C107.109 11.0273 108.356 13.7562 108.356 17.0535H110.853C110.853 13.0773 109.331 9.72415 106.869 7.23131L105.093 8.98587ZM104.953 7.34098C104.924 7.42134 104.894 7.49001 104.865 7.54855L107.097 8.66863C107.173 8.51665 107.241 8.35795 107.301 8.19325L104.953 7.34098ZM103.398 3.57056C104.037 3.83586 104.562 4.40505 104.86 5.1449C105.16 5.8893 105.187 6.69878 104.953 7.34098L107.301 8.19325C107.771 6.89802 107.675 5.44884 107.176 4.21083C106.675 2.96828 105.722 1.83131 104.355 1.26419L103.398 3.57056ZM100.201 4.81735C100.843 3.66696 102.263 3.09966 103.398 3.57056L104.355 1.26419C101.867 0.231962 99.1784 1.52432 98.0202 3.60116L100.201 4.81735ZM94.3245 4.82834C95.8676 4.82834 97.3704 5.03 98.7831 5.41405L99.4382 3.00447C97.8074 2.56114 96.0841 2.33131 94.3245 2.33131V4.82834ZM89.0995 5.64314C90.7295 5.11069 92.4985 4.82834 94.3245 4.82834V2.33131C92.2429 2.33131 90.2116 2.65296 88.3242 3.26955L89.0995 5.64314ZM87.4282 4.62495C87.4737 4.71361 87.5073 4.79346 87.532 4.86479L89.8917 4.0479C89.8259 3.85805 89.7451 3.67086 89.6506 3.48631L87.4282 4.62495ZM83.8918 3.52977C85.1037 2.82022 86.7906 3.38035 87.4282 4.62495L89.6506 3.48631C88.4204 1.08536 85.1932 -0.12567 82.6302 1.3749L83.8918 3.52977ZM82.8155 7.48807C82.5065 6.88502 82.4295 6.08031 82.6328 5.30076C82.8347 4.52666 83.2831 3.88616 83.8918 3.52977L82.6302 1.3749C81.3515 2.12356 80.5546 3.3742 80.2166 4.67068C79.8799 5.9617 79.9683 7.40698 80.5932 8.62671L82.8155 7.48807Z" fill="#AA2D35" mask="url(#path-20-inside-4_423_1960)"/>
<mask id="path-22-inside-5_423_1960" fill="white">
<path fill-rule="evenodd" clip-rule="evenodd" d="M90.8638 35.9755C90.5535 36.1353 90.1806 36.2454 89.7353 36.2975C87.3076 36.5816 86.1582 34.7417 85.8771 32.339C85.5959 29.9363 86.2895 27.8808 88.7172 27.5967C89.9335 27.4544 90.7239 27.8575 91.2451 28.5974L98.813 27.6627C100.638 27.4373 102.301 28.7342 102.526 30.5595L102.614 31.2704C102.839 33.0957 101.542 34.7581 99.7171 34.9835L91.6854 35.9754C91.4062 36.0099 91.1308 36.0087 90.8638 35.9755Z"/>
</mask>
<path fill-rule="evenodd" clip-rule="evenodd" d="M90.8638 35.9755C90.5535 36.1353 90.1806 36.2454 89.7353 36.2975C87.3076 36.5816 86.1582 34.7417 85.8771 32.339C85.5959 29.9363 86.2895 27.8808 88.7172 27.5967C89.9335 27.4544 90.7239 27.8575 91.2451 28.5974L98.813 27.6627C100.638 27.4373 102.301 28.7342 102.526 30.5595L102.614 31.2704C102.839 33.0957 101.542 34.7581 99.7171 34.9835L91.6854 35.9754C91.4062 36.0099 91.1308 36.0087 90.8638 35.9755Z" fill="#FCFCFC"/>
<path d="M90.8638 35.9755L91.0179 34.7366L90.635 34.689L90.2921 34.8656L90.8638 35.9755ZM89.7353 36.2975L89.8804 37.5376H89.8804L89.7353 36.2975ZM85.8771 32.339L84.637 32.4841L85.8771 32.339ZM88.7172 27.5967L88.8623 28.8368L88.7172 27.5967ZM91.2451 28.5974L90.2245 29.3164L90.6555 29.9282L91.3982 29.8365L91.2451 28.5974ZM98.813 27.6627L98.966 28.9019L98.813 27.6627ZM102.526 30.5595L101.287 30.7125V30.7125L102.526 30.5595ZM102.614 31.2704L103.853 31.1174V31.1174L102.614 31.2704ZM99.7171 34.9835L99.5641 33.7444L99.7171 34.9835ZM91.6854 35.9754L91.5324 34.7363L91.5324 34.7363L91.6854 35.9754ZM90.2921 34.8656C90.1378 34.945 89.9145 35.0195 89.5902 35.0575L89.8804 37.5376C90.4468 37.4713 90.9691 37.3257 91.4355 37.0855L90.2921 34.8656ZM89.5902 35.0575C88.7644 35.1541 88.2867 34.904 87.9461 34.5097C87.5482 34.049 87.2428 33.2681 87.1171 32.1939L84.637 32.4841C84.7925 33.8125 85.2023 35.153 86.0563 36.1418C86.9677 37.1971 88.2785 37.725 89.8804 37.5376L89.5902 35.0575ZM87.1171 32.1939C86.9914 31.1197 87.1083 30.2894 87.3891 29.7492C87.6294 29.287 88.0365 28.9334 88.8623 28.8368L88.5721 26.3566C86.9702 26.5441 85.8167 27.3603 85.1735 28.5975C84.5709 29.7568 84.4816 31.1557 84.637 32.4841L87.1171 32.1939ZM88.8623 28.8368C89.3034 28.7851 89.5797 28.8417 89.7554 28.9161C89.9254 28.988 90.0781 29.1087 90.2245 29.3164L92.2658 27.8783C91.8909 27.3462 91.3878 26.8954 90.7283 26.6163C90.0744 26.3397 89.3474 26.2659 88.5721 26.3566L88.8623 28.8368ZM91.3982 29.8365L98.966 28.9019L98.66 26.4236L91.0921 27.3583L91.3982 29.8365ZM98.966 28.9019C100.107 28.7609 101.146 29.5716 101.287 30.7125L103.765 30.4065C103.455 27.8969 101.17 26.1137 98.66 26.4236L98.966 28.9019ZM101.287 30.7125L101.375 31.4235L103.853 31.1174L103.765 30.4065L101.287 30.7125ZM101.375 31.4235C101.516 32.5644 100.705 33.6035 99.5641 33.7444L99.8701 36.2226C102.38 35.9126 104.163 33.627 103.853 31.1174L101.375 31.4235ZM99.5641 33.7444L91.5324 34.7363L91.8384 37.2145L99.8701 36.2226L99.5641 33.7444ZM91.5324 34.7363C91.356 34.7581 91.1837 34.7572 91.0179 34.7366L90.7097 37.2145C91.0779 37.2603 91.4564 37.2617 91.8385 37.2145L91.5324 34.7363Z" fill="#AA2D35" mask="url(#path-22-inside-5_423_1960)"/>
<path d="M94.2496 28.7464C94.089 28.0579 94.6045 27.3967 95.3114 27.3845L101.985 27.2692C102.449 27.2612 102.869 27.5425 103.038 27.9745L104.185 30.9053C104.262 31.1027 104.281 31.318 104.24 31.5259L103.455 35.4824C103.354 35.9889 102.918 36.3592 102.402 36.3757L96.9857 36.5489C96.4567 36.5658 95.9894 36.207 95.8692 35.6916L94.2496 28.7464Z" fill="#9F1019"/>
<rect x="89.585" y="8.78516" width="7.37635" height="1.58065" rx="0.790323" fill="#AA2D35"/>
<rect x="89.585" y="5.62305" width="7.37635" height="1.58065" rx="0.790323" fill="#AA2D35"/>
<path fill-rule="evenodd" clip-rule="evenodd" d="M109.387 14.6113H106.181C105.744 14.6113 105.391 14.9652 105.391 15.4017C105.391 15.8381 105.744 16.192 106.181 16.192H109.579C109.546 15.6506 109.481 15.1235 109.387 14.6113Z" fill="#AA2D35"/>
<path fill-rule="evenodd" clip-rule="evenodd" d="M79.0462 17.2447H80.6739C81.1104 17.2447 81.4642 16.8909 81.4642 16.4544C81.4642 16.0179 81.1104 15.6641 80.6739 15.6641H79.1142C79.0684 16.1171 79.0449 16.5806 79.0449 17.0542C79.0449 17.118 79.0453 17.1815 79.0462 17.2447Z" fill="#AA2D35"/>
<rect x="93.9092" y="13.5566" width="4.65871" height="1.05376" rx="0.526882" transform="rotate(3.94079 93.9092 13.5566)" fill="#AA2D35"/>
<rect x="85.374" y="13.8691" width="4.02783" height="1.05376" rx="0.526882" transform="rotate(-3.36908 85.374 13.8691)" fill="#AA2D35"/>
<path fill-rule="evenodd" clip-rule="evenodd" d="M79.2302 19.3541H81.4005C81.837 19.3541 82.1909 19.0002 82.1909 18.5638C82.1909 18.1273 81.837 17.7734 81.4005 17.7734H79.0479C79.0764 18.3221 79.1379 18.8488 79.2302 19.3541Z" fill="#AA2D35"/>
<path fill-rule="evenodd" clip-rule="evenodd" d="M109.601 16.7168H106.181C105.744 16.7168 105.391 17.0706 105.391 17.5071C105.391 17.9436 105.744 18.2974 106.181 18.2974H109.548C109.586 17.8942 109.605 17.4785 109.605 17.0503C109.605 16.9385 109.604 16.8274 109.601 16.7168Z" fill="#AA2D35"/>
<path fill-rule="evenodd" clip-rule="evenodd" d="M92.4307 3.6791V9.04741C92.4307 9.48389 92.7845 9.83773 93.221 9.83773C93.6575 9.83773 94.0113 9.48389 94.0113 9.04741V3.58594C93.4795 3.59479 92.952 3.62605 92.4307 3.6791Z" fill="#AA2D35"/>
<path d="M96.961 16.9813C96.961 17.7087 96.6348 18.2985 95.9073 18.2985C95.1798 18.2985 94.8535 17.7087 94.8535 16.9813C94.8535 16.2538 95.1798 15.6641 95.9073 15.6641C96.6348 15.6641 96.961 16.2538 96.961 16.9813Z" fill="#AA2D35"/>
<path d="M88.5304 16.9813C88.5304 17.7087 88.2041 18.2985 87.4766 18.2985C86.7491 18.2985 86.4229 17.7087 86.4229 16.9813C86.4229 16.2538 86.7491 15.6641 87.4766 15.6641C88.2041 15.6641 88.5304 16.2538 88.5304 16.9813Z" fill="#AA2D35"/>
<path d="M92.7463 19.0248C92.7463 19.5243 92.0664 19.7756 91.1934 19.7756C90.3204 19.7756 89.585 19.5243 89.585 19.0248C89.585 18.5253 90.2926 17.7734 91.1656 17.7734C92.0386 17.7734 92.7463 18.5253 92.7463 19.0248Z" fill="#AA2D35"/>
<path d="M90.6387 23.044C91.5168 23.044 93.4838 22.8332 94.3268 21.9902" stroke="#AA2D35" stroke-width="1.24852" stroke-linecap="round"/>
<rect x="72.7227" y="49.3867" width="6.32258" height="2.10753" fill="#AA2D35"/>
<rect x="31.7461" y="49.875" width="9.97746" height="2.10753" fill="#AA2D35"/>
<rect x="41.9541" y="57.7871" width="30.0875" height="3.64697" fill="#AA2D35"/>
<rect x="3.64648" y="57.7871" width="27.3522" height="3.64697" fill="#AA2D35"/>
<rect x="80.2471" y="57.7871" width="30.0875" height="3.64697" fill="#AA2D35"/>
<rect x="6.38281" y="23.1426" width="13.6761" height="4.55871" rx="1.92079" fill="#AA2D35"/>
<circle cx="51" cy="47" r="1" fill="#AA2D35"/>
<circle cx="89" cy="47" r="1" fill="#AA2D35"/>
<circle cx="63" cy="47" r="1" fill="#AA2D35"/>
<circle cx="101" cy="47" r="1" fill="#AA2D35"/>
</svg>
