<svg viewBox="0 0 290 162" fill="none" xmlns="http://www.w3.org/2000/svg">
<path d="M219.633 84.4802C220.691 74.9071 228.781 67.6621 238.412 67.6621H258.165C266.579 67.6621 273.943 73.3135 276.121 81.4407L279.77 95.0587C280.507 97.8093 280.702 100.677 280.345 103.502C278.958 114.49 269.612 122.73 258.537 122.73H234.864C225.187 122.73 217.343 114.885 217.343 105.208L219.633 84.4802Z" fill="#9F1019"/>
<ellipse cx="8.33802" cy="134.599" rx="8.33802" ry="13.1026" fill="#BC323B"/>
<path d="M118.598 59.8801C124.241 63.0046 128.664 66.9051 131.279 70.6156C133.967 74.4286 134.442 77.5451 133.357 79.5035C130.695 84.3106 122.895 88.9115 112.03 82.8952C106.585 79.8801 102.329 74.6125 99.8154 69.3778C98.5626 66.7687 97.7721 64.2268 97.4717 62.0515C97.1648 59.8295 97.3966 58.2012 97.9287 57.2404C98.5369 56.142 99.3557 55.4205 100.388 54.9889C101.449 54.5453 102.831 54.3696 104.589 54.5509C108.139 54.9168 112.851 56.6974 118.598 59.8801Z" fill="#FCFCFC" stroke="#BC323B" stroke-width="3.26225"/>
<path d="M161.467 110.924C160.698 104.521 161.272 98.6514 162.749 94.3589C164.268 89.9477 166.517 87.7385 168.739 87.4715C174.195 86.8161 182.491 90.448 183.972 102.778C184.715 108.958 182.935 115.492 180.162 120.594C178.78 123.137 177.182 125.266 175.594 126.783C173.972 128.332 172.516 129.097 171.425 129.228C170.179 129.378 169.115 129.136 168.16 128.552C167.18 127.952 166.228 126.934 165.346 125.402C163.565 122.309 162.251 117.447 161.467 110.924Z" fill="#FCFCFC" stroke="#BC323B" stroke-width="3.26225"/>
<mask id="path-5-inside-1_348_2441" fill="white">
<path fill-rule="evenodd" clip-rule="evenodd" d="M104.413 87.2325C108.387 90.6984 112.791 93.1445 116.978 94.2628L115.464 107.961C115.464 117.638 123.309 125.482 132.986 125.482H159.705C168.726 125.482 176.039 118.169 176.039 109.148C176.039 108.358 175.981 107.568 175.867 106.786L175.354 103.279C176.035 103.199 176.729 103.078 177.434 102.917C177.587 102.882 177.739 102.848 177.891 102.814C185.318 101.13 190.732 99.9026 188.089 88.2773C185.392 76.4148 178.238 67.4547 170.578 69.1962C168.145 69.7495 165.994 70.8516 164.279 72.4783C161.9 71.1594 159.17 70.4146 156.286 70.4146H136.534C134.727 70.4146 132.975 70.6694 131.314 71.1466C130.318 69.8364 129.104 68.5421 127.655 67.2789C118.487 59.2828 111.28 61.2341 105.489 67.8746L105.143 68.2706C99.5243 74.7053 95.4283 79.3962 104.413 87.2325Z"/>
</mask>
<path fill-rule="evenodd" clip-rule="evenodd" d="M104.413 87.2325C108.387 90.6984 112.791 93.1445 116.978 94.2628L115.464 107.961C115.464 117.638 123.309 125.482 132.986 125.482H159.705C168.726 125.482 176.039 118.169 176.039 109.148C176.039 108.358 175.981 107.568 175.867 106.786L175.354 103.279C176.035 103.199 176.729 103.078 177.434 102.917C177.587 102.882 177.739 102.848 177.891 102.814C185.318 101.13 190.732 99.9026 188.089 88.2773C185.392 76.4148 178.238 67.4547 170.578 69.1962C168.145 69.7495 165.994 70.8516 164.279 72.4783C161.9 71.1594 159.17 70.4146 156.286 70.4146H136.534C134.727 70.4146 132.975 70.6694 131.314 71.1466C130.318 69.8364 129.104 68.5421 127.655 67.2789C118.487 59.2828 111.28 61.2341 105.489 67.8746L105.143 68.2706C99.5243 74.7053 95.4283 79.3962 104.413 87.2325Z" fill="#0C4869"/>
<path d="M116.978 94.2628L119.472 94.5384L119.709 92.3949L117.626 91.8384L116.978 94.2628ZM104.413 87.2325L102.764 89.1237H102.764L104.413 87.2325ZM115.464 107.961L112.97 107.685L112.955 107.823V107.961H115.464ZM175.867 106.786L173.384 107.149V107.149L175.867 106.786ZM175.354 103.279L175.063 100.786L172.498 101.086L172.871 103.642L175.354 103.279ZM177.434 102.917L177.99 105.364L177.99 105.364L177.434 102.917ZM177.891 102.814L178.446 105.261L178.446 105.261L177.891 102.814ZM188.089 88.2773L185.642 88.8336L188.089 88.2773ZM170.578 69.1962L171.135 71.6432L170.578 69.1962ZM164.279 72.4783L163.063 74.673L164.671 75.565L166.006 74.299L164.279 72.4783ZM131.314 71.1466L129.316 72.6649L130.355 74.0328L132.006 73.5585L131.314 71.1466ZM127.655 67.2789L129.305 65.3877L129.305 65.3877L127.655 67.2789ZM105.489 67.8746L107.379 69.5248L107.38 69.5241L105.489 67.8746ZM105.143 68.2706L107.033 69.9211L107.034 69.9207L105.143 68.2706ZM117.626 91.8384C113.873 90.8361 109.802 88.6029 106.063 85.3413L102.764 89.1237C106.972 92.794 111.709 95.4529 116.33 96.6872L117.626 91.8384ZM117.959 108.236L119.472 94.5384L114.484 93.9872L112.97 107.685L117.959 108.236ZM132.986 122.973C124.695 122.973 117.974 116.252 117.974 107.961H112.955C112.955 119.024 121.923 127.992 132.986 127.992V122.973ZM159.705 122.973H132.986V127.992H159.705V122.973ZM173.529 109.148C173.529 116.783 167.34 122.973 159.705 122.973V127.992C170.112 127.992 178.548 119.555 178.548 109.148H173.529ZM173.384 107.149C173.481 107.811 173.529 108.479 173.529 109.148H178.548C178.548 108.236 178.482 107.325 178.35 106.423L173.384 107.149ZM172.871 103.642L173.384 107.149L178.35 106.423L177.837 102.916L172.871 103.642ZM176.878 100.47C176.251 100.613 175.646 100.718 175.063 100.786L175.646 105.771C176.424 105.68 177.206 105.543 177.99 105.364L176.878 100.47ZM177.336 100.366C177.185 100.401 177.032 100.435 176.878 100.47L177.99 105.364C178.143 105.33 178.294 105.295 178.446 105.261L177.336 100.366ZM185.642 88.8336C186.904 94.3842 186.009 96.4722 184.983 97.5077C184.381 98.1156 183.486 98.6301 182.154 99.1006C180.808 99.5758 179.23 99.9369 177.336 100.366L178.446 105.261C180.265 104.848 182.149 104.425 183.825 103.833C185.514 103.237 187.2 102.402 188.549 101.039C191.427 98.134 191.917 93.7956 190.536 87.7209L185.642 88.8336ZM171.135 71.6432C173.726 71.054 176.562 72.1675 179.31 75.2926C182.049 78.4058 184.36 83.1963 185.642 88.8336L190.536 87.7209C189.121 81.4958 186.507 75.875 183.079 71.9779C179.662 68.0927 175.09 65.5969 170.022 66.7492L171.135 71.6432ZM166.006 74.299C167.363 73.0119 169.097 72.1066 171.135 71.6432L170.022 66.7492C167.193 67.3925 164.625 68.6913 162.552 70.6576L166.006 74.299ZM156.286 72.924C158.734 72.924 161.047 73.5554 163.063 74.673L165.496 70.2836C162.754 68.7635 159.606 67.9052 156.286 67.9052V72.924ZM136.534 72.924H156.286V67.9052H136.534V72.924ZM132.006 73.5585C133.445 73.1453 134.964 72.924 136.534 72.924V67.9052C134.49 67.9052 132.505 68.1935 130.621 68.7347L132.006 73.5585ZM126.006 69.1701C127.338 70.3324 128.433 71.5034 129.316 72.6649L133.312 69.6283C132.203 68.1694 130.869 66.7519 129.305 65.3877L126.006 69.1701ZM107.38 69.5241C110.045 66.4685 112.744 64.829 115.522 64.588C118.278 64.3491 121.722 65.4344 126.006 69.1701L129.305 65.3877C124.42 61.1273 119.677 59.1901 115.089 59.588C110.524 59.9838 106.724 62.6402 103.597 66.2252L107.38 69.5241ZM107.034 69.9207L107.379 69.5248L103.598 66.2245L103.252 66.6204L107.034 69.9207ZM106.063 85.3413C101.855 81.6715 101.423 79.3826 101.761 77.7276C101.964 76.7319 102.506 75.6262 103.446 74.2914C104.39 72.952 105.606 71.5555 107.033 69.9211L103.253 66.62C101.871 68.2029 100.467 69.8058 99.3437 71.4006C98.2168 73 97.2431 74.7634 96.843 76.7243C95.9742 80.9824 97.9865 84.9571 102.764 89.1237L106.063 85.3413Z" fill="#0C4869" mask="url(#path-5-inside-1_348_2441)"/>
<path d="M171.301 67.9328L171.301 67.933C171.473 68.3458 171.623 68.8257 171.742 69.38C172.553 73.1669 170.678 76.1121 168.427 76.5947C167.552 76.7822 166.632 76.6334 165.749 76.1587L165.749 76.1585C164.829 75.6641 163.694 76.1349 163.386 77.1238C162.676 79.4009 161.079 80.7427 159.418 80.8594C158.223 80.9434 157.006 80.4132 156.013 79.307C155.242 78.4472 153.851 78.6229 153.315 79.6438L153.315 79.6438C152.319 81.544 150.599 82.5693 148.901 82.4439C147.525 82.3423 146.264 81.5046 145.446 80.1123C144.841 79.0834 143.385 79.0162 142.684 79.9726L143.984 80.925L142.684 79.9726C141.611 81.437 140.268 82.0974 139.026 82.0056C137.403 81.8857 135.746 80.4162 135.062 77.771C134.717 76.432 132.978 76.076 132.135 77.1779L132.135 77.178C130.597 79.1904 128.499 79.9029 126.852 79.3547C124.667 78.6272 123.128 75.4936 124.351 71.8191C124.609 71.0444 124.952 70.4543 125.333 70.0075L125.334 70.0072C126.071 69.142 125.734 67.8463 124.736 67.4092L124.735 67.4091C121.335 65.9211 118.824 63.9382 117.15 61.3853C115.477 58.8323 114.556 55.579 114.556 51.4052C114.556 38.1251 123.825 21.2706 139.992 16.6223L139.992 16.6223C140.769 16.3987 141.29 15.6357 141.178 14.8056C140.985 13.3662 141.082 11.6823 141.548 9.93415C142.186 7.54439 143.44 5.2036 144.863 3.59845C146.387 1.87879 147.623 1.49459 148.298 1.6748C148.299 1.67491 148.306 1.67657 148.322 1.68644C148.34 1.697 148.371 1.71933 148.416 1.76305C148.508 1.8549 148.633 2.01937 148.771 2.29147C149.052 2.84662 149.293 3.65797 149.474 4.6734C149.833 6.68974 149.895 9.13133 149.844 10.993C149.803 12.5043 151.74 13.3697 152.788 12.0901L151.525 11.057L152.788 12.0901C153.571 11.133 155.026 9.73092 156.511 8.6435C157.252 8.10077 157.945 7.67769 158.521 7.42444C159.091 7.17343 159.323 7.18861 159.323 7.18334C159.323 7.18286 159.322 7.18222 159.318 7.1812C159.766 7.30391 160.319 7.80251 160.582 9.52783C160.831 11.1693 160.701 13.3306 160.379 15.5453C160.263 16.3496 160.742 17.0993 161.483 17.3539C175.19 22.066 182.397 34.5255 182.397 46.7333C182.397 55.3124 178.84 61.7811 171.981 65.8772C171.285 66.293 170.982 67.1639 171.301 67.9328ZM156.205 81.1587C156.204 81.1597 156.204 81.1607 156.203 81.1616C156.204 81.1607 156.204 81.1597 156.205 81.1587ZM142.633 81.7653C142.634 81.7662 142.635 81.7672 142.635 81.7682C142.635 81.7672 142.634 81.7662 142.633 81.7652L142.633 81.7653Z" fill="#FCFCFC" stroke="#BC323B" stroke-width="3.26225"/>
<ellipse cx="132.625" cy="41.9317" rx="2.45185" ry="3.67778" fill="#BC323B"/>
<ellipse cx="154.688" cy="41.9317" rx="2.45185" ry="3.67778" fill="#BC323B"/>
<rect x="128.323" y="33.0879" width="9.82196" height="2.45185" rx="1.22593" transform="rotate(15.8088 128.323 33.0879)" fill="#BC323B"/>
<rect x="23.3235" y="70.9641" width="22.4411" height="31.9703" fill="#F6F6F6" stroke="#BC323B" stroke-width="3.76414"/>
<rect x="149.785" y="35.8145" width="9.82196" height="2.45185" rx="1.22593" transform="rotate(-14.5354 149.785 35.8145)" fill="#BC323B"/>
<path d="M109.301 129.156C109.301 118.983 117.548 110.736 127.721 110.736H169.718C179.891 110.736 188.138 118.983 188.138 129.156V159.286H109.301V129.156Z" fill="#F6F6F6" stroke="#BC323B" stroke-width="3.76414"/>
<path d="M9.03148 130.427C9.03148 112.063 23.918 97.177 42.2814 97.177H63.0806C73.2537 97.177 81.5007 105.424 81.5007 115.597V160.117H9.03148V130.427Z" fill="#F6F6F6" stroke="#BC323B" stroke-width="3.76414"/>
<path d="M208.423 129.156C208.423 118.983 216.67 110.736 226.843 110.736H268.84C279.013 110.736 287.26 118.983 287.26 129.156V159.286H208.423V129.156Z" fill="#F6F6F6" stroke="#BC323B" stroke-width="3.76414"/>
<mask id="path-16-inside-2_348_2441" fill="white">
<path fill-rule="evenodd" clip-rule="evenodd" d="M197.501 86.747C192.107 86.1 190.022 81.4503 190.022 75.8104C190.022 69.7278 192.447 64.7969 198.833 64.7969C201.767 64.7969 203.632 65.837 204.791 67.5511H222.623C227.428 67.5511 231.324 71.4466 231.324 76.2521V81.2718C231.324 86.4441 226.839 90.4743 221.696 89.9233L200.551 87.6577C199.457 87.5406 198.429 87.2242 197.501 86.747Z"/>
</mask>
<path fill-rule="evenodd" clip-rule="evenodd" d="M197.501 86.747C192.107 86.1 190.022 81.4503 190.022 75.8104C190.022 69.7278 192.447 64.7969 198.833 64.7969C201.767 64.7969 203.632 65.837 204.791 67.5511H222.623C227.428 67.5511 231.324 71.4466 231.324 76.2521V81.2718C231.324 86.4441 226.839 90.4743 221.696 89.9233L200.551 87.6577C199.457 87.5406 198.429 87.2242 197.501 86.747Z" fill="#FCFCFC"/>
<path d="M197.501 86.747L198.993 83.8457L198.471 83.5778L197.89 83.508L197.501 86.747ZM204.791 67.5511L202.089 69.3788L203.059 70.8133H204.791V67.5511ZM221.696 89.9233L222.044 86.6796L221.696 89.9233ZM200.551 87.6577L200.203 90.9014H200.203L200.551 87.6577ZM197.89 83.508C196.195 83.3047 195.2 82.5549 194.519 81.4451C193.753 80.1955 193.285 78.291 193.285 75.8104H186.76C186.76 78.9697 187.334 82.21 188.958 84.857C190.668 87.6438 193.413 89.5423 197.113 89.9861L197.89 83.508ZM193.285 75.8104C193.285 73.1227 193.833 71.1315 194.7 69.9017C195.441 68.8494 196.608 68.0591 198.833 68.0591V61.5346C194.672 61.5346 191.433 63.2098 189.366 66.1436C187.424 68.9 186.76 72.4156 186.76 75.8104H193.285ZM198.833 68.0591C200.869 68.0591 201.633 68.7053 202.089 69.3788L207.493 65.7234C205.63 62.9687 202.664 61.5346 198.833 61.5346V68.0591ZM204.791 70.8133H222.623V64.2888H204.791V70.8133ZM222.623 70.8133C225.627 70.8133 228.062 73.2483 228.062 76.2521H234.586C234.586 69.6449 229.23 64.2888 222.623 64.2888V70.8133ZM228.062 76.2521V81.2718H234.586V76.2521H228.062ZM228.062 81.2718C228.062 84.5048 225.258 87.024 222.044 86.6796L221.349 93.167C228.42 93.9246 234.586 88.3833 234.586 81.2718H228.062ZM222.044 86.6796L200.898 84.414L200.203 90.9014L221.349 93.167L222.044 86.6796ZM200.898 84.414C200.211 84.3403 199.57 84.1424 198.993 83.8457L196.01 89.6483C197.289 90.306 198.704 90.7408 200.203 90.9014L200.898 84.414Z" fill="#BC323B" mask="url(#path-16-inside-2_348_2441)"/>
<path fill-rule="evenodd" clip-rule="evenodd" d="M147.148 56.8422C147.789 56.1303 148.199 55.2151 148.303 54.052C148.719 49.3986 145.923 49.1503 140.668 48.6836C140.523 48.6707 140.376 48.6576 140.227 48.6443C134.688 48.1487 128.638 53.4701 128.21 58.2521C127.963 61.0152 128.998 60.6459 130.984 59.9372C132.436 59.4194 134.395 58.7202 136.734 58.9295C138.797 59.1141 140.869 59.1479 142.679 58.8706C142.531 58.9221 142.38 58.9692 142.225 59.0111C141.867 59.1078 141.507 59.2034 141.15 59.2982C138.352 60.0419 135.745 60.7345 135.953 61.5053C136.189 62.3745 138.943 62.3856 142.106 61.5301C144.636 60.8456 146.589 58.284 147.148 56.8422Z" fill="#BC323B"/>
<path d="M209.295 68.3386C209.295 66.5084 210.969 65.1357 212.764 65.4946L227.236 68.389C228.753 68.6924 229.765 70.1332 229.535 71.6632L226.289 93.3067C226.035 94.9995 224.378 96.1054 222.717 95.6902L211.492 92.8838C210.201 92.5611 209.295 91.401 209.295 90.0701V68.3386Z" fill="#9F1019"/>
<mask id="path-20-inside-3_348_2441" fill="white">
<path fill-rule="evenodd" clip-rule="evenodd" d="M213.486 20.1407C213.823 20.7983 214.2 21.3393 214.611 21.7758C209.586 27.5152 206.538 34.9263 206.538 43.6491C206.538 65.288 225.295 74.6672 246.462 74.6672C267.63 74.6672 286.386 65.288 286.386 43.6491C286.386 34.1459 282.769 26.1997 276.918 20.2758C277.056 20.0006 277.184 19.7034 277.3 19.383C279.138 14.3207 276.661 7.5797 271.42 5.40464C266.686 3.4407 261.317 5.87089 258.966 10.0879C254.991 9.0072 250.777 8.44361 246.462 8.44361C241.357 8.44361 236.392 9.2327 231.797 10.7338C231.679 10.3919 231.529 10.0422 231.346 9.68448C228.905 4.92175 222.485 2.60781 217.554 5.49522C212.622 8.38262 211.046 15.378 213.486 20.1407Z"/>
</mask>
<path fill-rule="evenodd" clip-rule="evenodd" d="M213.486 20.1407C213.823 20.7983 214.2 21.3393 214.611 21.7758C209.586 27.5152 206.538 34.9263 206.538 43.6491C206.538 65.288 225.295 74.6672 246.462 74.6672C267.63 74.6672 286.386 65.288 286.386 43.6491C286.386 34.1459 282.769 26.1997 276.918 20.2758C277.056 20.0006 277.184 19.7034 277.3 19.383C279.138 14.3207 276.661 7.5797 271.42 5.40464C266.686 3.4407 261.317 5.87089 258.966 10.0879C254.991 9.0072 250.777 8.44361 246.462 8.44361C241.357 8.44361 236.392 9.2327 231.797 10.7338C231.679 10.3919 231.529 10.0422 231.346 9.68448C228.905 4.92175 222.485 2.60781 217.554 5.49522C212.622 8.38262 211.046 15.378 213.486 20.1407Z" fill="#FCFCFC"/>
<path d="M214.611 21.7758L217.065 23.9247L219.017 21.695L216.985 19.5384L214.611 21.7758ZM213.486 20.1407L216.39 18.6531L216.39 18.6531L213.486 20.1407ZM276.918 20.2758L274.003 18.8122L272.953 20.9033L274.597 22.5681L276.918 20.2758ZM277.3 19.383L274.234 18.2695L274.234 18.2696L277.3 19.383ZM271.42 5.40464L272.67 2.39148L272.67 2.39148L271.42 5.40464ZM258.966 10.0879L258.111 13.2359L260.573 13.9052L261.816 11.6764L258.966 10.0879ZM231.797 10.7338L228.714 11.8L229.762 14.8305L232.81 13.8348L231.797 10.7338ZM231.346 9.68448L234.249 8.1969V8.1969L231.346 9.68448ZM217.554 5.49522L215.905 2.67998L217.554 5.49522ZM216.985 19.5384C216.816 19.3591 216.609 19.0812 216.39 18.6531L210.583 21.6283C211.038 22.5155 211.583 23.3196 212.237 24.0131L216.985 19.5384ZM209.8 43.6491C209.8 35.7324 212.551 29.0812 217.065 23.9247L212.156 19.6268C206.621 25.9492 203.276 34.1202 203.276 43.6491H209.8ZM246.462 71.405C236.294 71.405 227.031 69.1425 220.412 64.5857C213.939 60.1294 209.8 53.3683 209.8 43.6491H203.276C203.276 55.5689 208.515 64.3168 216.712 69.9598C224.764 75.5024 235.463 77.9295 246.462 77.9295V71.405ZM283.124 43.6491C283.124 53.3683 278.985 60.1294 272.512 64.5857C265.893 69.1425 256.63 71.405 246.462 71.405V77.9295C257.462 77.9295 268.161 75.5024 276.212 69.9598C284.409 64.3168 289.648 55.5689 289.648 43.6491H283.124ZM274.597 22.5681C279.865 27.9023 283.124 35.0329 283.124 43.6491H289.648C289.648 33.2589 285.672 24.4971 279.239 17.9834L274.597 22.5681ZM274.234 18.2696C274.157 18.4797 274.079 18.6592 274.003 18.8122L279.834 21.7393C280.033 21.3419 280.21 20.927 280.366 20.4964L274.234 18.2696ZM270.169 8.4178C271.84 9.11101 273.21 10.5983 273.989 12.5314C274.774 14.4765 274.843 16.5915 274.234 18.2695L280.366 20.4965C281.595 17.1121 281.345 13.3256 280.04 10.0908C278.731 6.84411 276.241 3.87333 272.67 2.39148L270.169 8.4178ZM261.816 11.6764C263.492 8.67 267.204 7.18727 270.169 8.4178L272.67 2.39148C266.169 -0.305868 259.143 3.07179 256.117 8.49934L261.816 11.6764ZM246.462 11.7059C250.494 11.7059 254.42 12.2326 258.111 13.2359L259.822 6.93982C255.562 5.78175 251.059 5.18136 246.462 5.18136V11.7059ZM232.81 13.8348C237.069 12.4436 241.691 11.7059 246.462 11.7059V5.18136C241.023 5.18136 235.716 6.02179 230.784 7.63282L232.81 13.8348ZM228.442 11.1721C228.561 11.4042 228.649 11.6133 228.714 11.8L234.88 9.66763C234.708 9.17041 234.497 8.68019 234.249 8.1969L228.442 11.1721ZM219.202 8.31045C222.369 6.45648 226.776 7.92005 228.442 11.1721L234.249 8.1969C231.035 1.92345 222.602 -1.24085 215.905 2.67998L219.202 8.31045ZM216.39 18.6531C215.582 17.0774 215.381 14.9748 215.912 12.9379C216.44 10.9152 217.611 9.24167 219.202 8.31045L215.905 2.67998C212.564 4.63617 210.482 7.90397 209.599 11.2915C208.719 14.6648 208.95 18.4412 210.583 21.6283L216.39 18.6531Z" fill="#BC323B" mask="url(#path-20-inside-3_348_2441)"/>
<mask id="path-22-inside-4_348_2441" fill="white">
<path fill-rule="evenodd" clip-rule="evenodd" d="M237.422 93.0928C236.611 93.5111 235.636 93.7991 234.471 93.9354C228.128 94.6776 225.124 89.8701 224.39 83.5922C223.655 77.3143 225.467 71.9433 231.811 71.201C234.988 70.8292 237.053 71.8818 238.415 73.814L258.189 71.3719C262.959 70.7829 267.302 74.1716 267.891 78.9408L268.121 80.7984C268.71 85.5676 265.321 89.9113 260.552 90.5002L239.566 93.092C238.837 93.182 238.119 93.1791 237.422 93.0928Z"/>
</mask>
<path fill-rule="evenodd" clip-rule="evenodd" d="M237.422 93.0928C236.611 93.5111 235.636 93.7991 234.471 93.9354C228.128 94.6776 225.124 89.8701 224.39 83.5922C223.655 77.3143 225.467 71.9433 231.811 71.201C234.988 70.8292 237.053 71.8818 238.415 73.814L258.189 71.3719C262.959 70.7829 267.302 74.1716 267.891 78.9408L268.121 80.7984C268.71 85.5676 265.321 89.9113 260.552 90.5002L239.566 93.092C238.837 93.182 238.119 93.1791 237.422 93.0928Z" fill="#FCFCFC"/>
<path d="M237.422 93.0928L237.823 89.8553L236.823 89.7313L235.927 90.1932L237.422 93.0928ZM234.471 93.9354L234.092 90.6952H234.092L234.471 93.9354ZM224.39 83.5922L221.15 83.9713L224.39 83.5922ZM231.811 71.201L232.19 74.4411L231.811 71.201ZM238.415 73.814L235.748 75.6936L236.875 77.2913L238.815 77.0517L238.415 73.814ZM258.189 71.3719L258.589 74.6095H258.589L258.189 71.3719ZM267.891 78.9408L271.129 78.5409L267.891 78.9408ZM268.121 80.7984L264.883 81.1983L268.121 80.7984ZM260.552 90.5002L260.152 87.2626L260.552 90.5002ZM239.566 93.092L239.966 96.3297H239.966L239.566 93.092ZM235.927 90.1932C235.524 90.4011 234.94 90.596 234.092 90.6952L234.85 97.1755C236.331 97.0022 237.698 96.621 238.917 95.9923L235.927 90.1932ZM234.092 90.6952C231.934 90.9477 230.686 90.2944 229.796 89.2641C228.756 88.0601 227.958 86.0199 227.63 83.213L221.15 83.9713C221.556 87.4424 222.627 90.9449 224.858 93.5286C227.239 96.286 230.664 97.6653 234.85 97.1755L234.092 90.6952ZM227.63 83.213C227.301 80.4062 227.607 78.2368 228.341 76.8254C228.968 75.6175 230.032 74.6936 232.19 74.4411L231.432 67.9608C227.246 68.4506 224.232 70.5834 222.551 73.8161C220.977 76.8451 220.743 80.5003 221.15 83.9713L227.63 83.213ZM232.19 74.4411C233.342 74.3063 234.064 74.4541 234.523 74.6482C234.967 74.836 235.366 75.1512 235.748 75.6936L241.081 71.9345C240.102 70.5446 238.787 69.3674 237.064 68.6388C235.356 67.9165 233.457 67.7239 231.432 67.9608L232.19 74.4411ZM238.815 77.0517L258.589 74.6095L257.79 68.1342L238.015 70.5764L238.815 77.0517ZM258.589 74.6095C261.57 74.2414 264.285 76.3596 264.654 79.3406L271.129 78.5409C270.319 71.9836 264.347 67.3244 257.79 68.1342L258.589 74.6095ZM264.654 79.3406L264.883 81.1983L271.358 80.3986L271.129 78.5409L264.654 79.3406ZM264.883 81.1983C265.251 84.1793 263.133 86.8944 260.152 87.2626L260.952 93.7379C267.509 92.9281 272.168 86.9559 271.358 80.3986L264.883 81.1983ZM260.152 87.2626L239.166 89.8544L239.966 96.3297L260.952 93.7379L260.152 87.2626ZM239.166 89.8544C238.706 89.9112 238.256 89.909 237.823 89.8553L237.021 96.3302C237.981 96.4493 238.969 96.4528 239.966 96.3297L239.166 89.8544Z" fill="#BC323B" mask="url(#path-22-inside-4_348_2441)"/>
<path d="M246.265 74.1997C245.845 72.4006 247.192 70.673 249.039 70.6411L266.477 70.34C267.689 70.3191 268.786 71.054 269.228 72.1828L272.225 79.8407C272.427 80.3564 272.477 80.9191 272.369 81.4624L270.317 91.8001C270.054 93.1237 268.914 94.0912 267.565 94.1344L253.414 94.5869C252.032 94.6311 250.811 93.6934 250.497 92.3467L246.265 74.1997Z" fill="#9F1019"/>
<rect x="234.076" y="22.043" width="19.2737" height="4.13008" rx="2.06504" fill="#BC323B"/>
<rect x="234.076" y="13.7812" width="19.2737" height="4.13008" rx="2.06504" fill="#BC323B"/>
<path fill-rule="evenodd" clip-rule="evenodd" d="M285.818 37.2676H277.44C276.3 37.2676 275.375 38.1921 275.375 39.3326C275.375 40.4731 276.3 41.3977 277.44 41.3977H286.32C286.233 39.9831 286.064 38.6059 285.818 37.2676Z" fill="#BC323B"/>
<path fill-rule="evenodd" clip-rule="evenodd" d="M206.541 44.1437H210.793C211.933 44.1437 212.858 43.2192 212.858 42.0787C212.858 40.9382 211.933 40.0137 210.793 40.0137H206.719C206.599 41.1974 206.538 42.4085 206.538 43.6461C206.538 43.8127 206.539 43.9786 206.541 44.1437Z" fill="#BC323B"/>
<rect x="245.375" y="34.5078" width="12.1728" height="2.75338" rx="1.37669" transform="rotate(3.94079 245.375 34.5078)" fill="#BC323B"/>
<rect x="223.073" y="35.3242" width="10.5243" height="2.75338" rx="1.37669" transform="rotate(-3.36908 223.073 35.3242)" fill="#BC323B"/>
<path fill-rule="evenodd" clip-rule="evenodd" d="M207.019 49.6555H212.691C213.831 49.6555 214.756 48.7309 214.756 47.5904C214.756 46.4499 213.831 45.5254 212.691 45.5254H206.543C206.618 46.9589 206.778 48.3353 207.019 49.6555Z" fill="#BC323B"/>
<path fill-rule="evenodd" clip-rule="evenodd" d="M286.378 42.7656H277.44C276.3 42.7656 275.375 43.6902 275.375 44.8307C275.375 45.9712 276.3 46.8957 277.44 46.8957H286.24C286.338 45.8424 286.388 44.7568 286.388 43.6385C286.388 43.346 286.385 43.0551 286.378 42.7656Z" fill="#BC323B"/>
<path fill-rule="evenodd" clip-rule="evenodd" d="M241.515 8.69257V22.7242C241.515 23.8647 242.439 24.7893 243.58 24.7893C244.72 24.7893 245.645 23.8647 245.645 22.7242V8.44922C244.255 8.47234 242.877 8.55398 241.515 8.69257Z" fill="#BC323B"/>
<path d="M253.349 43.4593C253.349 45.3601 252.496 46.901 250.595 46.901C248.694 46.901 247.842 45.3601 247.842 43.4593C247.842 41.5585 248.694 40.0176 250.595 40.0176C252.496 40.0176 253.349 41.5585 253.349 43.4593Z" fill="#BC323B"/>
<path d="M231.322 43.4593C231.322 45.3601 230.47 46.901 228.569 46.901C226.668 46.901 225.815 45.3601 225.815 43.4593C225.815 41.5585 226.668 40.0176 228.569 40.0176C230.47 40.0176 231.322 41.5585 231.322 43.4593Z" fill="#BC323B"/>
<path d="M242.336 48.7951C242.336 50.1003 240.56 50.7568 238.279 50.7568C235.998 50.7568 234.076 50.1003 234.076 48.7951C234.076 47.4898 235.925 45.5254 238.206 45.5254C240.487 45.5254 242.336 47.4898 242.336 48.7951Z" fill="#BC323B"/>
<path d="M236.83 59.2964C239.125 59.2964 244.264 58.7457 246.467 56.543" stroke="#BC323B" stroke-width="3.26225" stroke-linecap="round"/>
<rect x="190.018" y="128.129" width="16.5203" height="5.50677" fill="#BC323B"/>
<rect x="82.9502" y="129.406" width="26.0701" height="5.50677" fill="#BC323B"/>
<rect x="109.622" y="150.08" width="78.6156" height="9.52917" fill="#BC323B"/>
<rect x="9.52832" y="150.08" width="71.4688" height="9.52917" fill="#BC323B"/>
<rect x="209.677" y="150.08" width="78.6156" height="9.52917" fill="#BC323B"/>
<rect x="16.6777" y="59.5566" width="35.7344" height="11.9115" rx="5.01885" fill="#BC323B"/>
<circle cx="132.388" cy="121.5" r="4.49989" fill="#BC323B"/>
<circle cx="163.886" cy="121.5" r="4.49989" fill="#BC323B"/>
<circle cx="148.136" cy="121.5" r="4.49989" fill="#BC323B"/>
<circle cx="231.383" cy="121.5" r="4.49989" fill="#BC323B"/>
<circle cx="262.885" cy="121.5" r="4.49989" fill="#BC323B"/>
<circle cx="247.135" cy="121.5" r="4.49989" fill="#BC323B"/>
</svg>
