<svg viewBox="0 0 111 62" fill="none" xmlns="http://www.w3.org/2000/svg">
<path d="M84.0563 32.3311C84.4611 28.6673 87.5572 25.8945 91.2433 25.8945H98.8029C102.023 25.8945 104.842 28.0574 105.675 31.1678L107.071 36.3796C107.354 37.4323 107.428 38.5298 107.292 39.611C106.761 43.8163 103.184 46.9698 98.9452 46.9698H89.8855C86.182 46.9698 83.1797 43.9675 83.1797 40.264L84.0563 32.3311Z" fill="#9F1019"/>
<ellipse cx="3.1911" cy="51.5126" rx="3.1911" ry="5.01458" fill="#AA2D35"/>
<path d="M45.39 22.9164C47.5494 24.1122 49.2421 25.605 50.2432 27.025C51.2719 28.4843 51.4536 29.6771 51.0385 30.4266C50.0198 32.2663 47.0343 34.0271 42.8763 31.7246C40.7924 30.5707 39.1634 28.5547 38.2014 26.5513C37.722 25.5528 37.4194 24.5799 37.3045 23.7474C37.187 22.897 37.2758 22.2738 37.4794 21.9061C37.7122 21.4858 38.0255 21.2096 38.4206 21.0444C38.8266 20.8747 39.3557 20.8074 40.0285 20.8768C41.3872 21.0169 43.1903 21.6983 45.39 22.9164Z" fill="#FCFCFC" stroke="#AA2D35" stroke-width="1.24852"/>
<path d="M61.7956 42.4531C61.5012 40.0023 61.7207 37.7561 62.2862 36.1133C62.8673 34.425 63.728 33.5796 64.5787 33.4774C66.6666 33.2266 69.8418 34.6165 70.4087 39.3356C70.6928 41.7006 70.0117 44.2014 68.9504 46.154C68.4214 47.1272 67.8098 47.9419 67.202 48.5224C66.5813 49.1154 66.0241 49.4082 65.6067 49.4583C65.1297 49.5157 64.7224 49.4232 64.3572 49.1996C63.9819 48.9698 63.6177 48.5801 63.2801 47.994C62.5984 46.8104 62.0955 44.9496 61.7956 42.4531Z" fill="#FCFCFC" stroke="#AA2D35" stroke-width="1.24852"/>
<mask id="path-5-inside-1_423_1960" fill="white">
<path fill-rule="evenodd" clip-rule="evenodd" d="M39.9614 33.385C41.482 34.7113 43.1673 35.6474 44.7694 36.0754L44.19 41.3187C44.19 45.0222 47.1923 48.0245 50.8958 48.0245H61.1215C64.574 48.0245 67.3728 45.2256 67.3728 41.7731C67.3728 41.4706 67.3508 41.1684 67.3071 40.869L67.1107 39.5256C67.3715 39.4952 67.6372 39.4486 67.9074 39.3872C67.966 39.3739 68.0242 39.3606 68.0822 39.3475C70.9247 38.7032 72.9968 38.2334 71.9852 33.7842C70.953 29.2443 68.2151 25.8151 65.2836 26.4816C64.3517 26.6935 63.5283 27.1156 62.8718 27.7387C61.9614 27.2341 60.9167 26.9492 59.8132 26.9492H52.2536C51.5627 26.9492 50.8925 27.0466 50.2569 27.229C49.8758 26.7275 49.4109 26.232 48.8564 25.7485C45.3476 22.6882 42.5895 23.435 40.3729 25.9765L40.2407 26.128C38.0903 28.5907 36.5227 30.3859 39.9614 33.385Z"/>
</mask>
<path fill-rule="evenodd" clip-rule="evenodd" d="M39.9614 33.385C41.482 34.7113 43.1673 35.6474 44.7694 36.0754L44.19 41.3187C44.19 45.0222 47.1923 48.0245 50.8958 48.0245H61.1215C64.574 48.0245 67.3728 45.2256 67.3728 41.7731C67.3728 41.4706 67.3508 41.1684 67.3071 40.869L67.1107 39.5256C67.3715 39.4952 67.6372 39.4486 67.9074 39.3872C67.966 39.3739 68.0242 39.3606 68.0822 39.3475C70.9247 38.7032 72.9968 38.2334 71.9852 33.7842C70.953 29.2443 68.2151 25.8151 65.2836 26.4816C64.3517 26.6935 63.5283 27.1156 62.8718 27.7387C61.9614 27.2341 60.9167 26.9492 59.8132 26.9492H52.2536C51.5627 26.9492 50.8925 27.0466 50.2569 27.229C49.8758 26.7275 49.4109 26.232 48.8564 25.7485C45.3476 22.6882 42.5895 23.435 40.3729 25.9765L40.2407 26.128C38.0903 28.5907 36.5227 30.3859 39.9614 33.385Z" fill="#9F1019"/>
<path d="M44.7694 36.0754L45.724 36.1809L45.8146 35.3606L45.0173 35.1476L44.7694 36.0754ZM39.9614 33.385L40.5926 32.6612L39.9614 33.385ZM44.19 41.3187L43.2354 41.2132L43.2296 41.2658V41.3187H44.19ZM67.3071 40.869L68.2574 40.7301V40.7301L67.3071 40.869ZM67.1107 39.5256L66.9994 38.5717L66.0175 38.6863L66.1604 39.6645L67.1107 39.5256ZM67.9074 39.3872L68.1203 40.3237L67.9074 39.3872ZM68.0822 39.3475L67.8699 38.4109H67.8699L68.0822 39.3475ZM71.9852 33.7842L71.0487 33.9971L71.9852 33.7842ZM65.2836 26.4816L65.0707 25.5451L65.2836 26.4816ZM62.8718 27.7387L62.4062 28.5787L63.0221 28.9201L63.5329 28.4353L62.8718 27.7387ZM50.2569 27.229L49.4922 27.8101L49.89 28.3335L50.5219 28.1522L50.2569 27.229ZM48.8564 25.7485L48.2252 26.4723L48.8564 25.7485ZM40.3729 25.9765L41.0965 26.608L41.0967 26.6077L40.3729 25.9765ZM40.2407 26.128L40.9641 26.7597L40.9642 26.7595L40.2407 26.128ZM45.0173 35.1476C43.5814 34.7639 42.0236 33.9093 40.5926 32.6612L39.3301 34.1088C40.9404 35.5133 42.7532 36.5308 44.5215 37.0033L45.0173 35.1476ZM45.1446 41.4242L45.724 36.1809L43.8148 35.97L43.2354 41.2132L45.1446 41.4242ZM50.8958 47.0641C47.7227 47.0641 45.1504 44.4918 45.1504 41.3187H43.2296C43.2296 45.5526 46.6619 48.9849 50.8958 48.9849V47.0641ZM61.1215 47.0641H50.8958V48.9849H61.1215V47.0641ZM66.4124 41.7731C66.4124 44.6952 64.0436 47.0641 61.1215 47.0641V48.9849C65.1044 48.9849 68.3332 45.7561 68.3332 41.7731H66.4124ZM66.3568 41.0079C66.3938 41.2613 66.4124 41.5171 66.4124 41.7731H68.3332C68.3332 41.4241 68.3079 41.0755 68.2574 40.7301L66.3568 41.0079ZM66.1604 39.6645L66.3568 41.0079L68.2574 40.7301L68.061 39.3867L66.1604 39.6645ZM67.6944 38.4507C67.4545 38.5052 67.2228 38.5456 66.9994 38.5717L67.2221 40.4796C67.5201 40.4448 67.8199 40.392 68.1203 40.3237L67.6944 38.4507ZM67.8699 38.4109C67.812 38.424 67.7534 38.4373 67.6944 38.4507L68.1203 40.3237C68.1785 40.3104 68.2365 40.2973 68.2945 40.2841L67.8699 38.4109ZM71.0487 33.9971C71.5317 36.1214 71.1891 36.9206 70.7966 37.3169C70.5662 37.5495 70.2236 37.7464 69.7137 37.9265C69.1987 38.1083 68.5948 38.2465 67.8699 38.4109L68.2945 40.2841C68.9909 40.1263 69.7119 39.9641 70.3533 39.7377C70.9996 39.5094 71.6449 39.19 72.1613 38.6685C73.2626 37.5566 73.4503 35.8962 72.9217 33.5713L71.0487 33.9971ZM65.4966 27.4181C66.4884 27.1926 67.5735 27.6187 68.6255 28.8148C69.6735 30.0062 70.5582 31.8396 71.0487 33.9971L72.9217 33.5713C72.38 31.1888 71.3796 29.0376 70.0678 27.5462C68.7599 26.0592 67.0104 25.1041 65.0707 25.5451L65.4966 27.4181ZM63.5329 28.4353C64.0524 27.9423 64.7162 27.5955 65.4966 27.4181L65.0707 25.5451C63.9873 25.7914 63.0043 26.2889 62.2106 27.0421L63.5329 28.4353ZM59.8132 27.9096C60.7498 27.9096 61.6348 28.1511 62.4062 28.5787L63.3374 26.8987C62.2881 26.3171 61.0836 25.9888 59.8132 25.9888V27.9096ZM52.2536 27.9096H59.8132V25.9888H52.2536V27.9096ZM50.5219 28.1522C51.0723 27.9942 51.6533 27.9096 52.2536 27.9096V25.9888C51.472 25.9888 50.7127 26.099 49.9919 26.3059L50.5219 28.1522ZM48.2252 26.4723C48.7353 26.9172 49.1544 27.3655 49.4922 27.8101L51.0216 26.648C50.5972 26.0895 50.0864 25.5469 49.4877 25.0247L48.2252 26.4723ZM41.0967 26.6077C42.1166 25.4383 43.1498 24.8108 44.2131 24.7186C45.2675 24.6272 46.5859 25.0426 48.2252 26.4723L49.4877 25.0247C47.6182 23.3941 45.8031 22.6528 44.0471 22.805C42.3 22.9565 40.8458 23.9732 39.6491 25.3452L41.0967 26.6077ZM40.9642 26.7595L41.0965 26.608L39.6494 25.3449L39.5171 25.4965L40.9642 26.7595ZM40.5926 32.6612C38.9823 31.2568 38.8169 30.3808 38.9461 29.7473C39.0239 29.3663 39.2314 28.9431 39.5914 28.4323C39.9526 27.9197 40.4179 27.3852 40.9641 26.7597L39.5172 25.4963C38.9883 26.1021 38.4513 26.7156 38.0212 27.3259C37.5899 27.938 37.2172 28.6129 37.0641 29.3634C36.7316 30.993 37.5018 32.5142 39.3301 34.1088L40.5926 32.6612Z" fill="#9F1019" mask="url(#path-5-inside-1_423_1960)"/>
<path d="M56.7558 0.640972L56.7558 0.640976C56.7561 0.64105 56.7588 0.641753 56.7649 0.645426C56.7716 0.649469 56.7838 0.658015 56.8006 0.674749C56.8361 0.709901 56.8839 0.772847 56.9367 0.876983C57.0444 1.08945 57.1364 1.39996 57.2057 1.78858C57.3432 2.56027 57.3668 3.49471 57.3474 4.2072C57.3316 4.78556 58.073 5.11684 58.4739 4.62709C58.7737 4.26077 59.3306 3.72418 59.8989 3.30801C60.1825 3.10029 60.4477 2.93837 60.668 2.84145C60.8864 2.74538 60.9751 2.7512 60.9752 2.74918C60.9753 2.74891 60.9738 2.74852 60.9708 2.74773C61.1428 2.79361 61.356 2.98316 61.4568 3.64645C61.5523 4.27465 61.5024 5.10183 61.3794 5.94944C61.3347 6.25727 61.5183 6.54419 61.8017 6.64161C67.0478 8.445 69.806 13.2135 69.806 17.8856C69.806 21.1689 68.4447 23.6446 65.8197 25.2123C65.5533 25.3713 65.4371 25.7046 65.5595 25.999C65.6251 26.157 65.6824 26.3407 65.7279 26.5529C66.0385 28.0022 65.3209 29.1293 64.4592 29.314C64.1243 29.3858 63.7725 29.3288 63.4346 29.1471C63.0824 28.9577 62.6478 29.1382 62.5299 29.5165C62.2582 30.388 61.6473 30.9015 61.0113 30.9462C60.554 30.9783 60.0882 30.7754 59.7083 30.3521C59.413 30.0229 58.8807 30.0904 58.6759 30.481C58.2946 31.2082 57.6361 31.6006 56.9863 31.5526C56.4597 31.5137 55.9773 31.1931 55.6641 30.6603C55.4326 30.2663 54.8753 30.2409 54.6072 30.6068C54.1964 31.1672 53.6826 31.42 53.2071 31.3849C52.5859 31.339 51.9517 30.7766 51.6902 29.7642C51.5578 29.2519 50.8924 29.1154 50.57 29.5373C49.9813 30.3074 49.1782 30.5801 48.5481 30.3703C47.7119 30.0919 47.1227 28.8926 47.5909 27.4863C47.6896 27.1898 47.8209 26.964 47.9667 26.793C48.249 26.4619 48.12 25.9658 47.7378 25.7985C46.4363 25.229 45.4753 24.4702 44.835 23.4931C44.1945 22.5161 43.842 21.271 43.842 19.6736C43.842 14.5911 47.3893 8.14059 53.5767 6.36162C53.8743 6.27604 54.0736 5.98401 54.0309 5.66632C53.9568 5.11545 53.9938 4.47101 54.1723 3.80196C54.4163 2.88736 54.8965 1.9915 55.441 1.37719C56.0245 0.719042 56.4973 0.572002 56.7558 0.640972Z" fill="#FCFCFC" stroke="#AA2D35" stroke-width="1.24852"/>
<ellipse cx="50.7577" cy="16.0482" rx="0.938363" ry="1.40754" fill="#AA2D35"/>
<ellipse cx="59.202" cy="16.0482" rx="0.938363" ry="1.40754" fill="#AA2D35"/>
<rect x="49.1113" y="12.6641" width="3.75902" height="0.938363" rx="0.469181" transform="rotate(15.8088 49.1113 12.6641)" fill="#AA2D35"/>
<rect x="57.3252" y="13.707" width="3.75902" height="0.938363" rx="0.469181" transform="rotate(-14.5354 57.3252 13.707)" fill="#AA2D35"/>
<path d="M48.8813 42.3805H64.9543C68.8477 42.3805 72.004 45.5367 72.004 49.4302V60.9614H41.8316V49.4301C41.8316 45.5367 44.9879 42.3805 48.8813 42.3805Z" fill="#F6F6F6" stroke="#AA2D35" stroke-width="1.4406"/>
<mask id="path-13-inside-2_423_1960" fill="white">
<path fill-rule="evenodd" clip-rule="evenodd" d="M18.2352 26.4395H8.20605V39.0907C4.88828 41.5392 2.73633 45.4764 2.73633 49.9163V61.9995H31.9121V44.2407C31.9121 39.9494 28.4333 36.4707 24.1421 36.4707H18.2352V26.4395Z"/>
</mask>
<path fill-rule="evenodd" clip-rule="evenodd" d="M18.2352 26.4395H8.20605V39.0907C4.88828 41.5392 2.73633 45.4764 2.73633 49.9163V61.9995H31.9121V44.2407C31.9121 39.9494 28.4333 36.4707 24.1421 36.4707H18.2352V26.4395Z" fill="#F6F6F6"/>
<path d="M8.20605 26.4395V24.9989H6.76546V26.4395H8.20605ZM18.2352 26.4395H19.6758V24.9989H18.2352V26.4395ZM8.20605 39.0907L9.06148 40.2498L9.64665 39.818V39.0907H8.20605ZM2.73633 61.9995H1.29573V63.4401H2.73633V61.9995ZM31.9121 61.9995V63.4401H33.3527V61.9995H31.9121ZM18.2352 36.4707H16.7946V37.9113H18.2352V36.4707ZM8.20605 27.88H18.2352V24.9989H8.20605V27.88ZM9.64665 39.0907V26.4395H6.76546V39.0907H9.64665ZM4.17692 49.9163C4.17692 45.9531 6.09586 42.4384 9.06148 40.2498L7.35063 37.9316C3.68071 40.64 1.29573 44.9997 1.29573 49.9163H4.17692ZM4.17692 61.9995V49.9163H1.29573V61.9995H4.17692ZM31.9121 60.5589H2.73633V63.4401H31.9121V60.5589ZM30.4715 44.2407V61.9995H33.3527V44.2407H30.4715ZM24.1421 37.9113C27.6377 37.9113 30.4715 40.7451 30.4715 44.2407H33.3527C33.3527 39.1538 29.2289 35.0301 24.1421 35.0301V37.9113ZM18.2352 37.9113H24.1421V35.0301H18.2352V37.9113ZM16.7946 26.4395V36.4707H19.6758V26.4395H16.7946Z" fill="#AA2D35" mask="url(#path-13-inside-2_423_1960)"/>
<path d="M86.8169 42.3805H102.89C106.783 42.3805 109.94 45.5367 109.94 49.4302V60.9614H79.7672V49.4301C79.7672 45.5367 82.9234 42.3805 86.8169 42.3805Z" fill="#F6F6F6" stroke="#AA2D35" stroke-width="1.4406"/>
<mask id="path-16-inside-3_423_1960" fill="white">
<path fill-rule="evenodd" clip-rule="evenodd" d="M75.5848 33.1993C73.5217 32.9507 72.7246 31.1717 72.7246 29.0139C72.7246 26.686 73.6523 24.7988 76.0967 24.7988C77.2196 24.7988 77.9335 25.1971 78.3772 25.8535H85.201C87.0401 25.8535 88.531 27.3444 88.531 29.1835V31.1047C88.531 33.0842 86.8145 34.6266 84.8463 34.4157L76.7536 33.5486C76.3345 33.5037 75.9404 33.3823 75.5848 33.1993Z"/>
</mask>
<path fill-rule="evenodd" clip-rule="evenodd" d="M75.5848 33.1993C73.5217 32.9507 72.7246 31.1717 72.7246 29.0139C72.7246 26.686 73.6523 24.7988 76.0967 24.7988C77.2196 24.7988 77.9335 25.1971 78.3772 25.8535H85.201C87.0401 25.8535 88.531 27.3444 88.531 29.1835V31.1047C88.531 33.0842 86.8145 34.6266 84.8463 34.4157L76.7536 33.5486C76.3345 33.5037 75.9404 33.3823 75.5848 33.1993Z" fill="#FCFCFC"/>
<path d="M75.5848 33.1993L76.1562 32.0892L75.9568 31.9865L75.7341 31.9597L75.5848 33.1993ZM78.3772 25.8535L77.3428 26.5527L77.7141 27.102H78.3772V25.8535ZM84.8463 34.4157L84.9793 33.1743H84.9793L84.8463 34.4157ZM76.7536 33.5486L76.8866 32.3072H76.8866L76.7536 33.5486ZM75.7341 31.9597C75.0863 31.8817 74.7059 31.5947 74.4454 31.1699C74.1522 30.6917 73.9731 29.9629 73.9731 29.0139H71.4761C71.4761 30.2226 71.6956 31.4623 72.3167 32.4752C72.9705 33.5415 74.0202 34.2683 75.4355 34.4388L75.7341 31.9597ZM73.9731 29.0139C73.9731 27.9852 74.183 27.2232 74.5146 26.7525C74.7984 26.3498 75.2449 26.0473 76.0967 26.0473V23.5503C74.5041 23.5503 73.2646 24.1914 72.4734 25.3142C71.7301 26.3691 71.4761 27.7146 71.4761 29.0139H73.9731ZM76.0967 26.0473C76.876 26.0473 77.1685 26.2948 77.3428 26.5527L79.4116 25.1543C78.6986 24.0995 77.5632 23.5503 76.0967 23.5503V26.0473ZM78.3772 27.102H85.201V24.605H78.3772V27.102ZM85.201 27.102C86.3506 27.102 87.2825 28.0339 87.2825 29.1835H89.7795C89.7795 26.6549 87.7297 24.605 85.201 24.605V27.102ZM87.2825 29.1835V31.1047H89.7795V29.1835H87.2825ZM87.2825 31.1047C87.2825 32.342 86.2096 33.3061 84.9793 33.1743L84.7133 35.6571C87.4194 35.9471 89.7795 33.8263 89.7795 31.1047H87.2825ZM84.9793 33.1743L76.8866 32.3072L76.6206 34.7901L84.7133 35.6571L84.9793 33.1743ZM76.8866 32.3072C76.623 32.279 76.3774 32.203 76.1562 32.0892L75.0133 34.3093C75.5035 34.5617 76.0459 34.7285 76.6206 34.7901L76.8866 32.3072Z" fill="#AA2D35" mask="url(#path-16-inside-3_423_1960)"/>
<path fill-rule="evenodd" clip-rule="evenodd" d="M56.3165 21.7543C56.5614 21.482 56.7181 21.132 56.7579 20.6872C56.9173 18.9063 55.8471 18.8112 53.8361 18.6326C53.7805 18.6277 53.7242 18.6227 53.6672 18.6176C51.5474 18.4279 49.2319 20.4645 49.0681 22.2946C48.9735 23.3521 49.3696 23.2108 50.1298 22.9396C50.6853 22.7414 51.4352 22.4738 52.3302 22.5539C53.1202 22.6246 53.9135 22.6375 54.6065 22.5312C54.5497 22.551 54.4916 22.5691 54.432 22.5852C54.2951 22.6222 54.1574 22.6588 54.0208 22.6951C52.9497 22.9797 51.9521 23.2448 52.0319 23.5398C52.1219 23.8724 53.176 23.8767 54.3864 23.5493C55.3554 23.2872 56.103 22.306 56.3165 21.7543Z" fill="#AA2D35"/>
<path d="M80.1006 26.1548C80.1006 25.4543 80.7414 24.9289 81.4283 25.0663L86.9669 26.174C87.5475 26.2902 87.9348 26.8416 87.847 27.4272L86.6045 35.7105C86.5073 36.3583 85.8731 36.7815 85.2375 36.6227L80.9414 35.5486C80.4472 35.4251 80.1006 34.9811 80.1006 34.4718V26.1548Z" fill="#9F1019"/>
<mask id="path-20-inside-4_423_1960" fill="white">
<path fill-rule="evenodd" clip-rule="evenodd" d="M81.7044 7.70778C81.8332 7.95918 81.977 8.16605 82.1342 8.33299C80.2113 10.5295 79.0449 13.3657 79.0449 16.7039C79.0449 24.9855 86.2234 28.5751 94.3245 28.5751C102.426 28.5751 109.604 24.9855 109.604 16.7039C109.604 13.0671 108.22 10.0261 105.981 7.75898C106.034 7.65372 106.082 7.54003 106.127 7.4175C106.83 5.48008 105.883 2.90019 103.876 2.06776C102.065 1.3162 100.01 2.24603 99.1106 3.85965C97.5889 3.44596 95.9759 3.23021 94.3245 3.23021C92.3707 3.23021 90.4706 3.53222 88.7118 4.10674C88.6666 3.97614 88.6094 3.84263 88.5394 3.70602C87.6055 1.88325 85.1485 0.997667 83.261 2.10272C81.3736 3.20778 80.7704 5.88501 81.7044 7.70778Z"/>
</mask>
<path fill-rule="evenodd" clip-rule="evenodd" d="M81.7044 7.70778C81.8332 7.95918 81.977 8.16605 82.1342 8.33299C80.2113 10.5295 79.0449 13.3657 79.0449 16.7039C79.0449 24.9855 86.2234 28.5751 94.3245 28.5751C102.426 28.5751 109.604 24.9855 109.604 16.7039C109.604 13.0671 108.22 10.0261 105.981 7.75898C106.034 7.65372 106.082 7.54003 106.127 7.4175C106.83 5.48008 105.883 2.90019 103.876 2.06776C102.065 1.3162 100.01 2.24603 99.1106 3.85965C97.5889 3.44596 95.9759 3.23021 94.3245 3.23021C92.3707 3.23021 90.4706 3.53222 88.7118 4.10674C88.6666 3.97614 88.6094 3.84263 88.5394 3.70602C87.6055 1.88325 85.1485 0.997667 83.261 2.10272C81.3736 3.20778 80.7704 5.88501 81.7044 7.70778Z" fill="#FCFCFC"/>
<path d="M82.1342 8.33299L83.0736 9.15538L83.8204 8.30237L83.0431 7.47704L82.1342 8.33299ZM81.7044 7.70778L80.5932 8.2771L81.7044 7.70778ZM105.981 7.75898L104.865 7.19894L104.463 7.99918L105.093 8.63626L105.981 7.75898ZM106.127 7.4175L104.953 6.99137L104.953 6.99137L106.127 7.4175ZM103.876 2.06776L103.398 3.22095L103.876 2.06776ZM99.1106 3.85965L98.7831 5.06444L99.7254 5.32061L100.201 4.46774L99.1106 3.85965ZM88.7118 4.10674L87.532 4.51519L87.9334 5.67448L89.0995 5.29353L88.7118 4.10674ZM88.5394 3.70602L87.4282 4.27534L87.4282 4.27535L88.5394 3.70602ZM83.261 2.10272L83.8918 3.18016L83.261 2.10272ZM83.0431 7.47704C82.9785 7.4084 82.8994 7.3021 82.8155 7.13846L80.5932 8.2771C80.767 8.61626 80.9755 8.9237 81.2253 9.18894L83.0431 7.47704ZM80.2934 16.7039C80.2934 13.6742 81.346 11.1288 83.0736 9.15538L81.1948 7.51059C79.0765 9.93023 77.7964 13.0572 77.7964 16.7039H80.2934ZM94.3245 27.3265C90.433 27.3265 86.888 26.4606 84.3548 24.7167C81.8774 23.0112 80.2934 20.4236 80.2934 16.7039H77.7964C77.7964 21.2658 79.8017 24.6138 82.9388 26.7735C86.0201 28.8947 90.1148 29.8236 94.3245 29.8236V27.3265ZM108.356 16.7039C108.356 20.4236 106.772 23.0112 104.294 24.7167C101.761 26.4606 98.216 27.3265 94.3245 27.3265V29.8236C98.5342 29.8236 102.629 28.8947 105.71 26.7735C108.847 24.6138 110.853 21.2658 110.853 16.7039H108.356ZM105.093 8.63626C107.109 10.6777 108.356 13.4066 108.356 16.7039H110.853C110.853 12.7277 109.331 9.37454 106.869 6.8817L105.093 8.63626ZM104.953 6.99137C104.924 7.07173 104.894 7.1404 104.865 7.19894L107.097 8.31902C107.173 8.16704 107.241 8.00834 107.301 7.84364L104.953 6.99137ZM103.398 3.22095C104.037 3.48625 104.562 4.05544 104.86 4.79529C105.16 5.53969 105.187 6.34917 104.953 6.99137L107.301 7.84364C107.771 6.54841 107.675 5.09923 107.176 3.86123C106.675 2.61867 105.722 1.4817 104.355 0.914578L103.398 3.22095ZM100.201 4.46774C100.843 3.31735 102.263 2.75005 103.398 3.22095L104.355 0.914578C101.867 -0.117647 99.1784 1.17471 98.0202 3.25155L100.201 4.46774ZM94.3245 4.47873C95.8676 4.47873 97.3704 4.68039 98.7831 5.06444L99.4382 2.65486C97.8074 2.21153 96.0841 1.9817 94.3245 1.9817V4.47873ZM89.0995 5.29353C90.7295 4.76108 92.4985 4.47873 94.3245 4.47873V1.9817C92.2429 1.9817 90.2116 2.30335 88.3242 2.91994L89.0995 5.29353ZM87.4282 4.27535C87.4737 4.364 87.5073 4.44385 87.532 4.51519L89.8917 3.69829C89.8259 3.50844 89.7451 3.32125 89.6506 3.1367L87.4282 4.27535ZM83.8918 3.18016C85.1037 2.47061 86.7906 3.03075 87.4282 4.27534L89.6506 3.1367C88.4204 0.735749 85.1932 -0.47528 82.6302 1.02529L83.8918 3.18016ZM82.8155 7.13846C82.5065 6.53541 82.4295 5.7307 82.6328 4.95115C82.8347 4.17705 83.2831 3.53655 83.8918 3.18016L82.6302 1.02529C81.3515 1.77395 80.5546 3.02459 80.2166 4.32107C79.8799 5.61209 79.9683 7.05738 80.5932 8.2771L82.8155 7.13846Z" fill="#AA2D35" mask="url(#path-20-inside-4_423_1960)"/>
<mask id="path-22-inside-5_423_1960" fill="white">
<path fill-rule="evenodd" clip-rule="evenodd" d="M90.8638 35.6259C90.5535 35.7857 90.1806 35.8958 89.7353 35.9479C87.3076 36.232 86.1582 34.3921 85.8771 31.9894C85.5959 29.5867 86.2895 27.5312 88.7172 27.2471C89.9335 27.1048 90.7239 27.5079 91.2451 28.2478L98.813 27.3131C100.638 27.0877 102.301 28.3846 102.526 30.2099L102.614 30.9208C102.839 32.7461 101.542 34.4085 99.7171 34.6339L91.6854 35.6258C91.4062 35.6603 91.1308 35.6591 90.8638 35.6259Z"/>
</mask>
<path fill-rule="evenodd" clip-rule="evenodd" d="M90.8638 35.6259C90.5535 35.7857 90.1806 35.8958 89.7353 35.9479C87.3076 36.232 86.1582 34.3921 85.8771 31.9894C85.5959 29.5867 86.2895 27.5312 88.7172 27.2471C89.9335 27.1048 90.7239 27.5079 91.2451 28.2478L98.813 27.3131C100.638 27.0877 102.301 28.3846 102.526 30.2099L102.614 30.9208C102.839 32.7461 101.542 34.4085 99.7171 34.6339L91.6854 35.6258C91.4062 35.6603 91.1308 35.6591 90.8638 35.6259Z" fill="#FCFCFC"/>
<path d="M90.8638 35.6259L91.0179 34.3869L90.635 34.3393L90.2921 34.516L90.8638 35.6259ZM89.7353 35.9479L89.8804 37.188H89.8804L89.7353 35.9479ZM85.8771 31.9894L84.637 32.1345L85.8771 31.9894ZM88.7172 27.2471L88.8623 28.4871L88.7172 27.2471ZM91.2451 28.2478L90.2245 28.9668L90.6555 29.5786L91.3982 29.4869L91.2451 28.2478ZM98.813 27.3131L98.966 28.5522L98.813 27.3131ZM102.526 30.2099L101.287 30.3629V30.3629L102.526 30.2099ZM102.614 30.9208L103.853 30.7678V30.7678L102.614 30.9208ZM99.7171 34.6339L99.5641 33.3948L99.7171 34.6339ZM91.6854 35.6258L91.5324 34.3867L91.5324 34.3867L91.6854 35.6258ZM90.2921 34.516C90.1378 34.5954 89.9145 34.6699 89.5902 34.7078L89.8804 37.188C90.4468 37.1217 90.9691 36.976 91.4355 36.7359L90.2921 34.516ZM89.5902 34.7078C88.7644 34.8045 88.2867 34.5544 87.9461 34.1601C87.5482 33.6994 87.2428 32.9185 87.1171 31.8443L84.637 32.1345C84.7925 33.4629 85.2023 34.8034 86.0563 35.7922C86.9677 36.8475 88.2785 37.3754 89.8804 37.188L89.5902 34.7078ZM87.1171 31.8443C86.9914 30.7701 87.1083 29.9398 87.3891 29.3996C87.6294 28.9374 88.0365 28.5838 88.8623 28.4871L88.5721 26.007C86.9702 26.1945 85.8167 27.0107 85.1735 28.2479C84.5709 29.4072 84.4816 30.8061 84.637 32.1345L87.1171 31.8443ZM88.8623 28.4871C89.3034 28.4355 89.5797 28.4921 89.7554 28.5664C89.9254 28.6384 90.0781 28.7591 90.2245 28.9668L92.2658 27.5287C91.8909 26.9966 91.3878 26.5458 90.7283 26.2667C90.0744 25.9901 89.3474 25.9163 88.5721 26.007L88.8623 28.4871ZM91.3982 29.4869L98.966 28.5522L98.66 26.074L91.0921 27.0087L91.3982 29.4869ZM98.966 28.5522C100.107 28.4113 101.146 29.222 101.287 30.3629L103.765 30.0568C103.455 27.5473 101.17 25.7641 98.66 26.074L98.966 28.5522ZM101.287 30.3629L101.375 31.0739L103.853 30.7678L103.765 30.0568L101.287 30.3629ZM101.375 31.0739C101.516 32.2148 100.705 33.2539 99.5641 33.3948L99.8701 35.873C102.38 35.563 104.163 33.2774 103.853 30.7678L101.375 31.0739ZM99.5641 33.3948L91.5324 34.3867L91.8384 36.8649L99.8701 35.873L99.5641 33.3948ZM91.5324 34.3867C91.356 34.4085 91.1837 34.4076 91.0179 34.3869L90.7097 36.8649C91.0779 36.9107 91.4564 36.9121 91.8385 36.8649L91.5324 34.3867Z" fill="#AA2D35" mask="url(#path-22-inside-5_423_1960)"/>
<path d="M94.2496 28.3968C94.089 27.7083 94.6045 27.0471 95.3114 27.0349L101.985 26.9196C102.449 26.9116 102.869 27.1929 103.038 27.6249L104.185 30.5557C104.262 30.7531 104.281 30.9684 104.24 31.1763L103.455 35.1328C103.354 35.6393 102.918 36.0096 102.402 36.0261L96.9857 36.1993C96.4567 36.2162 95.9894 35.8573 95.8692 35.342L94.2496 28.3968Z" fill="#9F1019"/>
<rect x="89.585" y="8.43555" width="7.37635" height="1.58065" rx="0.790323" fill="#AA2D35"/>
<rect x="89.585" y="5.27344" width="7.37635" height="1.58065" rx="0.790323" fill="#AA2D35"/>
<path fill-rule="evenodd" clip-rule="evenodd" d="M109.387 14.2617H106.181C105.744 14.2617 105.391 14.6156 105.391 15.052C105.391 15.4885 105.744 15.8424 106.181 15.8424H109.579C109.546 15.301 109.481 14.7739 109.387 14.2617Z" fill="#AA2D35"/>
<path fill-rule="evenodd" clip-rule="evenodd" d="M79.0462 16.8951H80.6739C81.1104 16.8951 81.4642 16.5413 81.4642 16.1048C81.4642 15.6683 81.1104 15.3145 80.6739 15.3145H79.1142C79.0684 15.7675 79.0449 16.231 79.0449 16.7046C79.0449 16.7683 79.0453 16.8319 79.0462 16.8951Z" fill="#AA2D35"/>
<rect x="93.9092" y="13.207" width="4.65871" height="1.05376" rx="0.526882" transform="rotate(3.94079 93.9092 13.207)" fill="#AA2D35"/>
<rect x="85.374" y="13.5195" width="4.02783" height="1.05376" rx="0.526882" transform="rotate(-3.36908 85.374 13.5195)" fill="#AA2D35"/>
<path fill-rule="evenodd" clip-rule="evenodd" d="M79.2302 19.0045H81.4005C81.837 19.0045 82.1909 18.6506 82.1909 18.2142C82.1909 17.7777 81.837 17.4238 81.4005 17.4238H79.0479C79.0764 17.9725 79.1379 18.4992 79.2302 19.0045Z" fill="#AA2D35"/>
<path fill-rule="evenodd" clip-rule="evenodd" d="M109.601 16.3672H106.181C105.744 16.3672 105.391 16.721 105.391 17.1575C105.391 17.594 105.744 17.9478 106.181 17.9478H109.548C109.586 17.5445 109.605 17.1289 109.605 16.7006C109.605 16.5889 109.604 16.4778 109.601 16.3672Z" fill="#AA2D35"/>
<path fill-rule="evenodd" clip-rule="evenodd" d="M92.4307 3.32949V8.6978C92.4307 9.13428 92.7845 9.48812 93.221 9.48812C93.6575 9.48812 94.0113 9.13428 94.0113 8.6978V3.23633C93.4795 3.24519 92.952 3.27644 92.4307 3.32949Z" fill="#AA2D35"/>
<path d="M96.961 16.6317C96.961 17.3591 96.6348 17.9489 95.9073 17.9489C95.1798 17.9489 94.8535 17.3591 94.8535 16.6317C94.8535 15.9042 95.1798 15.3145 95.9073 15.3145C96.6348 15.3145 96.961 15.9042 96.961 16.6317Z" fill="#AA2D35"/>
<path d="M88.5304 16.6317C88.5304 17.3591 88.2041 17.9489 87.4766 17.9489C86.7491 17.9489 86.4229 17.3591 86.4229 16.6317C86.4229 15.9042 86.7491 15.3145 87.4766 15.3145C88.2041 15.3145 88.5304 15.9042 88.5304 16.6317Z" fill="#AA2D35"/>
<path d="M92.7463 18.6752C92.7463 19.1747 92.0664 19.426 91.1934 19.426C90.3204 19.426 89.585 19.1747 89.585 18.6752C89.585 18.1756 90.2926 17.4238 91.1656 17.4238C92.0386 17.4238 92.7463 18.1756 92.7463 18.6752Z" fill="#AA2D35"/>
<path d="M90.6387 22.6944C91.5168 22.6944 93.4838 22.4836 94.3268 21.6406" stroke="#AA2D35" stroke-width="1.24852" stroke-linecap="round"/>
<rect x="72.7227" y="49.0371" width="6.32258" height="2.10753" fill="#AA2D35"/>
<rect x="31.7461" y="49.5254" width="9.97746" height="2.10753" fill="#AA2D35"/>
<rect x="41.9541" y="57.4375" width="30.0875" height="3.64697" fill="#AA2D35"/>
<rect x="3.64648" y="57.4375" width="27.3522" height="3.64697" fill="#AA2D35"/>
<rect x="80.2471" y="57.4375" width="30.0875" height="3.64697" fill="#AA2D35"/>
<rect x="6.38281" y="22.793" width="13.6761" height="4.55871" rx="1.92079" fill="#AA2D35"/>
<circle cx="51" cy="46.6504" r="1" fill="#AA2D35"/>
<circle cx="89" cy="46.6504" r="1" fill="#AA2D35"/>
<circle cx="63" cy="46.6504" r="1" fill="#AA2D35"/>
<circle cx="101" cy="46.6504" r="1" fill="#AA2D35"/>
</svg>
