<svg viewBox="0 0 112 62" fill="none" xmlns="http://www.w3.org/2000/svg">
<path d="M27.4319 32.3702C27.022 28.6835 23.9058 25.8945 20.1964 25.8945V25.8945H12.5903V25.8945C9.34931 25.8945 6.51133 28.0688 5.66773 31.1981L4.27315 36.3712C3.9879 37.4293 3.91221 38.533 4.05035 39.6202V39.6202C4.58413 43.8211 8.15826 46.9698 12.3929 46.9698H21.6038C25.3073 46.9698 28.3096 43.9675 28.3096 40.264V40.264L27.4319 32.3702Z" fill="#9F1019"/>
<ellipse rx="3.21072" ry="5.01458" transform="matrix(-1 0 0 1 108.789 51.5126)" fill="#AA2D35"/>
<path d="M66.3309 22.9156C64.1576 24.1117 62.4539 25.6049 61.4463 27.0256C60.4106 28.4859 60.2282 29.679 60.6455 30.428C61.6698 32.2665 64.6743 34.0296 68.8609 31.7254C70.9587 30.5709 72.5983 28.554 73.5663 26.5503C74.0488 25.5515 74.3533 24.5784 74.469 23.7458C74.5872 22.8952 74.4978 22.2721 74.2931 21.9047C74.0591 21.4846 73.744 21.2085 73.3463 21.0432C72.9374 20.8733 72.4046 20.806 71.7271 20.8754C70.3592 21.0156 68.5443 21.6974 66.3309 22.9156Z" fill="#FCFCFC" stroke="#AA2D35" stroke-width="1.24852"/>
<path d="M49.828 42.4535C50.1242 40.0033 49.9033 37.7575 49.3345 36.115C48.7503 34.4283 47.8841 33.58 47.0241 33.4773C45.9572 33.3499 44.6369 33.6439 43.5131 34.5436C42.4 35.4347 41.4425 36.9517 41.1545 39.3351C40.8687 41.6991 41.5536 44.1995 42.6215 46.1521C43.1537 47.1253 43.7693 47.9402 44.381 48.521C45.0056 49.114 45.5674 49.408 45.9897 49.4584C46.4714 49.5159 46.8826 49.423 47.2508 49.199C47.6289 48.9689 47.9953 48.5791 48.3347 47.9933C49.0204 46.8101 49.5263 44.9498 49.828 42.4535Z" fill="#FCFCFC" stroke="#AA2D35" stroke-width="1.24852"/>
<mask id="path-5-inside-1_423_1960" fill="white">
<path fill-rule="evenodd" clip-rule="evenodd" d="M71.7929 33.385C70.2629 34.7113 68.5672 35.6474 66.9553 36.0754L67.5382 41.3187C67.5382 45.0222 64.536 48.0245 60.8325 48.0245H50.4616C47.0106 48.0245 44.2129 45.2268 44.2129 41.7757C44.2129 41.4714 44.2351 41.1676 44.2794 40.8665L44.4766 39.5256C44.2143 39.4952 43.9469 39.4486 43.675 39.3872C43.6161 39.3739 43.5574 39.3606 43.4991 39.3475C40.6392 38.7032 38.5543 38.2334 39.5721 33.7842C40.6107 29.2443 43.3654 25.8151 46.3149 26.4816C47.2538 26.6938 48.0833 27.1167 48.7443 27.7413C49.6598 27.235 50.7099 26.9492 51.819 26.9492H59.4251C60.1199 26.9492 60.7938 27.047 61.4331 27.2303C61.8167 26.7283 62.2848 26.2324 62.8431 25.7485C66.3735 22.6882 69.1486 23.435 71.3788 25.9765L71.5119 26.128C73.6754 28.5907 75.2527 30.3859 71.7929 33.385Z"/>
</mask>
<path fill-rule="evenodd" clip-rule="evenodd" d="M71.7929 33.385C70.2629 34.7113 68.5672 35.6474 66.9553 36.0754L67.5382 41.3187C67.5382 45.0222 64.536 48.0245 60.8325 48.0245H50.4616C47.0106 48.0245 44.2129 45.2268 44.2129 41.7757C44.2129 41.4714 44.2351 41.1676 44.2794 40.8665L44.4766 39.5256C44.2143 39.4952 43.9469 39.4486 43.675 39.3872C43.6161 39.3739 43.5574 39.3606 43.4991 39.3475C40.6392 38.7032 38.5543 38.2334 39.5721 33.7842C40.6107 29.2443 43.3654 25.8151 46.3149 26.4816C47.2538 26.6938 48.0833 27.1167 48.7443 27.7413C49.6598 27.235 50.7099 26.9492 51.819 26.9492H59.4251C60.1199 26.9492 60.7938 27.047 61.4331 27.2303C61.8167 26.7283 62.2848 26.2324 62.8431 25.7485C66.3735 22.6882 69.1486 23.435 71.3788 25.9765L71.5119 26.128C73.6754 28.5907 75.2527 30.3859 71.7929 33.385Z" fill="#9F1019"/>
<path d="M66.9553 36.0754L66.0008 36.1816L65.9094 35.3595L66.7088 35.1472L66.9553 36.0754ZM71.7929 33.385L72.4219 34.1107L72.4219 34.1107L71.7929 33.385ZM67.5382 41.3187L68.4928 41.2126L68.4986 41.2655V41.3187H67.5382ZM44.2794 40.8665L43.3292 40.7268L43.3292 40.7268L44.2794 40.8665ZM44.4766 39.5256L44.5873 38.5716L45.5708 38.6858L45.4268 39.6654L44.4766 39.5256ZM43.675 39.3872L43.4634 40.324L43.4634 40.324L43.675 39.3872ZM43.4991 39.3475L43.7102 38.4106L43.7102 38.4106L43.4991 39.3475ZM39.5721 33.7842L40.5083 33.9984L40.5083 33.9984L39.5721 33.7842ZM46.3149 26.4816L46.1032 27.4184L46.1032 27.4184L46.3149 26.4816ZM48.7443 27.7413L49.2091 28.5817L48.5949 28.9213L48.0848 28.4394L48.7443 27.7413ZM61.4331 27.2303L62.1962 27.8135L61.7983 28.3341L61.1684 28.1535L61.4331 27.2303ZM62.8431 25.7485L63.4722 26.4742L63.4722 26.4742L62.8431 25.7485ZM71.3788 25.9765L70.6572 26.6102L70.6569 26.6099L71.3788 25.9765ZM71.5119 26.128L70.7904 26.7619L70.7902 26.7617L71.5119 26.128ZM66.7088 35.1472C68.1553 34.7631 69.7237 33.9077 71.1638 32.6593L72.4219 34.1107C70.802 35.5149 68.9791 36.5317 67.2018 37.0037L66.7088 35.1472ZM66.5837 41.4248L66.0008 36.1816L67.9098 35.9693L68.4928 41.2126L66.5837 41.4248ZM60.8325 47.0641C64.0056 47.0641 66.5778 44.4918 66.5778 41.3187H68.4986C68.4986 45.5526 65.0664 48.9849 60.8325 48.9849V47.0641ZM50.4616 47.0641H60.8325V48.9849H50.4616V47.0641ZM45.1733 41.7757C45.1733 44.6964 47.541 47.0641 50.4616 47.0641V48.9849C46.4801 48.9849 43.2525 45.7572 43.2525 41.7757H45.1733ZM45.2296 41.0063C45.1921 41.261 45.1733 41.5182 45.1733 41.7757H43.2525C43.2525 41.4247 43.2781 41.0741 43.3292 40.7268L45.2296 41.0063ZM45.4268 39.6654L45.2296 41.0063L43.3292 40.7268L43.5264 39.3859L45.4268 39.6654ZM43.8867 38.4504C44.1285 38.505 44.3621 38.5455 44.5873 38.5716L44.3659 40.4796C44.0665 40.4449 43.7652 40.3922 43.4634 40.324L43.8867 38.4504ZM43.7102 38.4106C43.7685 38.4237 43.8274 38.437 43.8867 38.4504L43.4634 40.324C43.4048 40.3107 43.3464 40.2976 43.288 40.2844L43.7102 38.4106ZM40.5083 33.9984C40.0227 36.1214 40.3671 36.9187 40.7618 37.3148C40.9942 37.548 41.3399 37.7455 41.8539 37.9259C42.3727 38.108 42.981 38.2463 43.7102 38.4106L43.288 40.2844C42.5873 40.1265 41.8625 39.9645 41.2178 39.7383C40.5684 39.5103 39.9202 39.1914 39.4012 38.6706C38.2929 37.5584 38.1038 35.8962 38.6359 33.57L40.5083 33.9984ZM46.1032 27.4184C45.0992 27.1915 44.0042 27.6213 42.9461 28.8169C41.8916 30.0086 41.0017 31.8417 40.5083 33.9984L38.6359 33.57C39.1811 31.1868 40.1879 29.0353 41.5077 27.544C42.824 26.0567 44.5811 25.1052 46.5266 25.5448L46.1032 27.4184ZM48.0848 28.4394C47.5611 27.9447 46.8914 27.5965 46.1032 27.4184L46.5266 25.5448C47.6163 25.791 48.6054 26.2888 49.4039 27.0432L48.0848 28.4394ZM51.819 27.9096C50.8765 27.9096 49.9858 28.1522 49.2091 28.5817L48.2795 26.9008C49.3338 26.3178 50.5434 25.9888 51.819 25.9888V27.9096ZM59.4251 27.9096H51.819V25.9888H59.4251V27.9096ZM61.1684 28.1535C60.6142 27.9946 60.0293 27.9096 59.4251 27.9096V25.9888C60.2104 25.9888 60.9734 26.0994 61.6977 26.3071L61.1684 28.1535ZM63.4722 26.4742C62.9583 26.9196 62.5363 27.3684 62.1962 27.8135L60.67 26.6471C61.0972 26.0882 61.6113 25.5452 62.2141 25.0228L63.4722 26.4742ZM70.6569 26.6099C69.6309 25.4408 68.5899 24.8112 67.516 24.7187C66.4506 24.6269 65.1217 25.0443 63.4722 26.4742L62.2141 25.0228C64.0949 23.3924 65.9187 22.6531 67.681 22.805C69.4348 22.9561 70.8964 23.9707 72.1007 25.343L70.6569 26.6099ZM70.7902 26.7617L70.6572 26.6102L72.1004 25.3427L72.2335 25.4943L70.7902 26.7617ZM71.1638 32.6593C72.7855 31.2536 72.9497 30.3786 72.8203 29.7485C72.7423 29.3683 72.5338 28.9455 72.1716 28.4345C71.8081 27.9219 71.3399 27.3874 70.7904 26.7619L72.2334 25.4941C72.7656 26.0999 73.3058 26.7133 73.7385 27.3237C74.1724 27.9356 74.5477 28.6109 74.7019 29.3622C75.0371 30.9952 74.2601 32.5173 72.4219 34.1107L71.1638 32.6593Z" fill="#9F1019" mask="url(#path-5-inside-1_423_1960)"/>
<path d="M54.8934 0.641216C54.8926 0.641435 54.8894 0.642313 54.8827 0.646299C54.8757 0.650547 54.8632 0.659272 54.8462 0.676098C54.8103 0.711402 54.7622 0.774386 54.7092 0.878382C54.601 1.09062 54.5084 1.40087 54.4388 1.78932C54.3004 2.56069 54.2767 3.49488 54.2963 4.20724C54.3122 4.78443 53.5729 5.11679 53.171 4.62869C52.8693 4.26234 52.3089 3.72557 51.7368 3.30917C51.4513 3.10137 51.1841 2.9392 50.9619 2.84204C50.7688 2.75759 50.6753 2.75123 50.6538 2.74977C50.6476 2.74935 50.6474 2.74933 50.6525 2.74798C50.4764 2.79467 50.2626 2.98572 50.1615 3.64701C50.0656 4.27465 50.1157 5.10138 50.2395 5.94888C50.2845 6.25739 50.1002 6.54491 49.8161 6.64198C44.5348 8.44635 41.761 13.2159 41.761 17.8856C41.761 21.1671 43.1298 23.6429 45.7723 25.2114C46.04 25.3703 46.1569 25.705 46.0335 26.0003C45.9675 26.1582 45.9099 26.3417 45.8642 26.5536C45.5524 27.9994 46.2716 29.1282 47.143 29.3139C47.482 29.3861 47.8378 29.3286 48.1788 29.1463C48.5305 28.9583 48.9635 29.1384 49.0817 29.5154C49.3545 30.3852 49.9692 30.9012 50.6131 30.9462C51.0763 30.9785 51.5465 30.7741 51.9288 30.3506C52.2242 30.0234 52.7542 30.0907 52.9592 30.4795C53.3424 31.2059 54.006 31.6009 54.664 31.5526C55.1969 31.5135 55.6831 31.1912 55.9979 30.6587C56.2297 30.2667 56.7846 30.2413 57.053 30.6053C57.466 31.1655 57.9844 31.4202 58.4664 31.3848C59.0958 31.3386 59.7335 30.7735 59.9961 29.7632C60.1288 29.2524 60.792 29.1157 61.1149 29.5357C61.707 30.3057 62.5175 30.5812 63.1558 30.37C64.0005 30.0904 64.5907 28.8907 64.1206 27.4874C64.0214 27.1913 63.8894 26.9655 63.7426 26.7944C63.4583 26.463 63.5879 25.9649 63.9716 25.798C65.282 25.2281 66.2493 24.4687 66.8937 23.4917C67.5379 22.5148 67.8923 21.2703 67.8923 19.6736C67.8923 14.5937 64.3247 8.1418 58.096 6.36189C57.7978 6.27666 57.5978 5.9841 57.6409 5.6658C57.7153 5.11547 57.6782 4.47155 57.4987 3.80288C57.2533 2.88876 56.7703 1.99304 56.2223 1.37861C55.636 0.721269 55.1581 0.571041 54.8934 0.641216Z" fill="#FCFCFC" stroke="#AA2D35" stroke-width="1.24852"/>
<ellipse rx="0.944132" ry="1.40754" transform="matrix(-1 0 0 1 60.9299 16.0482)" fill="#AA2D35"/>
<ellipse rx="0.944132" ry="1.40754" transform="matrix(-1 0 0 1 52.4338 16.0482)" fill="#AA2D35"/>
<rect width="3.78042" height="0.938792" rx="0.469396" transform="matrix(-0.962612 0.270885 0.273977 0.961736 62.5869 12.6641)" fill="#AA2D35"/>
<rect width="3.78068" height="0.938727" rx="0.469364" transform="matrix(-0.968364 -0.249541 -0.252424 0.967617 54.3223 13.707)" fill="#AA2D35"/>
<path d="M62.8657 42.3805H46.5984C42.705 42.3805 39.5487 45.5367 39.5487 49.4302V60.9614H69.9154V49.4301C69.9154 45.5367 66.7592 42.3805 62.8657 42.3805Z" fill="#F6F6F6" stroke="#AA2D35" stroke-width="1.4406"/>
<mask id="path-13-inside-2_423_1960" fill="white">
<path fill-rule="evenodd" clip-rule="evenodd" d="M93.6527 26.4395H103.743V39.0658C107.08 41.5124 109.247 45.4613 109.247 49.9163V61.9995H79.892V44.2407C79.892 39.9494 83.3707 36.4707 87.6619 36.4707H93.6527V26.4395Z"/>
</mask>
<path fill-rule="evenodd" clip-rule="evenodd" d="M93.6527 26.4395H103.743V39.0658C107.08 41.5124 109.247 45.4613 109.247 49.9163V61.9995H79.892V44.2407C79.892 39.9494 83.3707 36.4707 87.6619 36.4707H93.6527V26.4395Z" fill="#F6F6F6"/>
<path d="M103.743 26.4395V24.9989H105.184V26.4395H103.743ZM93.6527 26.4395H92.2121V24.9989H93.6527V26.4395ZM103.743 39.0658L102.892 40.2276L102.303 39.7959V39.0658H103.743ZM109.247 61.9995H110.688V63.4401H109.247V61.9995ZM79.892 61.9995V63.4401H78.4514V61.9995H79.892ZM93.6527 36.4707H95.0933V37.9113H93.6527V36.4707ZM103.743 27.88H93.6527V24.9989H103.743V27.88ZM102.303 39.0658V26.4395H105.184V39.0658H102.303ZM107.806 49.9163C107.806 45.9397 105.874 42.4145 102.892 40.2276L104.595 37.904C108.286 40.6103 110.688 44.983 110.688 49.9163H107.806ZM107.806 61.9995V49.9163H110.688V61.9995H107.806ZM79.892 60.5589H109.247V63.4401H79.892V60.5589ZM81.3325 44.2407V61.9995H78.4514V44.2407H81.3325ZM87.6619 37.9113C84.1663 37.9113 81.3325 40.7451 81.3325 44.2407H78.4514C78.4514 39.1538 82.5751 35.0301 87.6619 35.0301V37.9113ZM93.6527 37.9113H87.6619V35.0301H93.6527V37.9113ZM95.0933 26.4395V36.4707H92.2121V26.4395H95.0933Z" fill="#AA2D35" mask="url(#path-13-inside-2_423_1960)"/>
<path d="M24.6968 42.3805H8.42949C4.53605 42.3805 1.3798 45.5367 1.3798 49.4302V60.9614H31.7465V49.4301C31.7465 45.5367 28.5902 42.3805 24.6968 42.3805Z" fill="#F6F6F6" stroke="#AA2D35" stroke-width="1.4406"/>
<mask id="path-16-inside-3_423_1960" fill="white">
<path fill-rule="evenodd" clip-rule="evenodd" d="M35.9601 33.1981C38.0287 32.9452 38.8281 31.1683 38.8281 29.0139C38.8281 26.686 37.8947 24.7988 35.4353 24.7988C34.3055 24.7988 33.5872 25.1971 33.1408 25.8535H26.2546C24.4155 25.8535 22.9247 27.3444 22.9247 29.1835V31.1071C22.9247 33.0857 24.6397 34.6279 26.6073 34.4184L34.7907 33.5469C35.21 33.5023 35.6042 33.3811 35.9601 33.1981Z"/>
</mask>
<path fill-rule="evenodd" clip-rule="evenodd" d="M35.9601 33.1981C38.0287 32.9452 38.8281 31.1683 38.8281 29.0139C38.8281 26.686 37.8947 24.7988 35.4353 24.7988C34.3055 24.7988 33.5872 25.1971 33.1408 25.8535H26.2546C24.4155 25.8535 22.9247 27.3444 22.9247 29.1835V31.1071C22.9247 33.0857 24.6397 34.6279 26.6073 34.4184L34.7907 33.5469C35.21 33.5023 35.6042 33.3811 35.9601 33.1981Z" fill="#FCFCFC"/>
<path d="M35.9601 33.1981L35.3892 32.0877L35.5874 31.9858L35.8086 31.9588L35.9601 33.1981ZM33.1408 25.8535L34.1732 26.5556L33.8016 27.102H33.1408V25.8535ZM26.6073 34.4184L26.4751 33.1769L26.4751 33.1769L26.6073 34.4184ZM34.7907 33.5469L34.6585 32.3054L34.6585 32.3054L34.7907 33.5469ZM35.8086 31.9588C36.4619 31.8789 36.8451 31.5896 37.1064 31.1648C37.4003 30.6871 37.5796 29.9603 37.5796 29.0139H40.0766C40.0766 30.2219 39.8562 31.4607 39.2332 32.4733C38.5777 33.5387 37.5269 34.2643 36.1116 34.4374L35.8086 31.9588ZM37.5796 29.0139C37.5796 27.9865 37.3688 27.2256 37.0355 26.7555C36.7497 26.3524 36.2978 26.0473 35.4353 26.0473V23.5503C37.0322 23.5503 38.2767 24.1888 39.0725 25.3113C39.8207 26.3667 40.0766 27.7134 40.0766 29.0139H37.5796ZM35.4353 26.0473C34.6459 26.0473 34.3489 26.2973 34.1732 26.5556L32.1084 25.1514C32.8255 24.097 33.9651 23.5503 35.4353 23.5503V26.0473ZM33.1408 27.102H26.2546V24.605H33.1408V27.102ZM26.2546 27.102C25.1051 27.102 24.1732 28.0339 24.1732 29.1835H21.6761C21.6761 26.6549 23.726 24.605 26.2546 24.605V27.102ZM24.1732 29.1835V31.1071H21.6761V29.1835H24.1732ZM24.1732 31.1071C24.1732 32.3439 25.2452 33.3078 26.4751 33.1769L26.7395 35.6599C24.0343 35.9479 21.6761 33.8276 21.6761 31.1071H24.1732ZM26.4751 33.1769L34.6585 32.3054L34.9229 34.7884L26.7395 35.6599L26.4751 33.1769ZM34.6585 32.3054C34.9222 32.2773 35.1679 32.2015 35.3892 32.0877L36.531 34.3084C36.0405 34.5606 35.4978 34.7272 34.9229 34.7884L34.6585 32.3054Z" fill="#AA2D35" mask="url(#path-16-inside-3_423_1960)"/>
<path fill-rule="evenodd" clip-rule="evenodd" d="M55.3373 21.7543C55.0909 21.482 54.9332 21.132 54.8931 20.6872C54.7328 18.9063 55.8096 18.8112 57.8329 18.6326C57.8889 18.6277 57.9455 18.6227 58.0029 18.6176C60.1357 18.4279 62.4654 20.4645 62.6302 22.2946C62.7254 23.3521 62.3269 23.2108 61.562 22.9396C61.0031 22.7414 60.2486 22.4738 59.3481 22.5539C58.5533 22.6246 57.755 22.6375 57.0578 22.5312C57.1149 22.551 57.1734 22.5691 57.2334 22.5852C57.3711 22.6222 57.5097 22.6588 57.647 22.6951C58.7247 22.9797 59.7285 23.2448 59.6482 23.5398C59.5577 23.8724 58.497 23.8767 57.2792 23.5493C56.3043 23.2872 55.5521 22.306 55.3373 21.7543Z" fill="#AA2D35"/>
<path d="M31.4072 26.1531C31.4072 25.4532 30.7673 24.928 30.0808 25.0644L24.4947 26.1748C23.9131 26.2905 23.525 26.8428 23.6135 27.4292L24.8638 35.7135C24.9614 36.3602 25.5943 36.7828 26.229 36.6251L30.5649 35.5477C31.0598 35.4248 31.4072 34.9804 31.4072 34.4705V26.1531Z" fill="#9F1019"/>
<mask id="path-20-inside-4_423_1960" fill="white">
<path fill-rule="evenodd" clip-rule="evenodd" d="M29.7939 7.70778C29.6643 7.95918 29.5196 8.16605 29.3614 8.33299C31.2962 10.5295 32.4697 13.3657 32.4697 16.7039C32.4697 24.9855 25.2471 28.5751 17.0962 28.5751C8.94526 28.5751 1.72267 24.9855 1.72267 16.7039C1.72267 13.0671 3.11551 10.0261 5.36817 7.75897C5.31501 7.65371 5.26594 7.54003 5.22118 7.4175C4.51333 5.48008 5.46705 2.90019 7.48555 2.06776C9.30796 1.3162 11.3752 2.24603 12.2806 3.85965C13.8117 3.44596 15.4347 3.23021 17.0962 3.23021C19.062 3.23021 20.9738 3.53222 22.7434 4.10674C22.7889 3.97614 22.8464 3.84263 22.9169 3.70602C23.8565 1.88325 26.3287 0.997667 28.2277 2.10272C30.1268 3.20778 30.7336 5.88501 29.7939 7.70778Z"/>
</mask>
<path fill-rule="evenodd" clip-rule="evenodd" d="M29.7939 7.70778C29.6643 7.95918 29.5196 8.16605 29.3614 8.33299C31.2962 10.5295 32.4697 13.3657 32.4697 16.7039C32.4697 24.9855 25.2471 28.5751 17.0962 28.5751C8.94526 28.5751 1.72267 24.9855 1.72267 16.7039C1.72267 13.0671 3.11551 10.0261 5.36817 7.75897C5.31501 7.65371 5.26594 7.54003 5.22118 7.4175C4.51333 5.48008 5.46705 2.90019 7.48555 2.06776C9.30796 1.3162 11.3752 2.24603 12.2806 3.85965C13.8117 3.44596 15.4347 3.23021 17.0962 3.23021C19.062 3.23021 20.9738 3.53222 22.7434 4.10674C22.7889 3.97614 22.8464 3.84263 22.9169 3.70602C23.8565 1.88325 26.3287 0.997667 28.2277 2.10272C30.1268 3.20778 30.7336 5.88501 29.7939 7.70778Z" fill="#FCFCFC"/>
<path d="M29.3614 8.33299L28.4245 9.15823L27.6706 8.30227L28.4551 7.47426L29.3614 8.33299ZM29.7939 7.70778L30.9037 8.27987L30.9037 8.27987L29.7939 7.70778ZM5.36817 7.75897L6.48265 7.19619L6.88861 8.00011L6.25383 8.63897L5.36817 7.75897ZM5.22118 7.4175L4.04848 7.84596L4.04848 7.84596L5.22118 7.4175ZM7.48555 2.06776L7.00955 0.913544L7.00955 0.913544L7.48555 2.06776ZM12.2806 3.85965L12.6063 5.06494L11.6676 5.31857L11.1918 4.47059L12.2806 3.85965ZM22.7434 4.10674L23.9224 4.51742L23.5204 5.67168L22.3578 5.29423L22.7434 4.10674ZM22.9169 3.70602L24.0266 4.27811L24.0266 4.27811L22.9169 3.70602ZM28.2277 2.10272L28.8556 1.02361L28.8556 1.02361L28.2277 2.10272ZM28.4551 7.47426C28.5204 7.40541 28.6 7.29909 28.6842 7.13569L30.9037 8.27987C30.7287 8.61928 30.5188 8.92669 30.2677 9.19171L28.4551 7.47426ZM31.2212 16.7039C31.2212 13.6764 30.1631 11.132 28.4245 9.15823L30.2983 7.50774C32.4294 9.92706 33.7182 13.055 33.7182 16.7039H31.2212ZM17.0962 27.3265C21.0139 27.3265 24.5836 26.4601 27.1345 24.7147C29.6292 23.0077 31.2212 20.4202 31.2212 16.7039H33.7182C33.7182 21.2692 31.6989 24.6172 28.5446 26.7755C25.4465 28.8952 21.3295 29.8236 17.0962 29.8236V27.3265ZM2.97119 16.7039C2.97119 20.4202 4.56315 23.0077 7.05786 24.7147C9.60882 26.4601 13.1785 27.3265 17.0962 27.3265V29.8236C12.8629 29.8236 8.74587 28.8952 5.64781 26.7755C2.49348 24.6172 0.474155 21.2692 0.474155 16.7039H2.97119ZM6.25383 8.63897C4.22484 10.681 2.97119 13.4091 2.97119 16.7039H0.474155C0.474155 12.7252 2.00619 9.37122 4.48251 6.87897L6.25383 8.63897ZM6.39387 6.98905C6.42317 7.06925 6.45315 7.13777 6.48265 7.19619L4.25369 8.32176C4.17688 8.16965 4.10871 8.01082 4.04848 7.84596L6.39387 6.98905ZM7.96155 3.22198C7.31495 3.48864 6.78753 4.05934 6.48786 4.79776C6.18621 5.54105 6.15988 6.34858 6.39388 6.98905L4.04848 7.84596C3.57463 6.549 3.67123 5.09787 4.17411 3.85876C4.67896 2.61477 5.63765 1.47931 7.00955 0.913544L7.96155 3.22198ZM11.1918 4.47059C10.5471 3.32154 9.11293 2.74715 7.96155 3.22198L7.00955 0.913544C9.50299 -0.114748 12.2034 1.17051 13.3695 3.2487L11.1918 4.47059ZM17.0962 4.47873C15.5422 4.47873 14.0289 4.68056 12.6063 5.06494L11.955 2.65435C13.5945 2.21136 15.3271 1.9817 17.0962 1.9817V4.47873ZM22.3578 5.29423C20.7165 4.76133 18.935 4.47873 17.0962 4.47873V1.9817C19.189 1.9817 21.2312 2.3031 23.1289 2.91924L22.3578 5.29423ZM24.0266 4.27811C23.981 4.36666 23.9472 4.44634 23.9224 4.51742L21.5643 3.69605C21.6305 3.50595 21.7119 3.31859 21.8071 3.13393L24.0266 4.27811ZM27.5998 3.18184C26.3711 2.4669 24.6676 3.03479 24.0266 4.27811L21.8071 3.13393C23.0455 0.731706 26.2862 -0.471567 28.8556 1.02361L27.5998 3.18184ZM28.6842 7.13569C29.3484 5.84727 28.8708 3.92145 27.5998 3.18184L28.8556 1.02361C31.3827 2.4941 32.1188 5.92274 30.9037 8.27987L28.6842 7.13569Z" fill="#AA2D35" mask="url(#path-20-inside-4_423_1960)"/>
<mask id="path-22-inside-5_423_1960" fill="white">
<path fill-rule="evenodd" clip-rule="evenodd" d="M20.5828 35.6289C20.8938 35.7871 21.2671 35.8961 21.7123 35.9479C24.1549 36.232 25.3114 34.3921 25.5942 31.9894C25.8771 29.5867 25.1793 27.5312 22.7366 27.2471C21.5128 27.1048 20.7176 27.5079 20.1932 28.2478L12.5588 27.3107C10.7334 27.0866 9.06974 28.3845 8.84296 30.2096L8.75454 30.9211C8.52776 32.7462 9.8237 34.4074 11.6491 34.6314L19.7702 35.6282C20.0462 35.6621 20.3186 35.6612 20.5828 35.6289Z"/>
</mask>
<path fill-rule="evenodd" clip-rule="evenodd" d="M20.5828 35.6289C20.8938 35.7871 21.2671 35.8961 21.7123 35.9479C24.1549 36.232 25.3114 34.3921 25.5942 31.9894C25.8771 29.5867 25.1793 27.5312 22.7366 27.2471C21.5128 27.1048 20.7176 27.5079 20.1932 28.2478L12.5588 27.3107C10.7334 27.0866 9.06974 28.3845 8.84296 30.2096L8.75454 30.9211C8.52776 32.7462 9.8237 34.4074 11.6491 34.6314L19.7702 35.6282C20.0462 35.6621 20.3186 35.6612 20.5828 35.6289Z" fill="#FCFCFC"/>
<path d="M20.5828 35.6289L20.4314 34.3896L20.8094 34.3434L21.1488 34.5161L20.5828 35.6289ZM21.7123 35.9479L21.8565 34.7077L21.8565 34.7077L21.7123 35.9479ZM22.7366 27.2471L22.5924 28.4872L22.7366 27.2471ZM20.1932 28.2478L21.2118 28.9698L20.7808 29.5778L20.0411 29.487L20.1932 28.2478ZM12.5588 27.3107L12.7109 26.0715L12.7109 26.0715L12.5588 27.3107ZM8.84296 30.2096L10.0819 30.3635L10.0819 30.3635L8.84296 30.2096ZM8.75454 30.9211L7.51555 30.7672L7.51555 30.7672L8.75454 30.9211ZM11.6491 34.6314L11.497 35.8706L11.6491 34.6314ZM19.7702 35.6282L19.6181 36.8675L19.6181 36.8675L19.7702 35.6282ZM21.1488 34.5161C21.3052 34.5957 21.5308 34.6699 21.8565 34.7077L21.568 37.1881C21.0033 37.1224 20.4823 36.9786 20.0168 36.7418L21.1488 34.5161ZM21.8565 34.7077C22.693 34.805 23.1773 34.5525 23.5207 34.1573C23.9211 33.6965 24.228 32.9164 24.3543 31.8434L26.8342 32.1354C26.6777 33.465 26.2648 34.8062 25.4056 35.7951C24.4895 36.8494 23.1742 37.3749 21.568 37.1881L21.8565 34.7077ZM24.3543 31.8434C24.4806 30.7702 24.3631 29.9415 24.0812 29.4024C23.8398 28.9409 23.4288 28.5845 22.5924 28.4872L22.8809 26.0069C24.4872 26.1937 25.6464 27.0072 26.2939 28.2451C26.9008 29.4055 26.9907 30.806 26.8342 32.1354L24.3543 31.8434ZM22.5924 28.4872C22.1465 28.4354 21.8658 28.4922 21.6866 28.5675C21.5133 28.6404 21.3589 28.7622 21.2118 28.9698L19.1746 27.5258C19.5519 26.9935 20.0574 26.5438 20.7187 26.2657C21.3742 25.9901 22.103 25.9165 22.8809 26.0069L22.5924 28.4872ZM20.0411 29.487L12.4067 28.5499L12.7109 26.0715L20.3453 27.0086L20.0411 29.487ZM12.4067 28.5499C11.2649 28.4098 10.2238 29.222 10.0819 30.3635L7.60397 30.0556C7.91569 27.547 10.2018 25.7635 12.7109 26.0715L12.4067 28.5499ZM10.0819 30.3635L9.99353 31.0751L7.51555 30.7672L7.60397 30.0556L10.0819 30.3635ZM9.99353 31.0751C9.85186 32.2152 10.6609 33.2522 11.8012 33.3922L11.497 35.8706C8.98647 35.5625 7.20365 33.2772 7.51555 30.7672L9.99353 31.0751ZM11.8012 33.3922L19.9223 34.389L19.6181 36.8675L11.497 35.8706L11.8012 33.3922ZM19.9223 34.389C20.0967 34.4104 20.2671 34.4097 20.4314 34.3896L20.7342 36.8682C20.37 36.9127 19.9957 36.9138 19.6181 36.8675L19.9223 34.389Z" fill="#AA2D35" mask="url(#path-22-inside-5_423_1960)"/>
<path d="M17.1718 28.3948C17.3332 27.707 16.8191 27.0472 16.1123 27.035L9.3843 26.9195C8.92007 26.9116 8.49916 27.1929 8.32906 27.6248L7.17548 30.5542C7.09739 30.7525 7.07803 30.9689 7.1197 31.1776L7.91024 35.1366C8.01101 35.6412 8.44632 36.0095 8.96146 36.0259L14.4226 36.1994C14.9523 36.2163 15.4209 35.8569 15.5419 35.3413L17.1718 28.3948Z" fill="#9F1019"/>
<rect width="7.4217" height="1.58065" rx="0.790323" transform="matrix(-1 0 0 1 21.8643 8.43555)" fill="#AA2D35"/>
<rect width="7.4217" height="1.58065" rx="0.790323" transform="matrix(-1 0 0 1 21.8643 5.27344)" fill="#AA2D35"/>
<path fill-rule="evenodd" clip-rule="evenodd" d="M1.94156 14.2617H5.17159C5.60807 14.2617 5.96191 14.6156 5.96191 15.052C5.96191 15.4885 5.60807 15.8424 5.17159 15.8424H1.74826C1.78176 15.301 1.84683 14.7739 1.94156 14.2617Z" fill="#AA2D35"/>
<path fill-rule="evenodd" clip-rule="evenodd" d="M32.4684 16.8951H30.8255C30.3891 16.8951 30.0352 16.5413 30.0352 16.1048C30.0352 15.6683 30.3891 15.3145 30.8255 15.3145H32.4001C32.4461 15.7673 32.4697 16.2307 32.4697 16.7042C32.4697 16.7681 32.4693 16.8317 32.4684 16.8951Z" fill="#AA2D35"/>
<rect width="4.68722" height="1.05379" rx="0.526897" transform="matrix(-0.997664 0.0683075 0.069146 0.997607 17.5137 13.207)" fill="#AA2D35"/>
<rect width="4.05251" height="1.05379" rx="0.526893" transform="matrix(-0.998293 -0.0584097 -0.0591277 0.99825 26.1006 13.5195)" fill="#AA2D35"/>
<path fill-rule="evenodd" clip-rule="evenodd" d="M32.2833 19.0045H30.0944C29.6579 19.0045 29.3041 18.6506 29.3041 18.2142C29.3041 17.7777 29.6579 17.4238 30.0944 17.4238H32.4668C32.438 17.9725 32.3762 18.4992 32.2833 19.0045Z" fill="#AA2D35"/>
<path fill-rule="evenodd" clip-rule="evenodd" d="M1.7258 16.3672H5.17159C5.60807 16.3672 5.96191 16.721 5.96191 17.1575C5.96191 17.594 5.60807 17.9478 5.17159 17.9478H1.77898C1.74121 17.5444 1.72188 17.1286 1.72188 16.7003C1.72188 16.5887 1.72319 16.4776 1.7258 16.3672Z" fill="#AA2D35"/>
<path fill-rule="evenodd" clip-rule="evenodd" d="M19.001 3.32947V8.69283C19.001 9.132 18.645 9.48802 18.2058 9.48802C17.7666 9.48802 17.4106 9.132 17.4106 8.69283V3.23633C17.9457 3.24518 18.4764 3.27642 19.001 3.32947Z" fill="#AA2D35"/>
<path d="M14.443 16.6317C14.443 17.3591 14.7713 17.9489 15.5032 17.9489C16.2352 17.9489 16.5635 17.3591 16.5635 16.6317C16.5635 15.9042 16.2352 15.3145 15.5032 15.3145C14.7713 15.3145 14.443 15.9042 14.443 16.6317Z" fill="#AA2D35"/>
<path d="M22.9254 16.6317C22.9254 17.3591 23.2537 17.9489 23.9857 17.9489C24.7176 17.9489 25.0459 17.3591 25.0459 16.6317C25.0459 15.9042 24.7176 15.3145 23.9857 15.3145C23.2537 15.3145 22.9254 15.9042 22.9254 16.6317Z" fill="#AA2D35"/>
<path d="M18.6835 18.6752C18.6835 19.1747 19.3676 19.426 20.2459 19.426C21.1243 19.426 21.8643 19.1747 21.8643 18.6752C21.8643 18.1756 21.1522 17.4238 20.2739 17.4238C19.3956 17.4238 18.6835 18.1756 18.6835 18.6752Z" fill="#AA2D35"/>
<path d="M20.8037 22.6944C19.9202 22.6944 17.9411 22.4836 17.0929 21.6406" stroke="#AA2D35" stroke-width="1.24852" stroke-linecap="round"/>
<rect width="6.36146" height="2.10753" transform="matrix(-1 0 0 1 38.8301 49.0371)" fill="#AA2D35"/>
<rect width="10.0388" height="2.10753" transform="matrix(-1 0 0 1 80.0586 49.5254)" fill="#AA2D35"/>
<rect width="30.2725" height="3.64697" transform="matrix(-1 0 0 1 69.7881 57.4375)" fill="#AA2D35"/>
<rect width="27.5204" height="3.64697" transform="matrix(-1 0 0 1 108.331 57.4375)" fill="#AA2D35"/>
<rect width="30.2725" height="3.64697" transform="matrix(-1 0 0 1 31.2598 57.4375)" fill="#AA2D35"/>
<rect width="13.7602" height="4.55871" rx="1.92079" transform="matrix(-1 0 0 1 105.578 22.793)" fill="#AA2D35"/>
<ellipse rx="1.00615" ry="1" transform="matrix(-1 0 0 1 60.6862 46.6504)" fill="#AA2D35"/>
<ellipse rx="1.00615" ry="1" transform="matrix(-1 0 0 1 22.4528 46.6504)" fill="#AA2D35"/>
<ellipse rx="1.00615" ry="1" transform="matrix(-1 0 0 1 48.613 46.6504)" fill="#AA2D35"/>
<ellipse rx="1.00615" ry="1" transform="matrix(-1 0 0 1 10.3786 46.6504)" fill="#AA2D35"/>
</svg>
