<svg width="100%" height="100%" viewBox="0 0 428 86" fill="none" xmlns="http://www.w3.org/2000/svg">
<path fill-rule="evenodd" clip-rule="evenodd" d="M259 22.9671C259 10.2827 269.283 0 281.967 0H398C414.569 0 428 13.4315 428 30V86H0V30C0 13.4314 13.4315 0 30 0H147.033C159.717 0 170 10.2827 170 22.9671V26.4694C170 26.5083 170.032 26.5398 170.07 26.5398C170.107 26.5398 170.138 26.5684 170.141 26.6051C171.956 49.991 191.123 68.391 214.5 68.391C237.877 68.391 257.044 49.991 258.859 26.6051C258.862 26.5684 258.893 26.5398 258.93 26.5398C258.968 26.5398 259 26.5083 259 26.4694V22.9671Z" fill="#F7F7F7"/>
</svg>
