<svg width="232" height="242" viewBox="0 0 232 242" fill="none" xmlns="http://www.w3.org/2000/svg">
<path d="M127.535 121.101C127.259 121.101 127.035 120.877 127.035 120.601V118.5C127.035 118.224 127.259 118 127.535 118H139.889C140.165 118 140.389 118.224 140.389 118.5V120.601C140.389 120.877 140.165 121.101 139.889 121.101H136.098C135.822 121.101 135.598 121.325 135.598 121.601V133.299C135.598 133.576 135.374 133.799 135.098 133.799H132.334C132.057 133.799 131.834 133.576 131.834 133.299V121.601C131.834 121.325 131.61 121.101 131.334 121.101H127.535Z" fill="#746E6E"/>
<path d="M143.259 133.799C142.983 133.799 142.759 133.576 142.759 133.299V118.5C142.759 118.224 142.983 118 143.259 118H149.285C150.468 118 151.489 118.213 152.348 118.64C153.212 119.062 153.878 119.669 154.346 120.461C154.814 121.248 155.048 122.181 155.048 123.261C155.048 124.357 154.809 125.288 154.331 126.054C153.852 126.815 153.173 127.396 152.294 127.797C151.415 128.194 150.373 128.392 149.17 128.392H145.542C145.266 128.392 145.042 128.168 145.042 127.892V125.883C145.042 125.607 145.266 125.383 145.542 125.383H148.46C149.036 125.383 149.517 125.308 149.902 125.159C150.293 125.005 150.589 124.773 150.79 124.465C150.99 124.151 151.091 123.75 151.091 123.261C151.091 122.773 150.99 122.369 150.79 122.05C150.589 121.726 150.293 121.484 149.902 121.325C149.512 121.16 149.031 121.078 148.46 121.078H147.077C146.801 121.078 146.577 121.302 146.577 121.578V133.299C146.577 133.576 146.354 133.799 146.077 133.799H143.259ZM151.357 126.579C151.54 126.579 151.708 126.679 151.796 126.839L155.185 133.06C155.367 133.393 155.126 133.799 154.746 133.799H151.722C151.537 133.799 151.368 133.698 151.281 133.535L147.958 127.314C147.78 126.981 148.021 126.579 148.399 126.579H151.357Z" fill="#746E6E"/>
<path d="M161.493 133.449C161.428 133.657 161.235 133.799 161.016 133.799H157.976C157.634 133.799 157.393 133.464 157.502 133.14L162.495 118.34C162.564 118.137 162.755 118 162.969 118H167.335C167.55 118 167.74 118.137 167.809 118.34L172.802 133.14C172.911 133.464 172.67 133.799 172.328 133.799H169.288C169.069 133.799 168.876 133.658 168.811 133.449L165.228 122.04C165.217 122.005 165.185 121.981 165.148 121.981V121.981C165.111 121.981 165.079 122.005 165.068 122.04L161.493 133.449ZM160.836 128.081C160.836 127.805 161.06 127.581 161.336 127.581H168.914C169.19 127.581 169.414 127.805 169.414 128.081V129.982C169.414 130.258 169.19 130.482 168.914 130.482H161.336C161.06 130.482 160.836 130.258 160.836 129.982V128.081Z" fill="#746E6E"/>
<path d="M177.577 118C177.854 118 178.077 118.224 178.077 118.5V133.299C178.077 133.576 177.854 133.799 177.577 133.799H174.759C174.483 133.799 174.259 133.576 174.259 133.299V118.5C174.259 118.224 174.483 118 174.759 118H177.577Z" fill="#746E6E"/>
<path d="M193.723 118C193.999 118 194.223 118.224 194.223 118.5V133.299C194.223 133.576 193.999 133.799 193.723 133.799H191.245C191.081 133.799 190.927 133.719 190.834 133.583L184.715 124.709C184.703 124.691 184.682 124.681 184.661 124.681V124.681C184.625 124.681 184.595 124.71 184.595 124.747V133.299C184.595 133.576 184.371 133.799 184.095 133.799H181.276C181 133.799 180.776 133.576 180.776 133.299V118.5C180.776 118.224 181 118 181.276 118H183.799C183.964 118 184.118 118.082 184.212 118.218L190.255 127.066C190.271 127.089 190.298 127.103 190.326 127.103V127.103C190.373 127.103 190.412 127.065 190.412 127.017V118.5C190.412 118.224 190.636 118 190.912 118H193.723Z" fill="#746E6E"/>
<path d="M45.5 133.799C45.2239 133.799 45 133.576 45 133.299V118.5C45 118.224 45.2239 118 45.5 118H48.3187C48.5949 118 48.8187 118.224 48.8187 118.5V124.541C48.8187 124.618 48.8814 124.681 48.9587 124.681V124.681C49.0018 124.681 49.0425 124.661 49.069 124.627L54.0996 118.192C54.1944 118.071 54.3397 118 54.4935 118H57.7117C58.1301 118 58.3634 118.483 58.1032 118.811L53.3707 124.769C53.2368 124.937 53.2258 125.173 53.3433 125.353L58.3439 133.026C58.5606 133.359 58.322 133.799 57.925 133.799H54.5557C54.3844 133.799 54.2251 133.712 54.1334 133.567L50.7232 128.184C50.5389 127.893 50.1226 127.871 49.9088 128.141L48.9267 129.381C48.8568 129.47 48.8187 129.579 48.8187 129.692V133.299C48.8187 133.576 48.5948 133.799 48.3187 133.799H45.5Z" fill="#746E6E"/>
<path d="M86.7764 133.799C86.5002 133.799 86.2764 133.576 86.2764 133.299V118.5C86.2764 118.224 86.5002 118 86.7764 118H89.5951C89.8712 118 90.0951 118.224 90.0951 118.5V124.541C90.0951 124.618 90.1578 124.681 90.2351 124.681V124.681C90.2782 124.681 90.3189 124.661 90.3454 124.627L95.376 118.192C95.4707 118.071 95.616 118 95.7699 118H98.988C99.4065 118 99.6398 118.483 99.3795 118.811L94.647 124.769C94.5132 124.937 94.5022 125.173 94.6197 125.353L99.6203 133.026C99.837 133.359 99.5984 133.799 99.2014 133.799H95.8321C95.6608 133.799 95.5014 133.712 95.4097 133.567L91.9995 128.184C91.8153 127.893 91.399 127.871 91.1852 128.141L90.2031 129.381C90.1331 129.47 90.0951 129.579 90.0951 129.692V133.299C90.0951 133.576 89.8712 133.799 89.5951 133.799H86.7764Z" fill="#746E6E"/>
<path d="M69.7654 118.5C69.7654 118.224 69.9892 118 70.2654 118H73.0764C73.3525 118 73.5764 118.224 73.5764 118.5V128.191C73.5764 129.369 73.2961 130.395 72.7355 131.269C72.1749 132.138 71.3931 132.812 70.3903 133.29C69.3874 133.763 68.2225 134 66.8956 134C65.5532 134 64.3806 133.763 63.3777 133.29C62.3748 132.812 61.5957 132.138 61.0402 131.269C60.4848 130.395 60.207 129.369 60.207 128.191V118.5C60.207 118.224 60.4309 118 60.707 118H63.5257C63.8019 118 64.0257 118.224 64.0257 118.5V127.859C64.0257 128.404 64.144 128.89 64.3806 129.317C64.6223 129.744 64.9592 130.078 65.3912 130.32C65.8232 130.562 66.3247 130.683 66.8956 130.683C67.4664 130.683 67.9653 130.562 68.3922 130.32C68.8242 130.078 69.1611 129.744 69.4028 129.317C69.6445 128.89 69.7654 128.404 69.7654 127.859V118.5Z" fill="#746E6E"/>
<path d="M111.042 118.5C111.042 118.224 111.266 118 111.542 118H114.353C114.629 118 114.853 118.224 114.853 118.5V128.191C114.853 129.369 114.572 130.395 114.012 131.269C113.451 132.138 112.67 132.812 111.667 133.29C110.664 133.763 109.499 134 108.172 134C106.83 134 105.657 133.763 104.654 133.29C103.651 132.812 102.872 132.138 102.317 131.269C101.761 130.395 101.483 129.369 101.483 128.191V118.5C101.483 118.224 101.707 118 101.983 118H104.802C105.078 118 105.302 118.224 105.302 118.5V127.859C105.302 128.404 105.42 128.89 105.657 129.317C105.899 129.744 106.236 130.078 106.668 130.32C107.1 130.562 107.601 130.683 108.172 130.683C108.743 130.683 109.242 130.562 109.669 130.32C110.101 130.078 110.437 129.744 110.679 129.317C110.921 128.89 111.042 128.404 111.042 127.859V118.5Z" fill="#746E6E"/>
<path d="M14 106C14 103.791 15.7909 102 18 102H223C225.209 102 227 103.791 227 106V106C227 108.209 225.209 110 223 110H18C15.7909 110 14 108.209 14 106V106Z" fill="#BC323B"/>
<rect x="77" y="64" width="14" height="12" rx="6" fill="#BC323B"/>
<rect x="150" y="64" width="14" height="12" rx="6" fill="#BC323B"/>
<path d="M107 45.5H134C143.665 45.5 151.5 53.335 151.5 63V86C151.5 90.1421 148.142 93.5 144 93.5H97C92.8579 93.5 89.5 90.1421 89.5 86V63C89.5 53.335 97.335 45.5 107 45.5Z" stroke="#BC323B" stroke-width="5"/>
<path d="M180 45.5H207C216.665 45.5 224.5 53.335 224.5 63V86C224.5 90.1421 221.142 93.5 217 93.5H170C165.858 93.5 162.5 90.1421 162.5 86V63C162.5 53.335 170.335 45.5 180 45.5Z" stroke="#BC323B" stroke-width="5"/>
<rect x="100" y="58" width="41" height="14" rx="4" fill="#BC323B"/>
<rect x="173" y="58" width="41" height="14" rx="4" fill="#BC323B"/>
<path d="M9.204 180.262V192.014H10.283V180.262H9.204ZM5.759 181.523V181.705C5.759 184.825 4.186 187.321 0.793 188.959L1.365 189.83C5.291 187.906 6.825 184.929 6.825 181.523H5.759ZM1.326 181.523V182.407H6.227V181.523H1.326ZM15.469 183.057V184.058C15.469 186.086 14.221 188.088 12.492 188.92L13.103 189.752C14.962 188.829 16.314 186.541 16.314 184.058V183.057H15.469ZM15.677 183.057V184.058C15.677 186.398 16.951 188.621 18.784 189.531L19.382 188.699C17.705 187.867 16.522 185.956 16.522 184.058V183.057H15.677ZM12.817 182.303V183.174H19.122V182.303H12.817ZM15.456 180.47V182.784H16.522V180.47H15.456ZM20.552 180.262V192.014H21.644V180.262H20.552ZM21.384 185.085V185.982H23.568V185.085H21.384ZM25.998 183.031V183.915H33.967V183.031H25.998ZM24.555 185.176V186.06H35.215V185.176H24.555ZM25.998 180.431V183.46H27.051V180.431H25.998ZM25.881 187.035V187.867H32.784V188.959H25.907V191.312H26.973V189.739H33.863V187.035H25.881ZM25.907 191.013V191.858H34.253V191.013H25.907ZM29.352 183.551V185.657H30.405V183.551H29.352ZM45.055 180.249V192.027H46.134V180.249H45.055ZM39.933 181.159C38.204 181.159 36.956 182.758 36.956 185.254C36.956 187.763 38.204 189.362 39.933 189.362C41.675 189.362 42.923 187.763 42.923 185.254C42.923 182.758 41.675 181.159 39.933 181.159ZM39.933 182.134C41.09 182.134 41.883 183.356 41.883 185.254C41.883 187.165 41.09 188.413 39.933 188.413C38.789 188.413 37.983 187.165 37.983 185.254C37.983 183.356 38.789 182.134 39.933 182.134ZM181.177 185.722V186.541H191.837V185.722H181.177ZM182.438 187.49V188.257H189.445V189.258H182.477V191.377H183.543V189.999H190.498V187.49H182.438ZM182.477 191.091V191.871H190.875V191.091H182.477ZM182.529 180.6V181.367H189.406V182.316H182.555V184.318H183.621V183.044H190.459V180.6H182.529ZM182.555 184.058V184.838H190.68V184.058H182.555ZM204.623 180.275V189.089H205.702V180.275H204.623ZM205.364 184.123V185.033H207.444V184.123H205.364ZM196.615 181.692V182.563H203.557V181.692H196.615ZM200.086 183.213C198.409 183.213 197.265 184.084 197.265 185.41C197.265 186.723 198.409 187.594 200.086 187.594C201.75 187.594 202.894 186.723 202.894 185.41C202.894 184.084 201.75 183.213 200.086 183.213ZM200.086 184.058C201.139 184.058 201.867 184.591 201.867 185.41C201.867 186.216 201.139 186.749 200.086 186.749C199.02 186.749 198.292 186.216 198.292 185.41C198.292 184.591 199.02 184.058 200.086 184.058ZM199.54 180.262V182.147H200.619V180.262H199.54ZM198.383 190.87V191.754H206.235V190.87H198.383ZM198.383 188.387V191.247H199.462V188.387H198.383ZM209.991 183.824V184.682H217.973V183.824H209.991ZM209.991 180.704V184.175H211.057V180.704H209.991ZM208.548 186.06V186.944H219.169V186.06H208.548ZM213.41 186.632V189.362H214.476V186.632H213.41ZM209.9 190.87V191.754H218.038V190.87H209.9ZM209.9 188.322V191.286H210.966V188.322H209.9ZM225.265 184.825V185.722H227.488V184.825H225.265ZM229.451 180.262V192.014H230.491V180.262H229.451ZM227.124 180.509V191.429H228.151V180.509H227.124ZM223.146 181.237C221.625 181.237 220.65 182.81 220.65 185.332C220.65 187.854 221.625 189.427 223.146 189.427C224.667 189.427 225.655 187.854 225.655 185.332C225.655 182.81 224.667 181.237 223.146 181.237ZM223.146 182.238C224.082 182.238 224.667 183.434 224.667 185.332C224.667 187.23 224.082 188.426 223.146 188.426C222.223 188.426 221.638 187.23 221.638 185.332C221.638 183.434 222.223 182.238 223.146 182.238Z" fill="#494949"/>
<path d="M54.8644 186.931V191.793H56.6064V186.931H54.8644ZM60.1554 180.119V192.157H61.8714V180.119H60.1554ZM51.9654 187.932C54.2144 187.945 56.9314 187.932 59.5834 187.49L59.5054 186.229C56.9444 186.541 54.0584 186.528 51.7704 186.528L51.9654 187.932ZM52.8104 183.928V185.306H58.7644V183.928H52.8104ZM52.8104 180.756V184.851H54.5394V182.121H58.6344V180.756H52.8104ZM64.7044 180.392V181.679H73.6744V180.392H64.7044ZM64.7954 183.161V184.448H73.5834V183.161H64.7954ZM66.2384 180.899V184.045H67.9674V180.899H66.2384ZM70.4114 180.899V184.045H72.1404V180.899H70.4114ZM63.7554 185.072V186.424H74.6364V185.072H63.7554ZM68.3184 185.891V187.568H70.0474V185.891H68.3184ZM65.0034 187.191V188.426H71.6204V189.024H65.0164V191.299H66.7194V190.181H73.3234V187.191H65.0034ZM65.0164 190.818V192.079H73.6354V190.818H65.0164ZM83.9693 180.106V192.183H85.7113V180.106H83.9693ZM79.2243 180.951C77.4043 180.951 76.0653 182.615 76.0653 185.241C76.0653 187.893 77.4043 189.557 79.2243 189.557C81.0443 189.557 82.3833 187.893 82.3833 185.241C82.3833 182.615 81.0443 180.951 79.2243 180.951ZM79.2243 182.524C80.1213 182.524 80.7193 183.473 80.7193 185.241C80.7193 187.035 80.1213 187.997 79.2243 187.997C78.3273 187.997 77.7163 187.035 77.7163 185.241C77.7163 183.473 78.3273 182.524 79.2243 182.524ZM93.7189 180.665V181.822C93.7189 183.343 92.8739 184.903 90.8459 185.553L91.6909 186.918C94.0439 186.164 95.1489 184.097 95.1489 181.822V180.665H93.7189ZM94.0699 180.665V181.822C94.0699 184.058 95.1359 185.982 97.4369 186.71L98.2819 185.358C96.3189 184.76 95.4869 183.304 95.4869 181.822V180.665H94.0699ZM92.6919 187.828V189.206H99.1659V192.157H100.908V187.828H92.6919ZM99.1659 180.119V187.295H100.908V180.119H99.1659ZM110.618 180.119V187.061H112.36V180.119H110.618ZM111.853 182.966V184.37H113.933V182.966H111.853ZM108.408 187.282C105.925 187.282 104.326 188.205 104.326 189.726C104.326 191.26 105.925 192.17 108.408 192.17C110.878 192.17 112.477 191.26 112.477 189.726C112.477 188.205 110.878 187.282 108.408 187.282ZM108.408 188.66C109.929 188.66 110.774 188.998 110.774 189.726C110.774 190.441 109.929 190.792 108.408 190.792C106.874 190.792 106.029 190.441 106.029 189.726C106.029 188.998 106.874 188.66 108.408 188.66ZM103.273 185.059V186.437H104.274C106.991 186.437 108.382 186.385 109.851 186.06L109.682 184.682C108.239 184.994 106.926 185.059 104.274 185.059H103.273ZM103.273 180.925V185.995H104.989V182.303H108.655V180.925H103.273ZM119.626 184.552V185.943H121.602V184.552H119.626ZM123.513 180.119V192.157H125.164V180.119H123.513ZM121.056 180.301V191.611H122.681V180.301H121.056ZM117.52 180.964C115.934 180.964 114.92 182.615 114.92 185.332C114.92 188.062 115.934 189.713 117.52 189.713C119.119 189.713 120.146 188.062 120.146 185.332C120.146 182.615 119.119 180.964 117.52 180.964ZM117.52 182.589C118.196 182.589 118.573 183.499 118.573 185.332C118.573 187.178 118.196 188.075 117.52 188.075C116.87 188.075 116.493 187.178 116.493 185.332C116.493 183.499 116.87 182.589 117.52 182.589ZM138.696 180.119V192.157H140.334V180.119H138.696ZM137.084 184.747V186.138H139.086V184.747H137.084ZM136.005 180.327V191.585H137.604V180.327H136.005ZM130.337 188.023V189.44H131.182C132.729 189.44 134.003 189.401 135.459 189.115L135.329 187.711C133.899 187.971 132.664 188.023 131.182 188.023H130.337ZM130.337 181.51V188.699H132.053V182.901H134.783V181.51H130.337ZM149.706 180.132V189.128H151.435V180.132H149.706ZM150.941 183.798V185.215H153.034V183.798H150.941ZM141.958 181.38V182.732H149.043V181.38H141.958ZM145.507 183.161C143.765 183.161 142.543 184.11 142.543 185.488C142.543 186.866 143.765 187.802 145.507 187.802C147.236 187.802 148.458 186.866 148.458 185.488C148.458 184.11 147.236 183.161 145.507 183.161ZM145.507 184.474C146.274 184.474 146.807 184.838 146.807 185.488C146.807 186.138 146.274 186.489 145.507 186.489C144.74 186.489 144.207 186.138 144.207 185.488C144.207 184.838 144.74 184.474 145.507 184.474ZM144.636 180.106V182.043H146.365V180.106H144.636ZM143.674 190.571V191.949H151.864V190.571H143.674ZM143.674 188.452V191.169H145.403V188.452H143.674ZM163.668 183.031V184.435H165.956V183.031H163.668ZM165.488 180.119V187.269H167.217V180.119H165.488ZM163.135 187.529C160.587 187.529 159.014 188.4 159.014 189.856C159.014 191.325 160.587 192.17 163.135 192.17C165.683 192.17 167.256 191.325 167.256 189.856C167.256 188.4 165.683 187.529 163.135 187.529ZM163.135 188.842C164.708 188.842 165.54 189.167 165.54 189.856C165.54 190.532 164.708 190.857 163.135 190.857C161.575 190.857 160.743 190.532 160.743 189.856C160.743 189.167 161.575 188.842 163.135 188.842ZM159.924 181.328V182.082C159.924 183.629 159.066 185.228 157.077 185.904L157.961 187.269C160.262 186.489 161.328 184.383 161.328 182.082V181.328H159.924ZM160.288 181.328V182.082C160.288 184.227 161.315 186.229 163.551 186.97L164.396 185.605C162.498 184.968 161.679 183.499 161.679 182.082V181.328H160.288ZM157.545 180.847V182.225H164.019V180.847H157.545ZM169.114 189.362V190.766H180.008V189.362H169.114ZM173.677 186.788V189.7H175.406V186.788H173.677ZM170.258 180.886V187.152H178.825V180.886H177.109V182.732H171.974V180.886H170.258ZM171.974 184.084H177.109V185.774H171.974V184.084Z" fill="#BC323B"/>
<path d="M22.979 205.458V205.809C22.979 207.044 21.705 208.396 19.053 208.721L19.69 210.073C22.745 209.657 24.474 207.928 24.474 205.809V205.458H22.979ZM23.473 205.458V205.809C23.473 207.928 25.202 209.657 28.27 210.073L28.894 208.721C26.242 208.396 24.968 207.044 24.968 205.809V205.458H23.473ZM23.07 211.75V216.17H24.786V211.75H23.07ZM18.533 210.762V212.14H29.414V210.762H18.533ZM19.495 204.73V206.095H28.426V204.73H19.495ZM36.381 206.134V207.499H39.449V206.134H36.381ZM36.381 208.721V210.086H39.501V208.721H36.381ZM38.825 204.132V213.011H40.554V204.132H38.825ZM32.585 214.571V215.949H40.814V214.571H32.585ZM32.585 212.14V215.364H34.327V212.14H32.585ZM30.986 204.912V211.126H36.68V204.912H34.99V206.745H32.702V204.912H30.986ZM32.702 208.058H34.99V209.761H32.702V208.058ZM54.0086 204.119V212.985H55.7376V204.119H54.0086ZM45.9616 204.977V206.355H52.3186V204.977H45.9616ZM45.8316 211.555C47.7426 211.555 50.3296 211.503 52.5656 211.126L52.4746 209.865C50.3036 210.112 47.5996 210.138 45.6626 210.138L45.8316 211.555ZM46.9106 206.186V210.307H48.5746V206.186H46.9106ZM49.7056 206.186V210.307H51.3566V206.186H49.7056ZM52.5526 206.225V207.603H54.9446V206.225H52.5526ZM52.5526 208.643V210.034H54.9446V208.643H52.5526ZM47.7816 214.571V215.949H56.0106V214.571H47.7816ZM47.7816 212.335V215.611H49.5236V212.335H47.7816ZM61.4956 204.912C59.6106 204.912 58.1676 206.147 58.1676 207.876C58.1676 209.618 59.6106 210.853 61.4956 210.853C63.3936 210.853 64.8106 209.618 64.8106 207.876C64.8106 206.147 63.3936 204.912 61.4956 204.912ZM61.4956 206.394C62.4186 206.394 63.1206 206.94 63.1206 207.876C63.1206 208.825 62.4186 209.371 61.4956 209.371C60.5726 209.371 59.8706 208.825 59.8706 207.876C59.8706 206.94 60.5726 206.394 61.4956 206.394ZM65.9416 204.106V216.183H67.6706V204.106H65.9416ZM57.8816 213.739C59.9616 213.739 62.7956 213.713 65.4086 213.193L65.2786 211.945C62.7436 212.322 59.7926 212.348 57.6736 212.348L57.8816 213.739ZM72.5185 205.042V206.797C72.5185 209.137 71.5305 211.451 69.4375 212.361L70.4645 213.791C72.8565 212.686 73.9225 209.891 73.9225 206.797V205.042H72.5185ZM72.8565 205.042V206.797C72.8565 209.761 73.9225 212.439 76.2495 213.505L77.2635 212.114C75.2095 211.23 74.2605 209.02 74.2605 206.797V205.042H72.8565ZM77.8355 204.106V216.183H79.5775V204.106H77.8355ZM87.6885 205.874V207.252H90.6525V205.874H87.6885ZM89.8855 204.119V210.229H91.6145V204.119H89.8855ZM83.6585 210.736V212.062H89.8985V212.725H83.6845V215.481H85.3875V213.973H91.6145V210.736H83.6585ZM83.6845 214.688V216.027H91.9525V214.688H83.6845ZM84.2955 204.509V205.367C84.2955 206.901 83.4505 208.37 81.4485 208.968L82.3325 210.333C84.6335 209.605 85.6995 207.642 85.6995 205.367V204.509H84.2955ZM84.6335 204.509V205.367C84.6335 207.525 85.6605 209.384 87.8575 210.099L88.7415 208.76C86.8435 208.188 86.0375 206.797 86.0375 205.367V204.509H84.6335Z" fill="#BC323B"/>
<path d="M98.3865 208.825V209.722H100.61V208.825H98.3865ZM102.573 204.262V216.014H103.613V204.262H102.573ZM100.246 204.509V215.429H101.273V204.509H100.246ZM96.2675 205.237C94.7465 205.237 93.7715 206.81 93.7715 209.332C93.7715 211.854 94.7465 213.427 96.2675 213.427C97.7885 213.427 98.7765 211.854 98.7765 209.332C98.7765 206.81 97.7885 205.237 96.2675 205.237ZM96.2675 206.238C97.2035 206.238 97.7885 207.434 97.7885 209.332C97.7885 211.23 97.2035 212.426 96.2675 212.426C95.3445 212.426 94.7595 211.23 94.7595 209.332C94.7595 207.434 95.3445 206.238 96.2675 206.238ZM117.959 204.262V216.014H118.999V204.262H117.959ZM115.97 208.968V209.865H118.232V208.968H115.97ZM115.294 204.522V215.416H116.308V204.522H115.294ZM109.444 212.218V213.115H110.211C111.979 213.115 113.162 213.063 114.566 212.764L114.462 211.867C113.097 212.153 111.927 212.218 110.211 212.218H109.444ZM109.444 205.692V212.621H110.51V206.576H113.812V205.692H109.444ZM129.021 204.275V213.089H130.1V204.275H129.021ZM129.762 208.123V209.033H131.842V208.123H129.762ZM121.013 205.692V206.563H127.955V205.692H121.013ZM124.484 207.213C122.807 207.213 121.663 208.084 121.663 209.41C121.663 210.723 122.807 211.594 124.484 211.594C126.148 211.594 127.292 210.723 127.292 209.41C127.292 208.084 126.148 207.213 124.484 207.213ZM124.484 208.058C125.537 208.058 126.265 208.591 126.265 209.41C126.265 210.216 125.537 210.749 124.484 210.749C123.418 210.749 122.69 210.216 122.69 209.41C122.69 208.591 123.418 208.058 124.484 208.058ZM123.938 204.262V206.147H125.017V204.262H123.938ZM122.781 214.87V215.754H130.633V214.87H122.781ZM122.781 212.387V215.247H123.86V212.387H122.781ZM142.652 207.304V208.201H145.304V207.304H142.652ZM144.966 204.262V211.269H146.045V204.262H144.966ZM142.184 211.62C139.753 211.62 138.258 212.439 138.258 213.817C138.258 215.208 139.753 216.001 142.184 216.001C144.602 216.001 146.097 215.208 146.097 213.817C146.097 212.439 144.602 211.62 142.184 211.62ZM142.184 212.465C143.952 212.465 145.031 212.959 145.031 213.817C145.031 214.662 143.952 215.156 142.184 215.156C140.416 215.156 139.337 214.662 139.337 213.817C139.337 212.959 140.416 212.465 142.184 212.465ZM139.376 205.445V206.394C139.376 208.084 138.167 209.657 136.425 210.294L136.984 211.152C138.934 210.424 140.26 208.565 140.26 206.394V205.445H139.376ZM139.584 205.445V206.394C139.584 208.37 140.845 210.138 142.756 210.827L143.302 209.969C141.599 209.371 140.455 207.915 140.455 206.394V205.445H139.584ZM136.75 205.12V206.004H143.029V205.12H136.75ZM148.345 213.622V214.519H158.992V213.622H148.345ZM153.103 210.814V213.882H154.182V210.814H153.103ZM149.593 205.094V211.1H157.718V205.094H156.652V207.187H150.659V205.094H149.593ZM150.659 208.058H156.652V210.216H150.659V208.058ZM160.291 209.722V210.541H170.951V209.722H160.291ZM161.552 211.49V212.257H168.559V213.258H161.591V215.377H162.657V213.999H169.612V211.49H161.552ZM161.591 215.091V215.871H169.989V215.091H161.591ZM161.643 204.6V205.367H168.52V206.316H161.669V208.318H162.735V207.044H169.573V204.6H161.643ZM161.669 208.058V208.838H169.794V208.058H161.669ZM183.985 204.262V216.014H185.051V204.262H183.985ZM184.44 208.851V209.748H186.611V208.851H184.44ZM175.912 205.354V213.167H179.162V205.354H178.265V208.37H176.835V205.354H175.912ZM176.835 209.228H178.265V212.283H176.835V209.228ZM179.786 205.354V213.167H182.997V205.354H182.087V208.37H180.696V205.354H179.786ZM180.696 209.228H182.087V212.283H180.696V209.228ZM187.663 213.635V214.545H198.31V213.635H187.663ZM188.95 205.159V206.043H195.931V207.863H188.989V211.074H190.055V208.721H196.997V205.159H188.95ZM188.989 210.619V211.503H197.27V210.619H188.989ZM208.566 204.262V216.014H209.606V204.262H208.566ZM203.47 209.059V209.93H206.434V209.059H203.47ZM206.122 204.561V215.416H207.136V204.561H206.122ZM203.613 205.744V205.939C203.613 208.708 202.378 211.048 199.609 212.712L200.246 213.479C203.418 211.594 204.653 208.825 204.653 205.744H203.613ZM200.129 205.744V206.628H204.016V205.744H200.129Z" fill="#494949"/>
<path d="M59.52 233.735V235.1H70.401V233.735H59.52ZM64.941 235.75C62.328 235.75 60.755 236.543 60.755 237.96C60.755 239.377 62.328 240.17 64.941 240.17C67.541 240.17 69.114 239.377 69.114 237.96C69.114 236.543 67.541 235.75 64.941 235.75ZM64.941 237.063C66.553 237.063 67.372 237.349 67.372 237.96C67.372 238.584 66.553 238.857 64.941 238.857C63.329 238.857 62.51 238.584 62.51 237.96C62.51 237.349 63.329 237.063 64.941 237.063ZM64.967 228.366C62.315 228.366 60.612 229.276 60.612 230.732C60.612 232.201 62.315 233.098 64.967 233.098C67.606 233.098 69.322 232.201 69.322 230.732C69.322 229.276 67.606 228.366 64.967 228.366ZM64.967 229.705C66.605 229.705 67.541 230.043 67.541 230.732C67.541 231.434 66.605 231.759 64.967 231.759C63.316 231.759 62.393 231.434 62.393 230.732C62.393 230.043 63.316 229.705 64.967 229.705ZM74.612 234.294V236.933H76.341V234.294H74.612ZM79.89 228.119V237.232H81.619V228.119H79.89ZM72.948 238.571V239.949H81.879V238.571H72.948ZM72.948 236.374V238.935H74.677V236.374H72.948ZM71.648 234.814C73.819 234.814 76.64 234.749 79.201 234.32L79.097 233.085C76.575 233.41 73.637 233.436 71.44 233.436L71.648 234.814ZM77.615 235.113V236.296H80.267V235.113H77.615ZM75.314 228.535C73.546 228.535 72.311 229.406 72.311 230.68C72.311 231.967 73.546 232.825 75.314 232.825C77.069 232.825 78.304 231.967 78.304 230.68C78.304 229.406 77.069 228.535 75.314 228.535ZM75.314 229.796C76.107 229.796 76.666 230.095 76.666 230.68C76.666 231.265 76.107 231.564 75.314 231.564C74.508 231.564 73.949 231.265 73.949 230.68C73.949 230.095 74.508 229.796 75.314 229.796ZM84.712 233.488V234.866H93.175V233.488H84.712ZM83.451 237.388V238.805H94.345V237.388H83.451ZM88.014 234.112V237.843H89.743V234.112H88.014ZM84.712 228.938V234.086H86.441V230.329H93.084V228.938H84.712ZM106.968 228.119V236.985H108.697V228.119H106.968ZM98.9206 228.977V230.355H105.278V228.977H98.9206ZM98.7906 235.555C100.702 235.555 103.289 235.503 105.525 235.126L105.434 233.865C103.263 234.112 100.559 234.138 98.6216 234.138L98.7906 235.555ZM99.8696 230.186V234.307H101.534V230.186H99.8696ZM102.665 230.186V234.307H104.316V230.186H102.665ZM105.512 230.225V231.603H107.904V230.225H105.512ZM105.512 232.643V234.034H107.904V232.643H105.512ZM100.741 238.571V239.949H108.97V238.571H100.741ZM100.741 236.335V239.611H102.483V236.335H100.741ZM118.303 228.119V240.157H120.019V228.119H118.303ZM119.629 232.812V234.255H121.761V232.812H119.629ZM110.529 229.9V231.278H117.536V229.9H110.529ZM114.052 231.954C112.297 231.954 110.997 233.15 110.997 234.827C110.997 236.504 112.297 237.7 114.052 237.7C115.807 237.7 117.107 236.504 117.107 234.827C117.107 233.15 115.807 231.954 114.052 231.954ZM114.052 233.358C114.871 233.358 115.456 233.904 115.456 234.827C115.456 235.75 114.871 236.296 114.052 236.296C113.233 236.296 112.648 235.75 112.648 234.827C112.648 233.904 113.233 233.358 114.052 233.358ZM113.181 228.314V230.42H114.91V228.314H113.181ZM131.263 228.119V240.157H132.914V228.119H131.263ZM126.492 232.734V234.099H129.066V232.734H126.492ZM128.728 228.379V239.624H130.34V228.379H128.728ZM126.102 229.536V229.887C126.102 232.799 125.127 234.801 122.384 236.452L123.359 237.661C126.739 235.698 127.766 232.968 127.766 229.536H126.102ZM123.06 229.536V230.914H126.648V229.536H123.06Z" fill="#BC323B"/>
<path d="M145.809 228.262V240.014H146.888V228.262H145.809ZM146.628 233.085V233.995H148.812V233.085H146.628ZM137.788 230.134V231.018H144.717V230.134H137.788ZM141.298 231.993C139.647 231.993 138.438 233.111 138.438 234.697C138.438 236.283 139.647 237.401 141.298 237.401C142.962 237.401 144.158 236.283 144.158 234.697C144.158 233.111 142.962 231.993 141.298 231.993ZM141.298 232.89C142.364 232.89 143.131 233.631 143.131 234.697C143.131 235.75 142.364 236.504 141.298 236.504C140.232 236.504 139.465 235.75 139.465 234.697C139.465 233.631 140.232 232.89 141.298 232.89ZM140.739 228.405V230.537H141.818V228.405H140.739ZM152.711 229.939V231.85C152.711 233.839 151.294 236.075 149.617 236.894L150.241 237.752C152.074 236.816 153.569 234.294 153.569 231.85V229.939H152.711ZM152.906 229.939V231.85C152.906 234.177 154.323 236.543 156.182 237.466L156.793 236.608C155.09 235.802 153.764 233.709 153.764 231.85V229.939H152.906ZM150.033 229.458V230.368H156.364V229.458H150.033ZM157.755 228.262V240.014H158.847V228.262H157.755ZM158.587 233.007V233.917H160.771V233.007H158.587ZM167.23 229.545L167.11 236.281H165.831L165.711 229.545H167.23ZM166.473 239.088C166.217 239.088 165.999 238.998 165.817 238.82C165.636 238.638 165.546 238.42 165.549 238.164C165.546 237.912 165.636 237.697 165.817 237.518C165.999 237.337 166.217 237.246 166.473 237.246C166.722 237.246 166.937 237.337 167.119 237.518C167.301 237.697 167.393 237.912 167.396 238.164C167.393 238.334 167.348 238.489 167.262 238.631C167.179 238.769 167.068 238.88 166.93 238.963C166.791 239.046 166.639 239.088 166.473 239.088Z" fill="#494949"/>
<mask id="path-20-inside-1_471_392" fill="white">
<path fill-rule="evenodd" clip-rule="evenodd" d="M21 6C21 2.68629 23.6863 0 27 0H49C52.3137 0 55 2.68629 55 6C55 8.67433 53.2503 10.94 50.8333 11.7148C50.942 12.1249 51 12.5557 51 13V29.0265C51.4869 29.0089 51.9759 29 52.4669 29H60.9998C72.0455 29 80.9998 37.9543 80.9998 49V67C80.9998 67.6925 80.9294 68.3685 80.7954 69.0213L81 69V91C81 93.7614 78.7614 96 76 96H19.5183C16.23 96 13.837 92.8803 14.6891 89.7044L18.0976 77H17.265C16.3976 77 15.5839 76.7798 14.875 76.3932C11.2129 75.0955 7 71.437 7 62.8269C7 51.3131 12.844 46.1865 16.52 46.1865C17.1135 46.1865 17.6287 46.1267 18.0756 46.0748C18.7424 45.9974 19.2569 45.9376 19.6516 46.1208C21.4807 43.5018 23.6143 41.1142 26 39.0081V13C26 12.6345 26.0392 12.2782 26.1137 11.935C23.2202 11.5066 21 9.01257 21 6Z"/>
</mask>
<path fill-rule="evenodd" clip-rule="evenodd" d="M21 6C21 2.68629 23.6863 0 27 0H49C52.3137 0 55 2.68629 55 6C55 8.67433 53.2503 10.94 50.8333 11.7148C50.942 12.1249 51 12.5557 51 13V29.0265C51.4869 29.0089 51.9759 29 52.4669 29H60.9998C72.0455 29 80.9998 37.9543 80.9998 49V67C80.9998 67.6925 80.9294 68.3685 80.7954 69.0213L81 69V91C81 93.7614 78.7614 96 76 96H19.5183C16.23 96 13.837 92.8803 14.6891 89.7044L18.0976 77H17.265C16.3976 77 15.5839 76.7798 14.875 76.3932C11.2129 75.0955 7 71.437 7 62.8269C7 51.3131 12.844 46.1865 16.52 46.1865C17.1135 46.1865 17.6287 46.1267 18.0756 46.0748C18.7424 45.9974 19.2569 45.9376 19.6516 46.1208C21.4807 43.5018 23.6143 41.1142 26 39.0081V13C26 12.6345 26.0392 12.2782 26.1137 11.935C23.2202 11.5066 21 9.01257 21 6Z" fill="#BC323B"/>
<path d="M50.8333 11.7148L49.3071 6.95338L44.7822 8.40376L46.0004 12.9966L50.8333 11.7148ZM51 29.0265H46V34.2104L51.1805 34.0232L51 29.0265ZM80.7954 69.0213L75.8975 68.0159L74.5255 74.7004L81.3127 73.9945L80.7954 69.0213ZM81 69H86V63.453L80.4827 64.0268L81 69ZM14.6891 89.7044L19.5183 91V91L14.6891 89.7044ZM18.0976 77L22.9268 78.2956L24.6159 72H18.0976V77ZM14.875 76.3932L17.2688 72.0035L16.9198 71.8131L16.5451 71.6804L14.875 76.3932ZM18.0756 46.0748L17.499 41.1081H17.499L18.0756 46.0748ZM19.6516 46.1208L17.5466 50.6561L21.35 52.4213L23.7508 48.9837L19.6516 46.1208ZM26 39.0081L29.3091 42.7564L31 41.2636V39.0081H26ZM26.1137 11.935L31 12.995L32.1331 7.77175L26.846 6.98891L26.1137 11.935ZM27 -5C20.9249 -5 16 -0.0751326 16 6H26C26 5.44772 26.4477 5 27 5V-5ZM49 -5H27V5H49V-5ZM60 6C60 -0.0751315 55.0751 -5 49 -5V5C49.5523 5 50 5.44771 50 6H60ZM52.3595 16.4761C56.7859 15.0573 60 10.9106 60 6H50C50 6.43811 49.7148 6.82269 49.3071 6.95338L52.3595 16.4761ZM56 13C56 12.1192 55.8849 11.2576 55.6662 10.4329L46.0004 12.9966C46.0002 12.9958 46 12.9951 45.9999 12.9945C45.9998 12.994 45.9997 12.9937 45.9997 12.9937C45.9997 12.9937 45.9998 12.9941 45.9999 12.9951C45.9999 12.996 46 12.9976 46 13H56ZM56 29.0265V13H46V29.0265H56ZM52.4669 24C51.9157 24 51.3665 24.01 50.8195 24.0297L51.1805 34.0232C51.6073 34.0078 52.0361 34 52.4669 34V24ZM60.9998 24H52.4669V34H60.9998V24ZM85.9998 49C85.9998 35.1929 74.8069 24 60.9998 24V34C69.2841 34 75.9998 40.7157 75.9998 49H85.9998ZM85.9998 67V49H75.9998V67H85.9998ZM85.6933 70.0266C85.8948 69.0449 85.9998 68.0321 85.9998 67H75.9998C75.9998 67.3528 75.964 67.692 75.8975 68.0159L85.6933 70.0266ZM81.3127 73.9945L81.5173 73.9732L80.4827 64.0268L80.2782 64.0481L81.3127 73.9945ZM76 69V91H86V69H76ZM76 91V101C81.5228 101 86 96.5228 86 91H76ZM76 91H19.5183V101H76V91ZM19.5183 91L19.5183 91L9.85986 88.4087C8.15567 94.7607 12.9417 101 19.5183 101V91ZM19.5183 91L22.9268 78.2956L13.2683 75.7044L9.85986 88.4087L19.5183 91ZM17.265 82H18.0976V72H17.265V82ZM12.4812 80.7829C13.9061 81.56 15.5406 82 17.265 82V72C17.26 72 17.2577 71.9997 17.2576 71.9997C17.2575 71.9997 17.2585 71.9998 17.2603 72.0003C17.2642 72.0013 17.2673 72.0027 17.2688 72.0035L12.4812 80.7829ZM2 62.8269C2 67.9689 3.26909 72.0861 5.47144 75.2243C7.66529 78.3505 10.5462 80.1639 13.205 81.1061L16.5451 71.6804C15.5417 71.3248 14.4851 70.6601 13.657 69.48C12.8373 68.3121 12 66.2949 12 62.8269H2ZM16.52 41.1865C12.5218 41.1865 8.7954 43.7655 6.29658 47.3057C3.67771 51.016 2 56.2317 2 62.8269H12C12 57.9083 13.2443 54.8038 14.4664 53.0723C15.8086 51.1708 16.8423 51.1865 16.52 51.1865V41.1865ZM17.499 41.1081C17.0434 41.161 16.7905 41.1865 16.52 41.1865V51.1865C17.4364 51.1865 18.2141 51.0923 18.6522 51.0414L17.499 41.1081ZM21.7565 41.5855C20.6169 41.0565 19.557 40.9961 18.9329 41.0002C18.3428 41.004 17.7529 41.0787 17.499 41.1081L18.6521 51.0414C18.8323 51.0205 18.9278 51.0097 19.0054 51.0025C19.0793 50.9958 19.0639 50.9995 18.9984 51C18.8969 51.0006 18.2916 51.0019 17.5466 50.6561L21.7565 41.5855ZM22.6909 35.2598C20.0089 37.6275 17.6096 40.3121 15.5523 43.2579L23.7508 48.9837C25.3517 46.6914 27.2198 44.6009 29.3091 42.7564L22.6909 35.2598ZM21 13V39.0081H31V13H21ZM21.2273 10.875C21.0778 11.5642 21 12.2759 21 13H31C31 12.9962 31.0002 12.9943 31.0002 12.9939C31.0003 12.9935 31.0003 12.9939 31 12.995L21.2273 10.875ZM16 6C16 11.5275 20.0722 16.095 25.3813 16.8811L26.846 6.98891C26.3683 6.91818 26 6.49766 26 6H16Z" fill="#BC323B" mask="url(#path-20-inside-1_471_392)"/>
</svg>
