<svg width="63" height="63" viewBox="0 0 63 63" fill="none" xmlns="http://www.w3.org/2000/svg">
<path d="M0 31.5C0 14.103 14.103 0 31.5 0C48.897 0 63 14.103 63 31.5C63 48.897 48.897 63 31.5 63C14.103 63 0 48.897 0 31.5Z" fill="#BC323B"/>
<ellipse cx="25.3541" cy="21.3129" rx="5.3541" ry="6.24645" fill="#F5F5F5"/>
<path fill-rule="evenodd" clip-rule="evenodd" d="M25.5 49.0042C24.6716 49.0042 24 48.3326 24 47.5041V33.6628L24.1732 21.3935C24.1841 20.6207 24.8136 20 25.5865 20C26.3672 20 27 20.6328 27 21.4135V47.5042C27 48.3326 26.3284 49.0042 25.5 49.0042Z" fill="#F5F5F5"/>
<path fill-rule="evenodd" clip-rule="evenodd" d="M35.2709 48.9346C34.5237 48.9124 33.9358 48.2886 33.958 47.5413L34.3933 32.8741L35.0831 16.2461C35.1116 15.559 35.6875 15.0227 36.3749 15.0431C37.068 15.0636 37.6133 15.6422 37.5927 16.3354L36.6641 47.6216C36.642 48.3689 36.0182 48.9567 35.2709 48.9346Z" fill="#F5F5F5"/>
<path fill-rule="evenodd" clip-rule="evenodd" d="M41.357 48.9384C40.6097 48.9605 39.986 48.3726 39.9639 47.6254L39.5294 32.9581L39.2328 16.3184C39.2206 15.6309 39.7637 15.0614 40.4511 15.041C41.1442 15.0205 41.7228 15.5657 41.7433 16.2589L42.67 47.5452C42.6921 48.2925 42.1043 48.9162 41.357 48.9384Z" fill="#F5F5F5"/>
</svg>
